<svg viewBox="0 0 400 400" xmlns="http://www.w3.org/2000/svg">
<polygon points="119,56 68,85.445 68,26.555 119,56 " fill="#f9c406"/>
<polygon points="123,54 73.5,82.579 73.5,25.421 123,54 " fill="#995668"/>
<polygon points="126,52 79.5,78.847 79.5,25.153 126,52 " fill="#FF0000"/>
<polygon points="130,50 85,75.981 85,24.019 130,50 " fill="#f9c406"/>
<polygon points="131,51 101,81 71,51 101,21 131,51 " fill="#FFFFFF"/>
<polygon points="120,50 100,70 80,50 100,30 120,50 " fill="#5f28a8"/>
<polygon points="165,25 163.956,42.062 160.841,58.869 155.701,75.172 148.613,90.726 139.681,105.301 129.04,118.678 116.848,130.659 103.287,141.065 88.559,149.741 72.883,156.557 56.493,161.412 39.634,164.233 22.557,164.979 5.516,163.638 -11.235,160.23 -27.445,154.806 -42.873,147.447 -57.29,138.262 -70.48,127.39 -82.246,114.99 -92.414,101.249 -100.831,86.372 -107.373,70.58 -111.941,54.108 -114.467,37.202 -114.915,20.114 -113.276,3.099 -109.577,-13.589 -103.871,-29.702 -96.244,-45 -86.809,-59.254 -75.708,-72.252 -63.105,-83.8 -49.189,-93.727 -34.167,-101.883 -18.262,-108.148 -1.713,-112.428 15.234,-114.659 32.327,-114.808 49.311,-112.873 65.932,-108.883 81.943,-102.896 97.105,-95.003 111.193,-85.322 123.995,-73.995 135.322,-61.193 145.003,-47.105 152.896,-31.943 158.883,-15.932 162.873,0.689 " fill="#f9c406"/>
<polygon points="180,50 179.031,65.843 176.138,81.45 171.365,96.588 164.783,111.031 156.49,124.565 146.609,136.987 135.288,148.112 122.695,157.775 109.019,165.831 94.463,172.16 79.244,176.668 63.589,179.288 47.731,179.98 31.907,178.735 16.354,175.57 1.301,170.534 -13.025,163.701 -26.412,155.172 -38.66,145.076 -49.586,133.562 -59.027,120.803 -66.843,106.988 -72.917,92.324 -77.159,77.029 -79.505,61.33 -79.921,45.463 -78.399,29.664 -74.964,14.167 -69.666,-0.795 -62.583,-15 -53.823,-28.236 -43.514,-40.306 -31.812,-51.029 -18.89,-60.246 -4.94,-67.82 9.828,-73.637 25.195,-77.612 40.932,-79.683 56.804,-79.822 72.574,-78.025 88.008,-74.32 102.876,-68.761 116.955,-61.432 130.036,-52.441 141.924,-41.924 152.441,-30.036 161.432,-16.955 168.761,-2.876 174.32,11.992 178.025,27.426 " fill="#995668"/>
<polygon points="195,75 194.106,89.624 191.435,104.031 187.03,118.004 180.954,131.337 173.298,143.829 164.177,155.296 153.727,165.565 142.103,174.485 129.479,181.921 116.042,187.763 101.994,191.924 87.543,194.343 72.906,194.982 58.299,193.832 43.942,190.911 30.047,186.262 16.823,179.954 4.466,172.082 -6.84,162.762 -16.925,152.135 -25.64,140.357 -32.855,127.605 -38.462,114.068 -42.378,99.949 -44.543,85.459 -44.927,70.812 -43.523,56.228 -40.351,41.924 -35.461,28.112 -28.923,15 -20.836,2.782 -11.321,-8.359 -0.518,-18.258 11.41,-26.766 24.286,-33.757 37.918,-39.127 52.103,-42.795 66.629,-44.708 81.28,-44.836 95.838,-43.177 110.085,-39.757 123.808,-34.625 136.805,-27.86 148.879,-19.561 159.853,-9.853 169.561,1.121 177.86,13.195 184.625,26.192 189.757,39.915 193.177,54.162 " fill="#FF0000"/>
<polygon points="210,100 209.18,113.406 206.733,126.611 202.694,139.42 197.124,151.642 190.107,163.093 181.746,173.604 172.166,183.018 161.511,191.194 149.939,198.011 137.622,203.366 124.745,207.181 111.498,209.397 98.08,209.983 84.691,208.929 71.53,206.252 58.793,201.99 46.671,196.208 35.344,188.992 24.98,180.449 15.735,170.707 7.746,159.91 1.133,148.221 -4.007,135.812 -7.596,122.87 -9.581,109.587 -9.933,96.161 -8.646,82.792 -5.739,69.68 -1.256,57.02 4.737,45 12.15,33.8 20.873,23.588 30.775,14.514 41.709,6.715 53.512,0.306 66.008,-4.616 79.011,-7.979 92.327,-9.732 105.757,-9.849 119.101,-8.329 132.161,-5.194 144.741,-0.49 156.654,5.712 167.723,13.319 177.782,22.218 186.681,32.277 194.288,43.346 200.49,55.259 205.194,67.839 208.329,80.899 " fill="#f9c406"/>
<polygon points="225,125 224.255,137.187 222.03,149.192 218.358,160.837 213.295,171.947 206.915,182.358 199.314,191.913 190.606,200.471 180.919,207.904 170.399,214.101 159.202,218.969 147.495,222.437 135.453,224.452 123.255,224.985 111.083,224.027 99.118,221.593 87.539,217.718 76.519,212.462 66.221,205.902 56.8,198.135 48.396,189.279 41.133,179.464 35.121,168.837 30.448,157.557 27.185,145.791 25.381,133.716 25.061,121.51 26.231,109.357 28.874,97.436 32.95,85.927 38.397,75 45.136,64.818 53.066,55.534 62.068,47.285 72.008,40.195 82.738,34.369 94.098,29.894 105.919,26.837 118.024,25.244 130.234,25.137 142.365,26.519 154.237,29.37 165.674,33.645 176.504,39.283 186.566,46.199 195.711,54.289 203.801,63.434 210.717,73.496 216.355,84.326 220.63,95.763 223.481,107.635 " fill="#f9c406"/>
<polygon points="240,150 239.329,160.968 237.327,171.773 234.022,182.253 229.465,192.252 223.724,201.622 216.883,210.222 209.045,217.924 200.327,224.613 190.859,230.191 180.782,234.572 170.246,237.693 159.408,239.507 148.429,239.986 137.474,239.124 126.706,236.933 116.285,233.447 106.367,228.716 97.099,222.812 88.62,215.822 81.056,207.851 74.52,199.018 69.109,189.453 64.903,179.301 61.967,168.712 60.342,157.844 60.055,146.859 61.108,135.921 63.486,125.193 67.155,114.834 72.058,105 78.123,95.837 85.259,87.481 93.361,80.057 102.307,73.676 111.964,68.432 122.188,64.405 132.827,61.654 143.722,60.219 154.71,60.123 165.628,61.367 176.313,63.933 186.606,67.781 196.353,72.855 205.41,79.079 213.64,86.36 220.921,94.59 227.145,103.647 232.219,113.394 236.067,123.687 238.633,134.372 " fill="#995668"/>
<polygon points="245,175 244.478,183.531 242.921,191.935 240.351,200.086 236.806,207.863 232.341,215.15 227.02,221.839 220.924,227.83 214.144,233.033 206.779,237.37 198.941,240.778 190.747,243.206 182.317,244.617 173.778,244.989 165.258,244.319 156.883,242.615 148.778,239.903 141.063,236.223 133.855,231.631 127.26,226.195 121.377,219.995 116.293,213.125 112.084,205.686 108.814,197.79 106.53,189.554 105.266,181.101 105.043,172.557 105.862,164.05 107.712,155.705 110.565,147.649 114.378,140 119.096,132.873 124.646,126.374 130.948,120.6 137.906,115.637 145.417,111.558 153.369,108.426 161.643,106.286 170.117,105.171 178.664,105.096 187.155,106.063 195.466,108.059 203.472,111.052 211.053,114.998 218.096,119.839 224.497,125.503 230.161,131.904 235.002,138.947 238.948,146.528 241.941,154.534 243.937,162.845 " fill="#FF0000"/>
<polygon points="260,200 259.553,207.312 258.218,214.515 256.015,221.502 252.977,228.168 249.149,234.415 244.589,240.148 239.364,245.283 233.552,249.742 227.239,253.46 220.521,256.382 213.497,258.462 206.272,259.671 198.953,259.991 191.65,259.416 184.471,257.956 177.524,255.631 170.911,252.477 164.733,248.541 159.08,243.881 154.037,238.567 149.68,232.678 146.072,226.302 143.269,219.534 141.311,212.475 140.228,205.229 140.037,197.906 140.739,190.614 142.324,183.462 144.77,176.556 148.038,170 152.082,163.891 156.84,158.32 162.241,153.371 168.205,149.117 174.643,145.622 181.459,142.937 188.551,141.102 195.815,140.146 203.14,140.082 210.419,140.912 217.542,142.622 224.404,145.187 230.902,148.57 236.94,152.719 242.426,157.574 247.281,163.06 251.43,169.098 254.813,175.596 257.378,182.458 259.088,189.581 " fill="#FFf9c406"/>
<polygon points="505,25 504.031,40.843 501.138,56.45 496.365,71.588 489.783,86.031 481.49,99.565 471.609,111.987 460.288,123.112 447.695,132.775 434.019,140.831 419.463,147.16 404.244,151.668 388.589,154.288 372.731,154.98 356.907,153.735 341.354,150.57 326.301,145.534 311.975,138.701 298.588,130.172 286.34,120.076 275.414,108.562 265.973,95.803 258.157,81.988 252.083,67.324 247.841,52.029 245.495,36.33 245.079,20.463 246.601,4.664 250.036,-10.833 255.334,-25.795 262.417,-40 271.177,-53.236 281.486,-65.306 293.188,-76.029 306.11,-85.246 320.06,-92.82 334.828,-98.637 350.195,-102.612 365.932,-104.683 381.804,-104.822 397.574,-103.025 413.008,-99.32 427.876,-93.761 441.955,-86.432 455.036,-77.441 466.924,-66.924 477.441,-55.036 486.432,-41.955 493.761,-27.876 499.32,-13.008 503.025,2.426 " fill="#f9c406"/>
<polygon points="470,50 469.106,64.624 466.435,79.031 462.03,93.004 455.954,106.337 448.298,118.829 439.177,130.296 428.727,140.565 417.103,149.485 404.479,156.921 391.042,162.763 376.994,166.924 362.543,169.343 347.906,169.982 333.299,168.832 318.942,165.911 305.047,161.262 291.823,154.954 279.466,147.082 268.16,137.762 258.075,127.135 249.36,115.357 242.145,102.605 236.538,89.068 232.622,74.949 230.457,60.459 230.073,45.812 231.477,31.228 234.649,16.924 239.539,3.112 246.077,-10 254.164,-22.218 263.679,-33.359 274.482,-43.258 286.41,-51.766 299.286,-58.757 312.918,-64.127 327.103,-67.795 341.629,-69.708 356.28,-69.836 370.838,-68.177 385.085,-64.757 398.808,-59.625 411.805,-52.86 423.879,-44.561 434.853,-34.853 444.561,-23.879 452.86,-11.805 459.625,1.192 464.757,14.915 468.177,29.162 " fill="#995668"/>
<polygon points="435,75 434.18,88.406 431.733,101.611 427.694,114.42 422.124,126.642 415.107,138.093 406.746,148.604 397.166,158.018 386.511,166.194 374.939,173.011 362.622,178.366 349.745,182.181 336.498,184.397 323.08,184.983 309.691,183.929 296.53,181.252 283.793,176.99 271.671,171.208 260.344,163.992 249.98,155.449 240.735,145.707 232.746,134.91 226.133,123.221 220.993,110.812 217.404,97.87 215.419,84.587 215.067,71.161 216.354,57.792 219.261,44.68 223.744,32.02 229.737,20 237.15,8.8 245.873,-1.412 255.775,-10.486 266.709,-18.285 278.512,-24.694 291.008,-29.616 304.011,-32.979 317.327,-34.732 330.757,-34.849 344.101,-33.329 357.161,-30.194 369.741,-25.49 381.654,-19.288 392.723,-11.681 402.782,-2.782 411.681,7.277 419.288,18.346 425.49,30.259 430.194,42.839 433.329,55.899 " fill="#FF0000"/>
<polygon points="400,100 399.255,112.187 397.03,124.192 393.358,135.837 388.295,146.947 381.915,157.358 374.314,166.913 365.606,175.471 355.919,182.904 345.399,189.101 334.202,193.969 322.495,197.437 310.453,199.452 298.255,199.985 286.083,199.027 274.118,196.593 262.539,192.718 251.519,187.462 241.221,180.902 231.8,173.135 223.396,164.279 216.133,154.464 210.121,143.837 205.448,132.557 202.185,120.791 200.381,108.716 200.061,96.51 201.231,84.357 203.874,72.436 207.95,60.927 213.397,50 220.136,39.818 228.066,30.534 237.068,22.285 247.008,15.195 257.738,9.369 269.098,4.894 280.919,1.837 293.024,0.244 305.234,0.137 317.365,1.519 329.237,4.37 340.674,8.645 351.504,14.283 361.566,21.199 370.711,29.289 378.801,38.434 385.717,48.496 391.355,59.326 395.63,70.763 398.481,82.635 " fill="#f9c406"/>
<polygon points="365,125 364.329,135.968 362.327,146.773 359.022,157.253 354.465,167.252 348.724,176.622 341.883,185.222 334.045,192.924 325.327,199.613 315.859,205.191 305.782,209.572 295.246,212.693 284.408,214.507 273.429,214.986 262.474,214.124 251.706,211.933 241.285,208.447 231.367,203.716 222.099,197.812 213.62,190.822 206.056,182.851 199.52,174.018 194.109,164.453 189.903,154.301 186.967,143.712 185.342,132.844 185.055,121.859 186.108,110.921 188.486,100.193 192.155,89.834 197.058,80 203.123,70.837 210.259,62.481 218.361,55.057 227.307,48.676 236.964,43.432 247.188,39.405 257.827,36.654 268.722,35.219 279.71,35.123 290.628,36.367 301.313,38.933 311.606,42.781 321.353,47.855 330.41,54.079 338.64,61.36 345.921,69.59 352.145,78.647 357.219,88.394 361.067,98.687 363.633,109.372 " fill="#f9c406"/>
<polygon points="330,150 329.404,159.75 327.624,169.354 324.686,178.669 320.636,187.558 315.532,195.886 309.452,203.53 302.485,210.377 294.735,216.323 286.319,221.281 277.362,225.175 267.996,227.95 258.362,229.562 248.604,229.988 238.866,229.221 229.294,227.274 220.031,224.175 211.215,219.97 202.977,214.721 195.44,208.508 188.716,201.423 182.906,193.571 178.096,185.07 174.359,176.045 171.748,166.633 170.304,156.972 170.049,147.208 170.985,137.485 173.099,127.949 176.36,118.742 180.718,110 186.109,101.855 192.453,94.427 199.654,87.828 207.606,82.156 216.191,77.495 225.279,73.915 234.735,71.47 244.419,70.195 254.187,70.11 263.892,71.215 273.39,73.496 282.539,76.916 291.203,81.427 299.253,86.959 306.569,93.431 313.041,100.747 318.573,108.797 323.084,117.461 326.504,126.61 328.785,136.108 " fill="#995668"/>
<polygon points="295,175 294.478,183.531 292.921,191.935 290.351,200.086 286.806,207.863 282.341,215.15 277.02,221.839 270.924,227.83 264.144,233.033 256.779,237.37 248.941,240.778 240.747,243.206 232.317,244.617 223.778,244.989 215.258,244.319 206.883,242.615 198.778,239.903 191.063,236.223 183.855,231.631 177.26,226.195 171.377,219.995 166.293,213.125 162.084,205.686 158.814,197.79 156.53,189.554 155.266,181.101 155.043,172.557 155.862,164.05 157.712,155.705 160.565,147.649 164.378,140 169.096,132.873 174.646,126.374 180.948,120.6 187.906,115.637 195.417,111.558 203.369,108.426 211.643,106.286 220.117,105.171 228.664,105.096 237.155,106.063 245.466,108.059 253.472,111.052 261.053,114.998 268.096,119.839 274.497,125.503 280.161,131.904 285.002,138.947 288.948,146.528 291.941,154.534 293.937,162.845 " fill="#FF0000"/>
<polygon points="260,200 259.553,207.312 258.218,214.515 256.015,221.502 252.977,228.168 249.149,234.415 244.589,240.148 239.364,245.283 233.552,249.742 227.239,253.46 220.521,256.382 213.497,258.462 206.272,259.671 198.953,259.991 191.65,259.416 184.471,257.956 177.524,255.631 170.911,252.477 164.733,248.541 159.08,243.881 154.037,238.567 149.68,232.678 146.072,226.302 143.269,219.534 141.311,212.475 140.228,205.229 140.037,197.906 140.739,190.614 142.324,183.462 144.77,176.556 148.038,170 152.082,163.891 156.84,158.32 162.241,153.371 168.205,149.117 174.643,145.622 181.459,142.937 188.551,141.102 195.815,140.146 203.14,140.082 210.419,140.912 217.542,142.622 224.404,145.187 230.902,148.57 236.94,152.719 242.426,157.574 247.281,163.06 251.43,169.098 254.813,175.596 257.378,182.458 259.088,189.581 " fill="#FFf9c406"/>
<polygon points="505,375 504.031,390.843 501.138,406.45 496.365,421.588 489.783,436.031 481.49,449.565 471.609,461.987 460.288,473.112 447.695,482.775 434.019,490.831 419.463,497.16 404.244,501.668 388.589,504.288 372.731,504.98 356.907,503.735 341.354,500.57 326.301,495.534 311.975,488.701 298.588,480.172 286.34,470.076 275.414,458.562 265.973,445.803 258.157,431.988 252.083,417.324 247.841,402.029 245.495,386.33 245.079,370.463 246.601,354.664 250.036,339.167 255.334,324.205 262.417,310 271.177,296.764 281.486,284.694 293.188,273.971 306.11,264.754 320.06,257.18 334.828,251.363 350.195,247.388 365.932,245.317 381.804,245.178 397.574,246.975 413.008,250.68 427.876,256.239 441.955,263.568 455.036,272.559 466.924,283.076 477.441,294.964 486.432,308.045 493.761,322.124 499.32,336.992 503.025,352.426 " fill="#f9c406"/>
<polygon points="470,350 469.106,364.624 466.435,379.031 462.03,393.004 455.954,406.337 448.298,418.829 439.177,430.296 428.727,440.565 417.103,449.485 404.479,456.921 391.042,462.763 376.994,466.924 362.543,469.343 347.906,469.982 333.299,468.832 318.942,465.911 305.047,461.262 291.823,454.954 279.466,447.082 268.16,437.762 258.075,427.135 249.36,415.357 242.145,402.605 236.538,389.068 232.622,374.949 230.457,360.459 230.073,345.812 231.477,331.228 234.649,316.924 239.539,303.112 246.077,290 254.164,277.782 263.679,266.641 274.482,256.742 286.41,248.234 299.286,241.243 312.918,235.873 327.103,232.205 341.629,230.292 356.28,230.164 370.838,231.823 385.085,235.243 398.808,240.375 411.805,247.14 423.879,255.439 434.853,265.147 444.561,276.121 452.86,288.195 459.625,301.192 464.757,314.915 468.177,329.162 " fill="#995668"/>
<polygon points="435,325 434.18,338.406 431.733,351.611 427.694,364.42 422.124,376.642 415.107,388.093 406.746,398.604 397.166,408.018 386.511,416.194 374.939,423.011 362.622,428.366 349.745,432.181 336.498,434.397 323.08,434.983 309.691,433.929 296.53,431.252 283.793,426.99 271.671,421.208 260.344,413.992 249.98,405.449 240.735,395.707 232.746,384.91 226.133,373.221 220.993,360.812 217.404,347.87 215.419,334.587 215.067,321.161 216.354,307.792 219.261,294.68 223.744,282.02 229.737,270 237.15,258.8 245.873,248.588 255.775,239.514 266.709,231.715 278.512,225.306 291.008,220.384 304.011,217.021 317.327,215.268 330.757,215.151 344.101,216.671 357.161,219.806 369.741,224.51 381.654,230.712 392.723,238.319 402.782,247.218 411.681,257.277 419.288,268.346 425.49,280.259 430.194,292.839 433.329,305.899 " fill="#FF0000"/>
<polygon points="400,300 399.255,312.187 397.03,324.192 393.358,335.837 388.295,346.947 381.915,357.358 374.314,366.913 365.606,375.471 355.919,382.904 345.399,389.101 334.202,393.969 322.495,397.437 310.453,399.452 298.255,399.985 286.083,399.027 274.118,396.593 262.539,392.718 251.519,387.462 241.221,380.902 231.8,373.135 223.396,364.279 216.133,354.464 210.121,343.837 205.448,332.557 202.185,320.791 200.381,308.716 200.061,296.51 201.231,284.357 203.874,272.436 207.95,260.927 213.397,250 220.136,239.818 228.066,230.534 237.068,222.285 247.008,215.195 257.738,209.369 269.098,204.894 280.919,201.837 293.024,200.244 305.234,200.137 317.365,201.519 329.237,204.37 340.674,208.645 351.504,214.283 361.566,221.199 370.711,229.289 378.801,238.434 385.717,248.496 391.355,259.326 395.63,270.763 398.481,282.635 " fill="#f9c406"/>
<polygon points="365,275 364.329,285.968 362.327,296.773 359.022,307.253 354.465,317.252 348.724,326.622 341.883,335.222 334.045,342.924 325.327,349.613 315.859,355.191 305.782,359.572 295.246,362.693 284.408,364.507 273.429,364.986 262.474,364.124 251.706,361.933 241.285,358.447 231.367,353.716 222.099,347.812 213.62,340.822 206.056,332.851 199.52,324.018 194.109,314.453 189.903,304.301 186.967,293.712 185.342,282.844 185.055,271.859 186.108,260.921 188.486,250.193 192.155,239.834 197.058,230 203.123,220.837 210.259,212.481 218.361,205.057 227.307,198.676 236.964,193.432 247.188,189.405 257.827,186.654 268.722,185.219 279.71,185.123 290.628,186.367 301.313,188.933 311.606,192.781 321.353,197.855 330.41,204.079 338.64,211.36 345.921,219.59 352.145,228.647 357.219,238.394 361.067,248.687 363.633,259.372 " fill="#f9c406"/>
<polygon points="330,250 329.404,259.75 327.624,269.354 324.686,278.669 320.636,287.558 315.532,295.886 309.452,303.53 302.485,310.377 294.735,316.323 286.319,321.281 277.362,325.175 267.996,327.95 258.362,329.562 248.604,329.988 238.866,329.221 229.294,327.274 220.031,324.175 211.215,319.97 202.977,314.721 195.44,308.508 188.716,301.423 182.906,293.571 178.096,285.07 174.359,276.045 171.748,266.633 170.304,256.972 170.049,247.208 170.985,237.485 173.099,227.949 176.36,218.742 180.718,210 186.109,201.855 192.453,194.427 199.654,187.828 207.606,182.156 216.191,177.495 225.279,173.915 234.735,171.47 244.419,170.195 254.187,170.11 263.892,171.215 273.39,173.496 282.539,176.916 291.203,181.427 299.253,186.959 306.569,193.431 313.041,200.747 318.573,208.797 323.084,217.461 326.504,226.61 328.785,236.108 " fill="#995668"/>
<polygon points="295,225 294.478,233.531 292.921,241.935 290.351,250.086 286.806,257.863 282.341,265.15 277.02,271.839 270.924,277.83 264.144,283.033 256.779,287.37 248.941,290.778 240.747,293.206 232.317,294.617 223.778,294.989 215.258,294.319 206.883,292.615 198.778,289.903 191.063,286.223 183.855,281.631 177.26,276.195 171.377,269.995 166.293,263.125 162.084,255.686 158.814,247.79 156.53,239.554 155.266,231.101 155.043,222.557 155.862,214.05 157.712,205.705 160.565,197.649 164.378,190 169.096,182.873 174.646,176.374 180.948,170.6 187.906,165.637 195.417,161.558 203.369,158.426 211.643,156.286 220.117,155.171 228.664,155.096 237.155,156.063 245.466,158.059 253.472,161.052 261.053,164.998 268.096,169.839 274.497,175.503 280.161,181.904 285.002,188.947 288.948,196.528 291.941,204.534 293.937,212.845 " fill="#FF0000"/>
<polygon points="260,200 259.553,207.312 258.218,214.515 256.015,221.502 252.977,228.168 249.149,234.415 244.589,240.148 239.364,245.283 233.552,249.742 227.239,253.46 220.521,256.382 213.497,258.462 206.272,259.671 198.953,259.991 191.65,259.416 184.471,257.956 177.524,255.631 170.911,252.477 164.733,248.541 159.08,243.881 154.037,238.567 149.68,232.678 146.072,226.302 143.269,219.534 141.311,212.475 140.228,205.229 140.037,197.906 140.739,190.614 142.324,183.462 144.77,176.556 148.038,170 152.082,163.891 156.84,158.32 162.241,153.371 168.205,149.117 174.643,145.622 181.459,142.937 188.551,141.102 195.815,140.146 203.14,140.082 210.419,140.912 217.542,142.622 224.404,145.187 230.902,148.57 236.94,152.719 242.426,157.574 247.281,163.06 251.43,169.098 254.813,175.596 257.378,182.458 259.088,189.581 " fill="#FFf9c406"/>
<polygon points="155,375 154.031,390.843 151.138,406.45 146.365,421.588 139.783,436.031 131.49,449.565 121.609,461.987 110.288,473.112 97.695,482.775 84.019,490.831 69.463,497.16 54.244,501.668 38.589,504.288 22.731,504.98 6.907,503.735 -8.646,500.57 -23.699,495.534 -38.025,488.701 -51.412,480.172 -63.66,470.076 -74.586,458.562 -84.027,445.803 -91.843,431.988 -97.917,417.324 -102.159,402.029 -104.505,386.33 -104.921,370.463 -103.399,354.664 -99.964,339.167 -94.666,324.205 -87.583,310 -78.823,296.764 -68.514,284.694 -56.812,273.971 -43.89,264.754 -29.94,257.18 -15.172,251.363 0.195,247.388 15.932,245.317 31.804,245.178 47.574,246.975 63.008,250.68 77.876,256.239 91.955,263.568 105.036,272.559 116.924,283.076 127.441,294.964 136.432,308.045 143.761,322.124 149.32,336.992 153.025,352.426 " fill="#f9c406"/>
<polygon points="170,350 169.106,364.624 166.435,379.031 162.03,393.004 155.954,406.337 148.298,418.829 139.177,430.296 128.727,440.565 117.103,449.485 104.479,456.921 91.042,462.763 76.994,466.924 62.543,469.343 47.906,469.982 33.299,468.832 18.942,465.911 5.047,461.262 -8.177,454.954 -20.534,447.082 -31.84,437.762 -41.925,427.135 -50.64,415.357 -57.855,402.605 -63.462,389.068 -67.378,374.949 -69.543,360.459 -69.927,345.812 -68.523,331.228 -65.351,316.924 -60.461,303.112 -53.923,290 -45.836,277.782 -36.321,266.641 -25.518,256.742 -13.59,248.234 -0.714,241.243 12.918,235.873 27.103,232.205 41.629,230.292 56.28,230.164 70.838,231.823 85.085,235.243 98.808,240.375 111.805,247.14 123.879,255.439 134.853,265.147 144.561,276.121 152.86,288.195 159.625,301.192 164.757,314.915 168.177,329.162 " fill="#995668"/>
<polygon points="185,325 184.18,338.406 181.733,351.611 177.694,364.42 172.124,376.642 165.107,388.093 156.746,398.604 147.166,408.018 136.511,416.194 124.939,423.011 112.622,428.366 99.745,432.181 86.498,434.397 73.08,434.983 59.691,433.929 46.53,431.252 33.793,426.99 21.671,421.208 10.344,413.992 -0.02,405.449 -9.265,395.707 -17.254,384.91 -23.867,373.221 -29.007,360.812 -32.596,347.87 -34.581,334.587 -34.933,321.161 -33.646,307.792 -30.739,294.68 -26.256,282.02 -20.263,270 -12.85,258.8 -4.127,248.588 5.775,239.514 16.709,231.715 28.512,225.306 41.008,220.384 54.011,217.021 67.327,215.268 80.757,215.151 94.101,216.671 107.161,219.806 119.741,224.51 131.654,230.712 142.723,238.319 152.782,247.218 161.681,257.277 169.288,268.346 175.49,280.259 180.194,292.839 183.329,305.899 " fill="#FF0000"/>
<polygon points="200,300 199.255,312.187 197.03,324.192 193.358,335.837 188.295,346.947 181.915,357.358 174.314,366.913 165.606,375.471 155.919,382.904 145.399,389.101 134.202,393.969 122.495,397.437 110.453,399.452 98.255,399.985 86.083,399.027 74.118,396.593 62.539,392.718 51.519,387.462 41.221,380.902 31.8,373.135 23.396,364.279 16.133,354.464 10.121,343.837 5.448,332.557 2.185,320.791 0.381,308.716 0.061,296.51 1.231,284.357 3.874,272.436 7.95,260.927 13.397,250 20.136,239.818 28.066,230.534 37.068,222.285 47.008,215.195 57.738,209.369 69.098,204.894 80.919,201.837 93.024,200.244 105.234,200.137 117.365,201.519 129.237,204.37 140.674,208.645 151.504,214.283 161.566,221.199 170.711,229.289 178.801,238.434 185.717,248.496 191.355,259.326 195.63,270.763 198.481,282.635 " fill="#f9c406"/>
<polygon points="215,275 214.329,285.968 212.327,296.773 209.022,307.253 204.465,317.252 198.724,326.622 191.883,335.222 184.045,342.924 175.327,349.613 165.859,355.191 155.782,359.572 145.246,362.693 134.408,364.507 123.429,364.986 112.474,364.124 101.706,361.933 91.285,358.447 81.367,353.716 72.099,347.812 63.62,340.822 56.056,332.851 49.52,324.018 44.109,314.453 39.903,304.301 36.967,293.712 35.342,282.844 35.055,271.859 36.108,260.921 38.486,250.193 42.155,239.834 47.058,230 53.123,220.837 60.259,212.481 68.361,205.057 77.307,198.676 86.964,193.432 97.188,189.405 107.827,186.654 118.722,185.219 129.71,185.123 140.628,186.367 151.313,188.933 161.606,192.781 171.353,197.855 180.41,204.079 188.64,211.36 195.921,219.59 202.145,228.647 207.219,238.394 211.067,248.687 213.633,259.372 " fill="#f9c406"/>
<polygon points="230,250 229.404,259.75 227.624,269.354 224.686,278.669 220.636,287.558 215.532,295.886 209.452,303.53 202.485,310.377 194.735,316.323 186.319,321.281 177.362,325.175 167.996,327.95 158.362,329.562 148.604,329.988 138.866,329.221 129.294,327.274 120.031,324.175 111.215,319.97 102.977,314.721 95.44,308.508 88.716,301.423 82.906,293.571 78.096,285.07 74.359,276.045 71.748,266.633 70.304,256.972 70.049,247.208 70.985,237.485 73.099,227.949 76.36,218.742 80.718,210 86.109,201.855 92.453,194.427 99.654,187.828 107.606,182.156 116.191,177.495 125.279,173.915 134.735,171.47 144.419,170.195 154.187,170.11 163.892,171.215 173.39,173.496 182.539,176.916 191.203,181.427 199.253,186.959 206.569,193.431 213.041,200.747 218.573,208.797 223.084,217.461 226.504,226.61 228.785,236.108 " fill="#995668"/>
<polygon points="245,225 244.478,233.531 242.921,241.935 240.351,250.086 236.806,257.863 232.341,265.15 227.02,271.839 220.924,277.83 214.144,283.033 206.779,287.37 198.941,290.778 190.747,293.206 182.317,294.617 173.778,294.989 165.258,294.319 156.883,292.615 148.778,289.903 141.063,286.223 133.855,281.631 127.26,276.195 121.377,269.995 116.293,263.125 112.084,255.686 108.814,247.79 106.53,239.554 105.266,231.101 105.043,222.557 105.862,214.05 107.712,205.705 110.565,197.649 114.378,190 119.096,182.873 124.646,176.374 130.948,170.6 137.906,165.637 145.417,161.558 153.369,158.426 161.643,156.286 170.117,155.171 178.664,155.096 187.155,156.063 195.466,158.059 203.472,161.052 211.053,164.998 218.096,169.839 224.497,175.503 230.161,181.904 235.002,188.947 238.948,196.528 241.941,204.534 243.937,212.845 " fill="#FF0000"/>
<polygon points="260,200 259.553,207.312 258.218,214.515 256.015,221.502 252.977,228.168 249.149,234.415 244.589,240.148 239.364,245.283 233.552,249.742 227.239,253.46 220.521,256.382 213.497,258.462 206.272,259.671 198.953,259.991 191.65,259.416 184.471,257.956 177.524,255.631 170.911,252.477 164.733,248.541 159.08,243.881 154.037,238.567 149.68,232.678 146.072,226.302 143.269,219.534 141.311,212.475 140.228,205.229 140.037,197.906 140.739,190.614 142.324,183.462 144.77,176.556 148.038,170 152.082,163.891 156.84,158.32 162.241,153.371 168.205,149.117 174.643,145.622 181.459,142.937 188.551,141.102 195.815,140.146 203.14,140.082 210.419,140.912 217.542,142.622 224.404,145.187 230.902,148.57 236.94,152.719 242.426,157.574 247.281,163.06 251.43,169.098 254.813,175.596 257.378,182.458 259.088,189.581 " fill="#FFf9c406"/>
<polygon points="330,375 329.031,390.843 326.138,406.45 321.365,421.588 314.783,436.031 306.49,449.565 296.609,461.987 285.288,473.112 272.695,482.775 259.019,490.831 244.463,497.16 229.244,501.668 213.589,504.288 197.731,504.98 181.907,503.735 166.354,500.57 151.301,495.534 136.975,488.701 123.588,480.172 111.34,470.076 100.414,458.562 90.973,445.803 83.157,431.988 77.083,417.324 72.841,402.029 70.495,386.33 70.079,370.463 71.601,354.664 75.036,339.167 80.334,324.205 87.417,310 96.177,296.764 106.486,284.694 118.188,273.971 131.11,264.754 145.06,257.18 159.828,251.363 175.195,247.388 190.932,245.317 206.804,245.178 222.574,246.975 238.008,250.68 252.876,256.239 266.955,263.568 280.036,272.559 291.924,283.076 302.441,294.964 311.432,308.045 318.761,322.124 324.32,336.992 328.025,352.426 " fill="#f9c406"/>
<polygon points="320,350 319.106,364.624 316.435,379.031 312.03,393.004 305.954,406.337 298.298,418.829 289.177,430.296 278.727,440.565 267.103,449.485 254.479,456.921 241.042,462.763 226.994,466.924 212.543,469.343 197.906,469.982 183.299,468.832 168.942,465.911 155.047,461.262 141.823,454.954 129.466,447.082 118.16,437.762 108.075,427.135 99.36,415.357 92.145,402.605 86.538,389.068 82.622,374.949 80.457,360.459 80.073,345.812 81.477,331.228 84.649,316.924 89.539,303.112 96.077,290 104.164,277.782 113.679,266.641 124.482,256.742 136.41,248.234 149.286,241.243 162.918,235.873 177.103,232.205 191.629,230.292 206.28,230.164 220.838,231.823 235.085,235.243 248.808,240.375 261.805,247.14 273.879,255.439 284.853,265.147 294.561,276.121 302.86,288.195 309.625,301.192 314.757,314.915 318.177,329.162 " fill="#995668"/>
<polygon points="310,325 309.18,338.406 306.733,351.611 302.694,364.42 297.124,376.642 290.107,388.093 281.746,398.604 272.166,408.018 261.511,416.194 249.939,423.011 237.622,428.366 224.745,432.181 211.498,434.397 198.08,434.983 184.691,433.929 171.53,431.252 158.793,426.99 146.671,421.208 135.344,413.992 124.98,405.449 115.735,395.707 107.746,384.91 101.133,373.221 95.993,360.812 92.404,347.87 90.419,334.587 90.067,321.161 91.354,307.792 94.261,294.68 98.744,282.02 104.737,270 112.15,258.8 120.873,248.588 130.775,239.514 141.709,231.715 153.512,225.306 166.008,220.384 179.011,217.021 192.327,215.268 205.757,215.151 219.101,216.671 232.161,219.806 244.741,224.51 256.654,230.712 267.723,238.319 277.782,247.218 286.681,257.277 294.288,268.346 300.49,280.259 305.194,292.839 308.329,305.899 " fill="#FF0000"/>
<polygon points="300,300 299.255,312.187 297.03,324.192 293.358,335.837 288.295,346.947 281.915,357.358 274.314,366.913 265.606,375.471 255.919,382.904 245.399,389.101 234.202,393.969 222.495,397.437 210.453,399.452 198.255,399.985 186.083,399.027 174.118,396.593 162.539,392.718 151.519,387.462 141.221,380.902 131.8,373.135 123.396,364.279 116.133,354.464 110.121,343.837 105.448,332.557 102.185,320.791 100.381,308.716 100.061,296.51 101.231,284.357 103.874,272.436 107.95,260.927 113.397,250 120.136,239.818 128.066,230.534 137.068,222.285 147.008,215.195 157.738,209.369 169.098,204.894 180.919,201.837 193.024,200.244 205.234,200.137 217.365,201.519 229.237,204.37 240.674,208.645 251.504,214.283 261.566,221.199 270.711,229.289 278.801,238.434 285.717,248.496 291.355,259.326 295.63,270.763 298.481,282.635 " fill="#f9c406"/>
<polygon points="290,275 289.329,285.968 287.327,296.773 284.022,307.253 279.465,317.252 273.724,326.622 266.883,335.222 259.045,342.924 250.327,349.613 240.859,355.191 230.782,359.572 220.246,362.693 209.408,364.507 198.429,364.986 187.474,364.124 176.706,361.933 166.285,358.447 156.367,353.716 147.099,347.812 138.62,340.822 131.056,332.851 124.52,324.018 119.109,314.453 114.903,304.301 111.967,293.712 110.342,282.844 110.055,271.859 111.108,260.921 113.486,250.193 117.155,239.834 122.058,230 128.123,220.837 135.259,212.481 143.361,205.057 152.307,198.676 161.964,193.432 172.188,189.405 182.827,186.654 193.722,185.219 204.71,185.123 215.628,186.367 226.313,188.933 236.606,192.781 246.353,197.855 255.41,204.079 263.64,211.36 270.921,219.59 277.145,228.647 282.219,238.394 286.067,248.687 288.633,259.372 " fill="#f9c406"/>
<polygon points="280,250 279.404,259.75 277.624,269.354 274.686,278.669 270.636,287.558 265.532,295.886 259.452,303.53 252.485,310.377 244.735,316.323 236.319,321.281 227.362,325.175 217.996,327.95 208.362,329.562 198.604,329.988 188.866,329.221 179.294,327.274 170.031,324.175 161.215,319.97 152.977,314.721 145.44,308.508 138.716,301.423 132.906,293.571 128.096,285.07 124.359,276.045 121.748,266.633 120.304,256.972 120.049,247.208 120.985,237.485 123.099,227.949 126.36,218.742 130.718,210 136.109,201.855 142.453,194.427 149.654,187.828 157.606,182.156 166.191,177.495 175.279,173.915 184.735,171.47 194.419,170.195 204.187,170.11 213.892,171.215 223.39,173.496 232.539,176.916 241.203,181.427 249.253,186.959 256.569,193.431 263.041,200.747 268.573,208.797 273.084,217.461 276.504,226.61 278.785,236.108 " fill="#995668"/>
<polygon points="270,225 269.478,233.531 267.921,241.935 265.351,250.086 261.806,257.863 257.341,265.15 252.02,271.839 245.924,277.83 239.144,283.033 231.779,287.37 223.941,290.778 215.747,293.206 207.317,294.617 198.778,294.989 190.258,294.319 181.883,292.615 173.778,289.903 166.063,286.223 158.855,281.631 152.26,276.195 146.377,269.995 141.293,263.125 137.084,255.686 133.814,247.79 131.53,239.554 130.266,231.101 130.043,222.557 130.862,214.05 132.712,205.705 135.565,197.649 139.378,190 144.096,182.873 149.646,176.374 155.948,170.6 162.906,165.637 170.417,161.558 178.369,158.426 186.643,156.286 195.117,155.171 203.664,155.096 212.155,156.063 220.466,158.059 228.472,161.052 236.053,164.998 243.096,169.839 249.497,175.503 255.161,181.904 260.002,188.947 263.948,196.528 266.941,204.534 268.937,212.845 " fill="#FF0000"/>
<polygon points="260,200 259.553,207.312 258.218,214.515 256.015,221.502 252.977,228.168 249.149,234.415 244.589,240.148 239.364,245.283 233.552,249.742 227.239,253.46 220.521,256.382 213.497,258.462 206.272,259.671 198.953,259.991 191.65,259.416 184.471,257.956 177.524,255.631 170.911,252.477 164.733,248.541 159.08,243.881 154.037,238.567 149.68,232.678 146.072,226.302 143.269,219.534 141.311,212.475 140.228,205.229 140.037,197.906 140.739,190.614 142.324,183.462 144.77,176.556 148.038,170 152.082,163.891 156.84,158.32 162.241,153.371 168.205,149.117 174.643,145.622 181.459,142.937 188.551,141.102 195.815,140.146 203.14,140.082 210.419,140.912 217.542,142.622 224.404,145.187 230.902,148.57 236.94,152.719 242.426,157.574 247.281,163.06 251.43,169.098 254.813,175.596 257.378,182.458 259.088,189.581 " fill="#FFf9c406"/>
<polygon points="330,25 329.031,40.843 326.138,56.45 321.365,71.588 314.783,86.031 306.49,99.565 296.609,111.987 285.288,123.112 272.695,132.775 259.019,140.831 244.463,147.16 229.244,151.668 213.589,154.288 197.731,154.98 181.907,153.735 166.354,150.57 151.301,145.534 136.975,138.701 123.588,130.172 111.34,120.076 100.414,108.562 90.973,95.803 83.157,81.988 77.083,67.324 72.841,52.029 70.495,36.33 70.079,20.463 71.601,4.664 75.036,-10.833 80.334,-25.795 87.417,-40 96.177,-53.236 106.486,-65.306 118.188,-76.029 131.11,-85.246 145.06,-92.82 159.828,-98.637 175.195,-102.612 190.932,-104.683 206.804,-104.822 222.574,-103.025 238.008,-99.32 252.876,-93.761 266.955,-86.432 280.036,-77.441 291.924,-66.924 302.441,-55.036 311.432,-41.955 318.761,-27.876 324.32,-13.008 328.025,2.426 " fill="#f9c406"/>
<polygon points="320,50 319.106,64.624 316.435,79.031 312.03,93.004 305.954,106.337 298.298,118.829 289.177,130.296 278.727,140.565 267.103,149.485 254.479,156.921 241.042,162.763 226.994,166.924 212.543,169.343 197.906,169.982 183.299,168.832 168.942,165.911 155.047,161.262 141.823,154.954 129.466,147.082 118.16,137.762 108.075,127.135 99.36,115.357 92.145,102.605 86.538,89.068 82.622,74.949 80.457,60.459 80.073,45.812 81.477,31.228 84.649,16.924 89.539,3.112 96.077,-10 104.164,-22.218 113.679,-33.359 124.482,-43.258 136.41,-51.766 149.286,-58.757 162.918,-64.127 177.103,-67.795 191.629,-69.708 206.28,-69.836 220.838,-68.177 235.085,-64.757 248.808,-59.625 261.805,-52.86 273.879,-44.561 284.853,-34.853 294.561,-23.879 302.86,-11.805 309.625,1.192 314.757,14.915 318.177,29.162 " fill="#995668"/>
<polygon points="310,75 309.18,88.406 306.733,101.611 302.694,114.42 297.124,126.642 290.107,138.093 281.746,148.604 272.166,158.018 261.511,166.194 249.939,173.011 237.622,178.366 224.745,182.181 211.498,184.397 198.08,184.983 184.691,183.929 171.53,181.252 158.793,176.99 146.671,171.208 135.344,163.992 124.98,155.449 115.735,145.707 107.746,134.91 101.133,123.221 95.993,110.812 92.404,97.87 90.419,84.587 90.067,71.161 91.354,57.792 94.261,44.68 98.744,32.02 104.737,20 112.15,8.8 120.873,-1.412 130.775,-10.486 141.709,-18.285 153.512,-24.694 166.008,-29.616 179.011,-32.979 192.327,-34.732 205.757,-34.849 219.101,-33.329 232.161,-30.194 244.741,-25.49 256.654,-19.288 267.723,-11.681 277.782,-2.782 286.681,7.277 294.288,18.346 300.49,30.259 305.194,42.839 308.329,55.899 " fill="#FF0000"/>
<polygon points="300,100 299.255,112.187 297.03,124.192 293.358,135.837 288.295,146.947 281.915,157.358 274.314,166.913 265.606,175.471 255.919,182.904 245.399,189.101 234.202,193.969 222.495,197.437 210.453,199.452 198.255,199.985 186.083,199.027 174.118,196.593 162.539,192.718 151.519,187.462 141.221,180.902 131.8,173.135 123.396,164.279 116.133,154.464 110.121,143.837 105.448,132.557 102.185,120.791 100.381,108.716 100.061,96.51 101.231,84.357 103.874,72.436 107.95,60.927 113.397,50 120.136,39.818 128.066,30.534 137.068,22.285 147.008,15.195 157.738,9.369 169.098,4.894 180.919,1.837 193.024,0.244 205.234,0.137 217.365,1.519 229.237,4.37 240.674,8.645 251.504,14.283 261.566,21.199 270.711,29.289 278.801,38.434 285.717,48.496 291.355,59.326 295.63,70.763 298.481,82.635 " fill="#f9c406"/>
<polygon points="290,125 289.329,135.968 287.327,146.773 284.022,157.253 279.465,167.252 273.724,176.622 266.883,185.222 259.045,192.924 250.327,199.613 240.859,205.191 230.782,209.572 220.246,212.693 209.408,214.507 198.429,214.986 187.474,214.124 176.706,211.933 166.285,208.447 156.367,203.716 147.099,197.812 138.62,190.822 131.056,182.851 124.52,174.018 119.109,164.453 114.903,154.301 111.967,143.712 110.342,132.844 110.055,121.859 111.108,110.921 113.486,100.193 117.155,89.834 122.058,80 128.123,70.837 135.259,62.481 143.361,55.057 152.307,48.676 161.964,43.432 172.188,39.405 182.827,36.654 193.722,35.219 204.71,35.123 215.628,36.367 226.313,38.933 236.606,42.781 246.353,47.855 255.41,54.079 263.64,61.36 270.921,69.59 277.145,78.647 282.219,88.394 286.067,98.687 288.633,109.372 " fill="#f9c406"/>
<polygon points="280,150 279.404,159.75 277.624,169.354 274.686,178.669 270.636,187.558 265.532,195.886 259.452,203.53 252.485,210.377 244.735,216.323 236.319,221.281 227.362,225.175 217.996,227.95 208.362,229.562 198.604,229.988 188.866,229.221 179.294,227.274 170.031,224.175 161.215,219.97 152.977,214.721 145.44,208.508 138.716,201.423 132.906,193.571 128.096,185.07 124.359,176.045 121.748,166.633 120.304,156.972 120.049,147.208 120.985,137.485 123.099,127.949 126.36,118.742 130.718,110 136.109,101.855 142.453,94.427 149.654,87.828 157.606,82.156 166.191,77.495 175.279,73.915 184.735,71.47 194.419,70.195 204.187,70.11 213.892,71.215 223.39,73.496 232.539,76.916 241.203,81.427 249.253,86.959 256.569,93.431 263.041,100.747 268.573,108.797 273.084,117.461 276.504,126.61 278.785,136.108 " fill="#995668"/>
<polygon points="270,175 269.478,183.531 267.921,191.935 265.351,200.086 261.806,207.863 257.341,215.15 252.02,221.839 245.924,227.83 239.144,233.033 231.779,237.37 223.941,240.778 215.747,243.206 207.317,244.617 198.778,244.989 190.258,244.319 181.883,242.615 173.778,239.903 166.063,236.223 158.855,231.631 152.26,226.195 146.377,219.995 141.293,213.125 137.084,205.686 133.814,197.79 131.53,189.554 130.266,181.101 130.043,172.557 130.862,164.05 132.712,155.705 135.565,147.649 139.378,140 144.096,132.873 149.646,126.374 155.948,120.6 162.906,115.637 170.417,111.558 178.369,108.426 186.643,106.286 195.117,105.171 203.664,105.096 212.155,106.063 220.466,108.059 228.472,111.052 236.053,114.998 243.096,119.839 249.497,125.503 255.161,131.904 260.002,138.947 263.948,146.528 266.941,154.534 268.937,162.845 " fill="#FF0000"/>
<polygon points="260,200 259.553,207.312 258.218,214.515 256.015,221.502 252.977,228.168 249.149,234.415 244.589,240.148 239.364,245.283 233.552,249.742 227.239,253.46 220.521,256.382 213.497,258.462 206.272,259.671 198.953,259.991 191.65,259.416 184.471,257.956 177.524,255.631 170.911,252.477 164.733,248.541 159.08,243.881 154.037,238.567 149.68,232.678 146.072,226.302 143.269,219.534 141.311,212.475 140.228,205.229 140.037,197.906 140.739,190.614 142.324,183.462 144.77,176.556 148.038,170 152.082,163.891 156.84,158.32 162.241,153.371 168.205,149.117 174.643,145.622 181.459,142.937 188.551,141.102 195.815,140.146 203.14,140.082 210.419,140.912 217.542,142.622 224.404,145.187 230.902,148.57 236.94,152.719 242.426,157.574 247.281,163.06 251.43,169.098 254.813,175.596 257.378,182.458 259.088,189.581 " fill="#FFf9c406"/>
<polygon points="505,200 504.031,215.843 501.138,231.45 496.365,246.588 489.783,261.031 481.49,274.565 471.609,286.987 460.288,298.112 447.695,307.775 434.019,315.831 419.463,322.16 404.244,326.668 388.589,329.288 372.731,329.98 356.907,328.735 341.354,325.57 326.301,320.534 311.975,313.701 298.588,305.172 286.34,295.076 275.414,283.562 265.973,270.803 258.157,256.988 252.083,242.324 247.841,227.029 245.495,211.33 245.079,195.463 246.601,179.664 250.036,164.167 255.334,149.205 262.417,135 271.177,121.764 281.486,109.694 293.188,98.971 306.11,89.754 320.06,82.18 334.828,76.363 350.195,72.388 365.932,70.317 381.804,70.178 397.574,71.975 413.008,75.68 427.876,81.239 441.955,88.568 455.036,97.559 466.924,108.076 477.441,119.964 486.432,133.045 493.761,147.124 499.32,161.992 503.025,177.426 " fill="#f9c406"/>
<polygon points="470,200 469.106,214.624 466.435,229.031 462.03,243.004 455.954,256.337 448.298,268.829 439.177,280.296 428.727,290.565 417.103,299.485 404.479,306.921 391.042,312.763 376.994,316.924 362.543,319.343 347.906,319.982 333.299,318.832 318.942,315.911 305.047,311.262 291.823,304.954 279.466,297.082 268.16,287.762 258.075,277.135 249.36,265.357 242.145,252.605 236.538,239.068 232.622,224.949 230.457,210.459 230.073,195.812 231.477,181.228 234.649,166.924 239.539,153.112 246.077,140 254.164,127.782 263.679,116.641 274.482,106.742 286.41,98.234 299.286,91.243 312.918,85.873 327.103,82.205 341.629,80.292 356.28,80.164 370.838,81.823 385.085,85.243 398.808,90.375 411.805,97.14 423.879,105.439 434.853,115.147 444.561,126.121 452.86,138.195 459.625,151.192 464.757,164.915 468.177,179.162 " fill="#995668"/>
<polygon points="435,200 434.18,213.406 431.733,226.611 427.694,239.42 422.124,251.642 415.107,263.093 406.746,273.604 397.166,283.018 386.511,291.194 374.939,298.011 362.622,303.366 349.745,307.181 336.498,309.397 323.08,309.983 309.691,308.929 296.53,306.252 283.793,301.99 271.671,296.208 260.344,288.992 249.98,280.449 240.735,270.707 232.746,259.91 226.133,248.221 220.993,235.812 217.404,222.87 215.419,209.587 215.067,196.161 216.354,182.792 219.261,169.68 223.744,157.02 229.737,145 237.15,133.8 245.873,123.588 255.775,114.514 266.709,106.715 278.512,100.306 291.008,95.384 304.011,92.021 317.327,90.268 330.757,90.151 344.101,91.671 357.161,94.806 369.741,99.51 381.654,105.712 392.723,113.319 402.782,122.218 411.681,132.277 419.288,143.346 425.49,155.259 430.194,167.839 433.329,180.899 " fill="#FF0000"/>
<polygon points="400,200 399.255,212.187 397.03,224.192 393.358,235.837 388.295,246.947 381.915,257.358 374.314,266.913 365.606,275.471 355.919,282.904 345.399,289.101 334.202,293.969 322.495,297.437 310.453,299.452 298.255,299.985 286.083,299.027 274.118,296.593 262.539,292.718 251.519,287.462 241.221,280.902 231.8,273.135 223.396,264.279 216.133,254.464 210.121,243.837 205.448,232.557 202.185,220.791 200.381,208.716 200.061,196.51 201.231,184.357 203.874,172.436 207.95,160.927 213.397,150 220.136,139.818 228.066,130.534 237.068,122.285 247.008,115.195 257.738,109.369 269.098,104.894 280.919,101.837 293.024,100.244 305.234,100.137 317.365,101.519 329.237,104.37 340.674,108.645 351.504,114.283 361.566,121.199 370.711,129.289 378.801,138.434 385.717,148.496 391.355,159.326 395.63,170.763 398.481,182.635 " fill="#f9c406"/>
<polygon points="365,200 364.329,210.968 362.327,221.773 359.022,232.253 354.465,242.252 348.724,251.622 341.883,260.222 334.045,267.924 325.327,274.613 315.859,280.191 305.782,284.572 295.246,287.693 284.408,289.507 273.429,289.986 262.474,289.124 251.706,286.933 241.285,283.447 231.367,278.716 222.099,272.812 213.62,265.822 206.056,257.851 199.52,249.018 194.109,239.453 189.903,229.301 186.967,218.712 185.342,207.844 185.055,196.859 186.108,185.921 188.486,175.193 192.155,164.834 197.058,155 203.123,145.837 210.259,137.481 218.361,130.057 227.307,123.676 236.964,118.432 247.188,114.405 257.827,111.654 268.722,110.219 279.71,110.123 290.628,111.367 301.313,113.933 311.606,117.781 321.353,122.855 330.41,129.079 338.64,136.36 345.921,144.59 352.145,153.647 357.219,163.394 361.067,173.687 363.633,184.372 " fill="#f9c406"/>
<polygon points="330,200 329.404,209.75 327.624,219.354 324.686,228.669 320.636,237.558 315.532,245.886 309.452,253.53 302.485,260.377 294.735,266.323 286.319,271.281 277.362,275.175 267.996,277.95 258.362,279.562 248.604,279.988 238.866,279.221 229.294,277.274 220.031,274.175 211.215,269.97 202.977,264.721 195.44,258.508 188.716,251.423 182.906,243.571 178.096,235.07 174.359,226.045 171.748,216.633 170.304,206.972 170.049,197.208 170.985,187.485 173.099,177.949 176.36,168.742 180.718,160 186.109,151.855 192.453,144.427 199.654,137.828 207.606,132.156 216.191,127.495 225.279,123.915 234.735,121.47 244.419,120.195 254.187,120.11 263.892,121.215 273.39,123.496 282.539,126.916 291.203,131.427 299.253,136.959 306.569,143.431 313.041,150.747 318.573,158.797 323.084,167.461 326.504,176.61 328.785,186.108 " fill="#995668"/>
<polygon points="295,200 294.478,208.531 292.921,216.935 290.351,225.086 286.806,232.863 282.341,240.15 277.02,246.839 270.924,252.83 264.144,258.033 256.779,262.37 248.941,265.778 240.747,268.206 232.317,269.617 223.778,269.989 215.258,269.319 206.883,267.615 198.778,264.903 191.063,261.223 183.855,256.631 177.26,251.195 171.377,244.995 166.293,238.125 162.084,230.686 158.814,222.79 156.53,214.554 155.266,206.101 155.043,197.557 155.862,189.05 157.712,180.705 160.565,172.649 164.378,165 169.096,157.873 174.646,151.374 180.948,145.6 187.906,140.637 195.417,136.558 203.369,133.426 211.643,131.286 220.117,130.171 228.664,130.096 237.155,131.063 245.466,133.059 253.472,136.052 261.053,139.998 268.096,144.839 274.497,150.503 280.161,156.904 285.002,163.947 288.948,171.528 291.941,179.534 293.937,187.845 " fill="#FF0000"/>
<polygon points="260,200 259.553,207.312 258.218,214.515 256.015,221.502 252.977,228.168 249.149,234.415 244.589,240.148 239.364,245.283 233.552,249.742 227.239,253.46 220.521,256.382 213.497,258.462 206.272,259.671 198.953,259.991 191.65,259.416 184.471,257.956 177.524,255.631 170.911,252.477 164.733,248.541 159.08,243.881 154.037,238.567 149.68,232.678 146.072,226.302 143.269,219.534 141.311,212.475 140.228,205.229 140.037,197.906 140.739,190.614 142.324,183.462 144.77,176.556 148.038,170 152.082,163.891 156.84,158.32 162.241,153.371 168.205,149.117 174.643,145.622 181.459,142.937 188.551,141.102 195.815,140.146 203.14,140.082 210.419,140.912 217.542,142.622 224.404,145.187 230.902,148.57 236.94,152.719 242.426,157.574 247.281,163.06 251.43,169.098 254.813,175.596 257.378,182.458 259.088,189.581 " fill="#FFf9c406"/>
<polygon points="155,200 154.031,215.843 151.138,231.45 146.365,246.588 139.783,261.031 131.49,274.565 121.609,286.987 110.288,298.112 97.695,307.775 84.019,315.831 69.463,322.16 54.244,326.668 38.589,329.288 22.731,329.98 6.907,328.735 -8.646,325.57 -23.699,320.534 -38.025,313.701 -51.412,305.172 -63.66,295.076 -74.586,283.562 -84.027,270.803 -91.843,256.988 -97.917,242.324 -102.159,227.029 -104.505,211.33 -104.921,195.463 -103.399,179.664 -99.964,164.167 -94.666,149.205 -87.583,135 -78.823,121.764 -68.514,109.694 -56.812,98.971 -43.89,89.754 -29.94,82.18 -15.172,76.363 0.195,72.388 15.932,70.317 31.804,70.178 47.574,71.975 63.008,75.68 77.876,81.239 91.955,88.568 105.036,97.559 116.924,108.076 127.441,119.964 136.432,133.045 143.761,147.124 149.32,161.992 153.025,177.426 " fill="#f9c406"/>
<polygon points="170,200 169.106,214.624 166.435,229.031 162.03,243.004 155.954,256.337 148.298,268.829 139.177,280.296 128.727,290.565 117.103,299.485 104.479,306.921 91.042,312.763 76.994,316.924 62.543,319.343 47.906,319.982 33.299,318.832 18.942,315.911 5.047,311.262 -8.177,304.954 -20.534,297.082 -31.84,287.762 -41.925,277.135 -50.64,265.357 -57.855,252.605 -63.462,239.068 -67.378,224.949 -69.543,210.459 -69.927,195.812 -68.523,181.228 -65.351,166.924 -60.461,153.112 -53.923,140 -45.836,127.782 -36.321,116.641 -25.518,106.742 -13.59,98.234 -0.714,91.243 12.918,85.873 27.103,82.205 41.629,80.292 56.28,80.164 70.838,81.823 85.085,85.243 98.808,90.375 111.805,97.14 123.879,105.439 134.853,115.147 144.561,126.121 152.86,138.195 159.625,151.192 164.757,164.915 168.177,179.162 " fill="#995668"/>
<polygon points="185,200 184.18,213.406 181.733,226.611 177.694,239.42 172.124,251.642 165.107,263.093 156.746,273.604 147.166,283.018 136.511,291.194 124.939,298.011 112.622,303.366 99.745,307.181 86.498,309.397 73.08,309.983 59.691,308.929 46.53,306.252 33.793,301.99 21.671,296.208 10.344,288.992 -0.02,280.449 -9.265,270.707 -17.254,259.91 -23.867,248.221 -29.007,235.812 -32.596,222.87 -34.581,209.587 -34.933,196.161 -33.646,182.792 -30.739,169.68 -26.256,157.02 -20.263,145 -12.85,133.8 -4.127,123.588 5.775,114.514 16.709,106.715 28.512,100.306 41.008,95.384 54.011,92.021 67.327,90.268 80.757,90.151 94.101,91.671 107.161,94.806 119.741,99.51 131.654,105.712 142.723,113.319 152.782,122.218 161.681,132.277 169.288,143.346 175.49,155.259 180.194,167.839 183.329,180.899 " fill="#FF0000"/>
<polygon points="200,200 199.255,212.187 197.03,224.192 193.358,235.837 188.295,246.947 181.915,257.358 174.314,266.913 165.606,275.471 155.919,282.904 145.399,289.101 134.202,293.969 122.495,297.437 110.453,299.452 98.255,299.985 86.083,299.027 74.118,296.593 62.539,292.718 51.519,287.462 41.221,280.902 31.8,273.135 23.396,264.279 16.133,254.464 10.121,243.837 5.448,232.557 2.185,220.791 0.381,208.716 0.061,196.51 1.231,184.357 3.874,172.436 7.95,160.927 13.397,150 20.136,139.818 28.066,130.534 37.068,122.285 47.008,115.195 57.738,109.369 69.098,104.894 80.919,101.837 93.024,100.244 105.234,100.137 117.365,101.519 129.237,104.37 140.674,108.645 151.504,114.283 161.566,121.199 170.711,129.289 178.801,138.434 185.717,148.496 191.355,159.326 195.63,170.763 198.481,182.635 " fill="#f9c406"/>
<polygon points="215,200 214.329,210.968 212.327,221.773 209.022,232.253 204.465,242.252 198.724,251.622 191.883,260.222 184.045,267.924 175.327,274.613 165.859,280.191 155.782,284.572 145.246,287.693 134.408,289.507 123.429,289.986 112.474,289.124 101.706,286.933 91.285,283.447 81.367,278.716 72.099,272.812 63.62,265.822 56.056,257.851 49.52,249.018 44.109,239.453 39.903,229.301 36.967,218.712 35.342,207.844 35.055,196.859 36.108,185.921 38.486,175.193 42.155,164.834 47.058,155 53.123,145.837 60.259,137.481 68.361,130.057 77.307,123.676 86.964,118.432 97.188,114.405 107.827,111.654 118.722,110.219 129.71,110.123 140.628,111.367 151.313,113.933 161.606,117.781 171.353,122.855 180.41,129.079 188.64,136.36 195.921,144.59 202.145,153.647 207.219,163.394 211.067,173.687 213.633,184.372 " fill="#f9c406"/>
<polygon points="230,200 229.404,209.75 227.624,219.354 224.686,228.669 220.636,237.558 215.532,245.886 209.452,253.53 202.485,260.377 194.735,266.323 186.319,271.281 177.362,275.175 167.996,277.95 158.362,279.562 148.604,279.988 138.866,279.221 129.294,277.274 120.031,274.175 111.215,269.97 102.977,264.721 95.44,258.508 88.716,251.423 82.906,243.571 78.096,235.07 74.359,226.045 71.748,216.633 70.304,206.972 70.049,197.208 70.985,187.485 73.099,177.949 76.36,168.742 80.718,160 86.109,151.855 92.453,144.427 99.654,137.828 107.606,132.156 116.191,127.495 125.279,123.915 134.735,121.47 144.419,120.195 154.187,120.11 163.892,121.215 173.39,123.496 182.539,126.916 191.203,131.427 199.253,136.959 206.569,143.431 213.041,150.747 218.573,158.797 223.084,167.461 226.504,176.61 228.785,186.108 " fill="#995668"/>
<polygon points="245,200 244.478,208.531 242.921,216.935 240.351,225.086 236.806,232.863 232.341,240.15 227.02,246.839 220.924,252.83 214.144,258.033 206.779,262.37 198.941,265.778 190.747,268.206 182.317,269.617 173.778,269.989 165.258,269.319 156.883,267.615 148.778,264.903 141.063,261.223 133.855,256.631 127.26,251.195 121.377,244.995 116.293,238.125 112.084,230.686 108.814,222.79 106.53,214.554 105.266,206.101 105.043,197.557 105.862,189.05 107.712,180.705 110.565,172.649 114.378,165 119.096,157.873 124.646,151.374 130.948,145.6 137.906,140.637 145.417,136.558 153.369,133.426 161.643,131.286 170.117,130.171 178.664,130.096 187.155,131.063 195.466,133.059 203.472,136.052 211.053,139.998 218.096,144.839 224.497,150.503 230.161,156.904 235.002,163.947 238.948,171.528 241.941,179.534 243.937,187.845 " fill="#FF0000"/>
<polygon points="260,200 259.553,207.312 258.218,214.515 256.015,221.502 252.977,228.168 249.149,234.415 244.589,240.148 239.364,245.283 233.552,249.742 227.239,253.46 220.521,256.382 213.497,258.462 206.272,259.671 198.953,259.991 191.65,259.416 184.471,257.956 177.524,255.631 170.911,252.477 164.733,248.541 159.08,243.881 154.037,238.567 149.68,232.678 146.072,226.302 143.269,219.534 141.311,212.475 140.228,205.229 140.037,197.906 140.739,190.614 142.324,183.462 144.77,176.556 148.038,170 152.082,163.891 156.84,158.32 162.241,153.371 168.205,149.117 174.643,145.622 181.459,142.937 188.551,141.102 195.815,140.146 203.14,140.082 210.419,140.912 217.542,142.622 224.404,145.187 230.902,148.57 236.94,152.719 242.426,157.574 247.281,163.06 251.43,169.098 254.813,175.596 257.378,182.458 259.088,189.581 " fill="#FFf9c406"/>
<polygon points="260,200 259.553,207.312 258.218,214.515 256.015,221.502 252.977,228.168 249.149,234.415 244.589,240.148 239.364,245.283 233.552,249.742 227.239,253.46 220.521,256.382 213.497,258.462 206.272,259.671 198.953,259.991 191.65,259.416 184.471,257.956 177.524,255.631 170.911,252.477 164.733,248.541 159.08,243.881 154.037,238.567 149.68,232.678 146.072,226.302 143.269,219.534 141.311,212.475 140.228,205.229 140.037,197.906 140.739,190.614 142.324,183.462 144.77,176.556 148.038,170 152.082,163.891 156.84,158.32 162.241,153.371 168.205,149.117 174.643,145.622 181.459,142.937 188.551,141.102 195.815,140.146 203.14,140.082 210.419,140.912 217.542,142.622 224.404,145.187 230.902,148.57 236.94,152.719 242.426,157.574 247.281,163.06 251.43,169.098 254.813,175.596 257.378,182.458 259.088,189.581 " fill="#FF000000"/>

</svg>
