<svg viewBox="0 0 400 400" xmlns="http://www.w3.org/2000/svg">
<polygon points="119,56 68,85.445 68,26.555 119,56 " fill="#f9c406"/>
<polygon points="123,54 73.5,82.579 73.5,25.421 123,54 " fill="#995668"/>
<polygon points="126,52 79.5,78.847 79.5,25.153 126,52 " fill="#FF0000"/>
<polygon points="130,50 85,75.981 85,24.019 130,50 " fill="#f9c406"/>
<polygon points="131,51 101,81 71,51 101,21 131,51 " fill="#FFFFFF"/>
<polygon points="120,50 100,70 80,50 100,30 120,50 " fill="#5f28a8"/>
<polygon points="165,25 158.148,68.262 138.262,107.29 107.29,138.262 68.262,158.148 25,165 -18.262,158.148 -57.29,138.262 -88.262,107.29 -108.148,68.262 -115,25 -108.148,-18.262 -88.262,-57.29 -57.29,-88.262 -18.262,-108.148 25,-115 68.262,-108.148 107.29,-88.262 138.262,-57.29 158.148,-18.262 165,25 " fill="#f9c406"/>
<polygon points="180,50 173.637,90.172 155.172,126.412 126.412,155.172 90.172,173.637 50,180 9.828,173.637 -26.412,155.172 -55.172,126.412 -73.637,90.172 -80,50 -73.637,9.828 -55.172,-26.412 -26.412,-55.172 9.828,-73.637 50,-80 90.172,-73.637 126.412,-55.172 155.172,-26.412 173.637,9.828 180,50 " fill="#995668"/>
<polygon points="195,75 189.127,112.082 172.082,145.534 145.534,172.082 112.082,189.127 75,195 37.918,189.127 4.466,172.082 -22.082,145.534 -39.127,112.082 -45,75 -39.127,37.918 -22.082,4.466 4.466,-22.082 37.918,-39.127 75,-45 112.082,-39.127 145.534,-22.082 172.082,4.466 189.127,37.918 195,75 " fill="#FF0000"/>
<polygon points="210,100 204.616,133.992 188.992,164.656 164.656,188.992 133.992,204.616 100,210 66.008,204.616 35.344,188.992 11.008,164.656 -4.616,133.992 -10,100 -4.616,66.008 11.008,35.344 35.344,11.008 66.008,-4.616 100,-10 133.992,-4.616 164.656,11.008 188.992,35.344 204.616,66.008 210,100 " fill="#f9c406"/>
<polygon points="225,125 220.106,155.902 205.902,183.779 183.779,205.902 155.902,220.106 125,225 94.098,220.106 66.221,205.902 44.098,183.779 29.894,155.902 25,125 29.894,94.098 44.098,66.221 66.221,44.098 94.098,29.894 125,25 155.902,29.894 183.779,44.098 205.902,66.221 220.106,94.098 225,125 " fill="#f9c406"/>
<polygon points="240,150 235.595,177.812 222.812,202.901 202.901,222.812 177.812,235.595 150,240 122.188,235.595 97.099,222.812 77.188,202.901 64.405,177.812 60,150 64.405,122.188 77.188,97.099 97.099,77.188 122.188,64.405 150,60 177.812,64.405 202.901,77.188 222.812,97.099 235.595,122.188 240,150 " fill="#995668"/>
<polygon points="245,175 241.574,196.631 231.631,216.145 216.145,231.631 196.631,241.574 175,245 153.369,241.574 133.855,231.631 118.369,216.145 108.426,196.631 105,175 108.426,153.369 118.369,133.855 133.855,118.369 153.369,108.426 175,105 196.631,108.426 216.145,118.369 231.631,133.855 241.574,153.369 245,175 " fill="#FF0000"/>
<polygon points="260,200 257.063,218.541 248.541,235.267 235.267,248.541 218.541,257.063 200,260 181.459,257.063 164.733,248.541 151.459,235.267 142.937,218.541 140,200 142.937,181.459 151.459,164.733 164.733,151.459 181.459,142.937 200,140 218.541,142.937 235.267,151.459 248.541,164.733 257.063,181.459 260,200 " fill="#f9c406"/>
<polygon points="505,25 498.637,65.172 480.172,101.412 451.412,130.172 415.172,148.637 375,155 334.828,148.637 298.588,130.172 269.828,101.412 251.363,65.172 245,25 251.363,-15.172 269.828,-51.412 298.588,-80.172 334.828,-98.637 375,-105 415.172,-98.637 451.412,-80.172 480.172,-51.412 498.637,-15.172 505,25 " fill="#f9c406"/>
<polygon points="470,50 464.127,87.082 447.082,120.534 420.534,147.082 387.082,164.127 350,170 312.918,164.127 279.466,147.082 252.918,120.534 235.873,87.082 230,50 235.873,12.918 252.918,-20.534 279.466,-47.082 312.918,-64.127 350,-70 387.082,-64.127 420.534,-47.082 447.082,-20.534 464.127,12.918 470,50 " fill="#995668"/>
<polygon points="435,75 429.616,108.992 413.992,139.656 389.656,163.992 358.992,179.616 325,185 291.008,179.616 260.344,163.992 236.008,139.656 220.384,108.992 215,75 220.384,41.008 236.008,10.344 260.344,-13.992 291.008,-29.616 325,-35 358.992,-29.616 389.656,-13.992 413.992,10.344 429.616,41.008 435,75 " fill="#FF0000"/>
<polygon points="400,100 395.106,130.902 380.902,158.779 358.779,180.902 330.902,195.106 300,200 269.098,195.106 241.221,180.902 219.098,158.779 204.894,130.902 200,100 204.894,69.098 219.098,41.221 241.221,19.098 269.098,4.894 300,0 330.902,4.894 358.779,19.098 380.902,41.221 395.106,69.098 400,100 " fill="#f9c406"/>
<polygon points="365,125 360.595,152.812 347.812,177.901 327.901,197.812 302.812,210.595 275,215 247.188,210.595 222.099,197.812 202.188,177.901 189.405,152.812 185,125 189.405,97.188 202.188,72.099 222.099,52.188 247.188,39.405 275,35 302.812,39.405 327.901,52.188 347.812,72.099 360.595,97.188 365,125 " fill="#f9c406"/>
<polygon points="330,150 326.085,174.721 314.721,197.023 297.023,214.721 274.721,226.085 250,230 225.279,226.085 202.977,214.721 185.279,197.023 173.915,174.721 170,150 173.915,125.279 185.279,102.977 202.977,85.279 225.279,73.915 250,70 274.721,73.915 297.023,85.279 314.721,102.977 326.085,125.279 330,150 " fill="#995668"/>
<polygon points="295,175 291.574,196.631 281.631,216.145 266.145,231.631 246.631,241.574 225,245 203.369,241.574 183.855,231.631 168.369,216.145 158.426,196.631 155,175 158.426,153.369 168.369,133.855 183.855,118.369 203.369,108.426 225,105 246.631,108.426 266.145,118.369 281.631,133.855 291.574,153.369 295,175 " fill="#FF0000"/>
<polygon points="260,200 257.063,218.541 248.541,235.267 235.267,248.541 218.541,257.063 200,260 181.459,257.063 164.733,248.541 151.459,235.267 142.937,218.541 140,200 142.937,181.459 151.459,164.733 164.733,151.459 181.459,142.937 200,140 218.541,142.937 235.267,151.459 248.541,164.733 257.063,181.459 260,200 " fill="#f9c406"/>
<polygon points="505,375 498.637,415.172 480.172,451.412 451.412,480.172 415.172,498.637 375,505 334.828,498.637 298.588,480.172 269.828,451.412 251.363,415.172 245,375 251.363,334.828 269.828,298.588 298.588,269.828 334.828,251.363 375,245 415.172,251.363 451.412,269.828 480.172,298.588 498.637,334.828 505,375 " fill="#f9c406"/>
<polygon points="470,350 464.127,387.082 447.082,420.534 420.534,447.082 387.082,464.127 350,470 312.918,464.127 279.466,447.082 252.918,420.534 235.873,387.082 230,350 235.873,312.918 252.918,279.466 279.466,252.918 312.918,235.873 350,230 387.082,235.873 420.534,252.918 447.082,279.466 464.127,312.918 470,350 " fill="#995668"/>
<polygon points="435,325 429.616,358.992 413.992,389.656 389.656,413.992 358.992,429.616 325,435 291.008,429.616 260.344,413.992 236.008,389.656 220.384,358.992 215,325 220.384,291.008 236.008,260.344 260.344,236.008 291.008,220.384 325,215 358.992,220.384 389.656,236.008 413.992,260.344 429.616,291.008 435,325 " fill="#FF0000"/>
<polygon points="400,300 395.106,330.902 380.902,358.779 358.779,380.902 330.902,395.106 300,400 269.098,395.106 241.221,380.902 219.098,358.779 204.894,330.902 200,300 204.894,269.098 219.098,241.221 241.221,219.098 269.098,204.894 300,200 330.902,204.894 358.779,219.098 380.902,241.221 395.106,269.098 400,300 " fill="#f9c406"/>
<polygon points="365,275 360.595,302.812 347.812,327.901 327.901,347.812 302.812,360.595 275,365 247.188,360.595 222.099,347.812 202.188,327.901 189.405,302.812 185,275 189.405,247.188 202.188,222.099 222.099,202.188 247.188,189.405 275,185 302.812,189.405 327.901,202.188 347.812,222.099 360.595,247.188 365,275 " fill="#f9c406"/>
<polygon points="330,250 326.085,274.721 314.721,297.023 297.023,314.721 274.721,326.085 250,330 225.279,326.085 202.977,314.721 185.279,297.023 173.915,274.721 170,250 173.915,225.279 185.279,202.977 202.977,185.279 225.279,173.915 250,170 274.721,173.915 297.023,185.279 314.721,202.977 326.085,225.279 330,250 " fill="#995668"/>
<polygon points="295,225 291.574,246.631 281.631,266.145 266.145,281.631 246.631,291.574 225,295 203.369,291.574 183.855,281.631 168.369,266.145 158.426,246.631 155,225 158.426,203.369 168.369,183.855 183.855,168.369 203.369,158.426 225,155 246.631,158.426 266.145,168.369 281.631,183.855 291.574,203.369 295,225 " fill="#FF0000"/>
<polygon points="260,200 257.063,218.541 248.541,235.267 235.267,248.541 218.541,257.063 200,260 181.459,257.063 164.733,248.541 151.459,235.267 142.937,218.541 140,200 142.937,181.459 151.459,164.733 164.733,151.459 181.459,142.937 200,140 218.541,142.937 235.267,151.459 248.541,164.733 257.063,181.459 260,200 " fill="#f9c406"/>
<polygon points="155,375 148.637,415.172 130.172,451.412 101.412,480.172 65.172,498.637 25,505 -15.172,498.637 -51.412,480.172 -80.172,451.412 -98.637,415.172 -105,375 -98.637,334.828 -80.172,298.588 -51.412,269.828 -15.172,251.363 25,245 65.172,251.363 101.412,269.828 130.172,298.588 148.637,334.828 155,375 " fill="#f9c406"/>
<polygon points="170,350 164.127,387.082 147.082,420.534 120.534,447.082 87.082,464.127 50,470 12.918,464.127 -20.534,447.082 -47.082,420.534 -64.127,387.082 -70,350 -64.127,312.918 -47.082,279.466 -20.534,252.918 12.918,235.873 50,230 87.082,235.873 120.534,252.918 147.082,279.466 164.127,312.918 170,350 " fill="#995668"/>
<polygon points="185,325 179.616,358.992 163.992,389.656 139.656,413.992 108.992,429.616 75,435 41.008,429.616 10.344,413.992 -13.992,389.656 -29.616,358.992 -35,325 -29.616,291.008 -13.992,260.344 10.344,236.008 41.008,220.384 75,215 108.992,220.384 139.656,236.008 163.992,260.344 179.616,291.008 185,325 " fill="#FF0000"/>
<polygon points="200,300 195.106,330.902 180.902,358.779 158.779,380.902 130.902,395.106 100,400 69.098,395.106 41.221,380.902 19.098,358.779 4.894,330.902 0,300 4.894,269.098 19.098,241.221 41.221,219.098 69.098,204.894 100,200 130.902,204.894 158.779,219.098 180.902,241.221 195.106,269.098 200,300 " fill="#f9c406"/>
<polygon points="215,275 210.595,302.812 197.812,327.901 177.901,347.812 152.812,360.595 125,365 97.188,360.595 72.099,347.812 52.188,327.901 39.405,302.812 35,275 39.405,247.188 52.188,222.099 72.099,202.188 97.188,189.405 125,185 152.812,189.405 177.901,202.188 197.812,222.099 210.595,247.188 215,275 " fill="#f9c406"/>
<polygon points="230,250 226.085,274.721 214.721,297.023 197.023,314.721 174.721,326.085 150,330 125.279,326.085 102.977,314.721 85.279,297.023 73.915,274.721 70,250 73.915,225.279 85.279,202.977 102.977,185.279 125.279,173.915 150,170 174.721,173.915 197.023,185.279 214.721,202.977 226.085,225.279 230,250 " fill="#995668"/>
<polygon points="245,225 241.574,246.631 231.631,266.145 216.145,281.631 196.631,291.574 175,295 153.369,291.574 133.855,281.631 118.369,266.145 108.426,246.631 105,225 108.426,203.369 118.369,183.855 133.855,168.369 153.369,158.426 175,155 196.631,158.426 216.145,168.369 231.631,183.855 241.574,203.369 245,225 " fill="#FF0000"/>
<polygon points="260,200 257.063,218.541 248.541,235.267 235.267,248.541 218.541,257.063 200,260 181.459,257.063 164.733,248.541 151.459,235.267 142.937,218.541 140,200 142.937,181.459 151.459,164.733 164.733,151.459 181.459,142.937 200,140 218.541,142.937 235.267,151.459 248.541,164.733 257.063,181.459 260,200 " fill="#f9c406"/>
<polygon points="330,375 323.637,415.172 305.172,451.412 276.412,480.172 240.172,498.637 200,505 159.828,498.637 123.588,480.172 94.828,451.412 76.363,415.172 70,375 76.363,334.828 94.828,298.588 123.588,269.828 159.828,251.363 200,245 240.172,251.363 276.412,269.828 305.172,298.588 323.637,334.828 330,375 " fill="#f9c406"/>
<polygon points="320,350 314.127,387.082 297.082,420.534 270.534,447.082 237.082,464.127 200,470 162.918,464.127 129.466,447.082 102.918,420.534 85.873,387.082 80,350 85.873,312.918 102.918,279.466 129.466,252.918 162.918,235.873 200,230 237.082,235.873 270.534,252.918 297.082,279.466 314.127,312.918 320,350 " fill="#995668"/>
<polygon points="310,325 304.616,358.992 288.992,389.656 264.656,413.992 233.992,429.616 200,435 166.008,429.616 135.344,413.992 111.008,389.656 95.384,358.992 90,325 95.384,291.008 111.008,260.344 135.344,236.008 166.008,220.384 200,215 233.992,220.384 264.656,236.008 288.992,260.344 304.616,291.008 310,325 " fill="#FF0000"/>
<polygon points="300,300 295.106,330.902 280.902,358.779 258.779,380.902 230.902,395.106 200,400 169.098,395.106 141.221,380.902 119.098,358.779 104.894,330.902 100,300 104.894,269.098 119.098,241.221 141.221,219.098 169.098,204.894 200,200 230.902,204.894 258.779,219.098 280.902,241.221 295.106,269.098 300,300 " fill="#f9c406"/>
<polygon points="290,275 285.595,302.812 272.812,327.901 252.901,347.812 227.812,360.595 200,365 172.188,360.595 147.099,347.812 127.188,327.901 114.405,302.812 110,275 114.405,247.188 127.188,222.099 147.099,202.188 172.188,189.405 200,185 227.812,189.405 252.901,202.188 272.812,222.099 285.595,247.188 290,275 " fill="#f9c406"/>
<polygon points="280,250 276.085,274.721 264.721,297.023 247.023,314.721 224.721,326.085 200,330 175.279,326.085 152.977,314.721 135.279,297.023 123.915,274.721 120,250 123.915,225.279 135.279,202.977 152.977,185.279 175.279,173.915 200,170 224.721,173.915 247.023,185.279 264.721,202.977 276.085,225.279 280,250 " fill="#995668"/>
<polygon points="270,225 266.574,246.631 256.631,266.145 241.145,281.631 221.631,291.574 200,295 178.369,291.574 158.855,281.631 143.369,266.145 133.426,246.631 130,225 133.426,203.369 143.369,183.855 158.855,168.369 178.369,158.426 200,155 221.631,158.426 241.145,168.369 256.631,183.855 266.574,203.369 270,225 " fill="#FF0000"/>
<polygon points="260,200 257.063,218.541 248.541,235.267 235.267,248.541 218.541,257.063 200,260 181.459,257.063 164.733,248.541 151.459,235.267 142.937,218.541 140,200 142.937,181.459 151.459,164.733 164.733,151.459 181.459,142.937 200,140 218.541,142.937 235.267,151.459 248.541,164.733 257.063,181.459 260,200 " fill="#f9c406"/>
<polygon points="330,25 323.637,65.172 305.172,101.412 276.412,130.172 240.172,148.637 200,155 159.828,148.637 123.588,130.172 94.828,101.412 76.363,65.172 70,25 76.363,-15.172 94.828,-51.412 123.588,-80.172 159.828,-98.637 200,-105 240.172,-98.637 276.412,-80.172 305.172,-51.412 323.637,-15.172 330,25 " fill="#f9c406"/>
<polygon points="320,50 314.127,87.082 297.082,120.534 270.534,147.082 237.082,164.127 200,170 162.918,164.127 129.466,147.082 102.918,120.534 85.873,87.082 80,50 85.873,12.918 102.918,-20.534 129.466,-47.082 162.918,-64.127 200,-70 237.082,-64.127 270.534,-47.082 297.082,-20.534 314.127,12.918 320,50 " fill="#995668"/>
<polygon points="310,75 304.616,108.992 288.992,139.656 264.656,163.992 233.992,179.616 200,185 166.008,179.616 135.344,163.992 111.008,139.656 95.384,108.992 90,75 95.384,41.008 111.008,10.344 135.344,-13.992 166.008,-29.616 200,-35 233.992,-29.616 264.656,-13.992 288.992,10.344 304.616,41.008 310,75 " fill="#FF0000"/>
<polygon points="300,100 295.106,130.902 280.902,158.779 258.779,180.902 230.902,195.106 200,200 169.098,195.106 141.221,180.902 119.098,158.779 104.894,130.902 100,100 104.894,69.098 119.098,41.221 141.221,19.098 169.098,4.894 200,0 230.902,4.894 258.779,19.098 280.902,41.221 295.106,69.098 300,100 " fill="#f9c406"/>
<polygon points="290,125 285.595,152.812 272.812,177.901 252.901,197.812 227.812,210.595 200,215 172.188,210.595 147.099,197.812 127.188,177.901 114.405,152.812 110,125 114.405,97.188 127.188,72.099 147.099,52.188 172.188,39.405 200,35 227.812,39.405 252.901,52.188 272.812,72.099 285.595,97.188 290,125 " fill="#f9c406"/>
<polygon points="280,150 276.085,174.721 264.721,197.023 247.023,214.721 224.721,226.085 200,230 175.279,226.085 152.977,214.721 135.279,197.023 123.915,174.721 120,150 123.915,125.279 135.279,102.977 152.977,85.279 175.279,73.915 200,70 224.721,73.915 247.023,85.279 264.721,102.977 276.085,125.279 280,150 " fill="#995668"/>
<polygon points="270,175 266.574,196.631 256.631,216.145 241.145,231.631 221.631,241.574 200,245 178.369,241.574 158.855,231.631 143.369,216.145 133.426,196.631 130,175 133.426,153.369 143.369,133.855 158.855,118.369 178.369,108.426 200,105 221.631,108.426 241.145,118.369 256.631,133.855 266.574,153.369 270,175 " fill="#FF0000"/>
<polygon points="260,200 257.063,218.541 248.541,235.267 235.267,248.541 218.541,257.063 200,260 181.459,257.063 164.733,248.541 151.459,235.267 142.937,218.541 140,200 142.937,181.459 151.459,164.733 164.733,151.459 181.459,142.937 200,140 218.541,142.937 235.267,151.459 248.541,164.733 257.063,181.459 260,200 " fill="#f9c406"/>
<polygon points="505,200 498.637,240.172 480.172,276.412 451.412,305.172 415.172,323.637 375,330 334.828,323.637 298.588,305.172 269.828,276.412 251.363,240.172 245,200 251.363,159.828 269.828,123.588 298.588,94.828 334.828,76.363 375,70 415.172,76.363 451.412,94.828 480.172,123.588 498.637,159.828 505,200 " fill="#f9c406"/>
<polygon points="470,200 464.127,237.082 447.082,270.534 420.534,297.082 387.082,314.127 350,320 312.918,314.127 279.466,297.082 252.918,270.534 235.873,237.082 230,200 235.873,162.918 252.918,129.466 279.466,102.918 312.918,85.873 350,80 387.082,85.873 420.534,102.918 447.082,129.466 464.127,162.918 470,200 " fill="#995668"/>
<polygon points="435,200 429.616,233.992 413.992,264.656 389.656,288.992 358.992,304.616 325,310 291.008,304.616 260.344,288.992 236.008,264.656 220.384,233.992 215,200 220.384,166.008 236.008,135.344 260.344,111.008 291.008,95.384 325,90 358.992,95.384 389.656,111.008 413.992,135.344 429.616,166.008 435,200 " fill="#FF0000"/>
<polygon points="400,200 395.106,230.902 380.902,258.779 358.779,280.902 330.902,295.106 300,300 269.098,295.106 241.221,280.902 219.098,258.779 204.894,230.902 200,200 204.894,169.098 219.098,141.221 241.221,119.098 269.098,104.894 300,100 330.902,104.894 358.779,119.098 380.902,141.221 395.106,169.098 400,200 " fill="#f9c406"/>
<polygon points="365,200 360.595,227.812 347.812,252.901 327.901,272.812 302.812,285.595 275,290 247.188,285.595 222.099,272.812 202.188,252.901 189.405,227.812 185,200 189.405,172.188 202.188,147.099 222.099,127.188 247.188,114.405 275,110 302.812,114.405 327.901,127.188 347.812,147.099 360.595,172.188 365,200 " fill="#f9c406"/>
<polygon points="330,200 326.085,224.721 314.721,247.023 297.023,264.721 274.721,276.085 250,280 225.279,276.085 202.977,264.721 185.279,247.023 173.915,224.721 170,200 173.915,175.279 185.279,152.977 202.977,135.279 225.279,123.915 250,120 274.721,123.915 297.023,135.279 314.721,152.977 326.085,175.279 330,200 " fill="#995668"/>
<polygon points="295,200 291.574,221.631 281.631,241.145 266.145,256.631 246.631,266.574 225,270 203.369,266.574 183.855,256.631 168.369,241.145 158.426,221.631 155,200 158.426,178.369 168.369,158.855 183.855,143.369 203.369,133.426 225,130 246.631,133.426 266.145,143.369 281.631,158.855 291.574,178.369 295,200 " fill="#FF0000"/>
<polygon points="260,200 257.063,218.541 248.541,235.267 235.267,248.541 218.541,257.063 200,260 181.459,257.063 164.733,248.541 151.459,235.267 142.937,218.541 140,200 142.937,181.459 151.459,164.733 164.733,151.459 181.459,142.937 200,140 218.541,142.937 235.267,151.459 248.541,164.733 257.063,181.459 260,200 " fill="#f9c406"/>
<polygon points="155,200 148.637,240.172 130.172,276.412 101.412,305.172 65.172,323.637 25,330 -15.172,323.637 -51.412,305.172 -80.172,276.412 -98.637,240.172 -105,200 -98.637,159.828 -80.172,123.588 -51.412,94.828 -15.172,76.363 25,70 65.172,76.363 101.412,94.828 130.172,123.588 148.637,159.828 155,200 " fill="#f9c406"/>
<polygon points="170,200 164.127,237.082 147.082,270.534 120.534,297.082 87.082,314.127 50,320 12.918,314.127 -20.534,297.082 -47.082,270.534 -64.127,237.082 -70,200 -64.127,162.918 -47.082,129.466 -20.534,102.918 12.918,85.873 50,80 87.082,85.873 120.534,102.918 147.082,129.466 164.127,162.918 170,200 " fill="#995668"/>
<polygon points="185,200 179.616,233.992 163.992,264.656 139.656,288.992 108.992,304.616 75,310 41.008,304.616 10.344,288.992 -13.992,264.656 -29.616,233.992 -35,200 -29.616,166.008 -13.992,135.344 10.344,111.008 41.008,95.384 75,90 108.992,95.384 139.656,111.008 163.992,135.344 179.616,166.008 185,200 " fill="#FF0000"/>
<polygon points="200,200 195.106,230.902 180.902,258.779 158.779,280.902 130.902,295.106 100,300 69.098,295.106 41.221,280.902 19.098,258.779 4.894,230.902 0,200 4.894,169.098 19.098,141.221 41.221,119.098 69.098,104.894 100,100 130.902,104.894 158.779,119.098 180.902,141.221 195.106,169.098 200,200 " fill="#f9c406"/>
<polygon points="215,200 210.595,227.812 197.812,252.901 177.901,272.812 152.812,285.595 125,290 97.188,285.595 72.099,272.812 52.188,252.901 39.405,227.812 35,200 39.405,172.188 52.188,147.099 72.099,127.188 97.188,114.405 125,110 152.812,114.405 177.901,127.188 197.812,147.099 210.595,172.188 215,200 " fill="#f9c406"/>
<polygon points="230,200 226.085,224.721 214.721,247.023 197.023,264.721 174.721,276.085 150,280 125.279,276.085 102.977,264.721 85.279,247.023 73.915,224.721 70,200 73.915,175.279 85.279,152.977 102.977,135.279 125.279,123.915 150,120 174.721,123.915 197.023,135.279 214.721,152.977 226.085,175.279 230,200 " fill="#995668"/>
<polygon points="245,200 241.574,221.631 231.631,241.145 216.145,256.631 196.631,266.574 175,270 153.369,266.574 133.855,256.631 118.369,241.145 108.426,221.631 105,200 108.426,178.369 118.369,158.855 133.855,143.369 153.369,133.426 175,130 196.631,133.426 216.145,143.369 231.631,158.855 241.574,178.369 245,200 " fill="#FF0000"/>
<polygon points="260,200 257.063,218.541 248.541,235.267 235.267,248.541 218.541,257.063 200,260 181.459,257.063 164.733,248.541 151.459,235.267 142.937,218.541 140,200 142.937,181.459 151.459,164.733 164.733,151.459 181.459,142.937 200,140 218.541,142.937 235.267,151.459 248.541,164.733 257.063,181.459 260,200 " fill="#f9c406"/>

</svg>
