<svg viewBox="0 0 400 400" xmlns="http://www.w3.org/2000/svg">
<polygon points="165,275 163.042,287.361 157.361,298.511 148.511,307.361 137.361,313.042 125,315 112.639,313.042 101.489,307.361 92.639,298.511 86.958,287.361 85,275 86.958,262.639 92.639,251.489 101.489,242.639 112.639,236.958 125,235 137.361,236.958 148.511,242.639 157.361,251.489 163.042,262.639 165,275 " fill="#000000"/>
<polygon points="165,125 163.042,137.361 157.361,148.511 148.511,157.361 137.361,163.042 125,165 112.639,163.042 101.489,157.361 92.639,148.511 86.958,137.361 85,125 86.958,112.639 92.639,101.489 101.489,92.639 112.639,86.958 125,85 137.361,86.958 148.511,92.639 157.361,101.489 163.042,112.639 165,125 " fill="#000000"/>
<polygon points="315,125 313.042,137.361 307.361,148.511 298.511,157.361 287.361,163.042 275,165 262.639,163.042 251.489,157.361 242.639,148.511 236.958,137.361 235,125 236.958,112.639 242.639,101.489 251.489,92.639 262.639,86.958 275,85 287.361,86.958 298.511,92.639 307.361,101.489 313.042,112.639 315,125 " fill="#000000"/>
<polygon points="315,275 313.042,287.361 307.361,298.511 298.511,307.361 287.361,313.042 275,315 262.639,313.042 251.489,307.361 242.639,298.511 236.958,287.361 235,275 236.958,262.639 242.639,251.489 251.489,242.639 262.639,236.958 275,235 287.361,236.958 298.511,242.639 307.361,251.489 313.042,262.639 315,275 " fill="#000000"/>
<polygon points="240,200 238.042,212.361 232.361,223.511 223.511,232.361 212.361,238.042 200,240 187.639,238.042 176.489,232.361 167.639,223.511 161.958,212.361 160,200 161.958,187.639 167.639,176.489 176.489,167.639 187.639,161.958 200,160 212.361,161.958 223.511,167.639 232.361,176.489 238.042,187.639 240,200 " fill="#000000"/>

</svg>
