<svg viewBox="0 0 800 800" xmlns="http://www.w3.org/2000/svg">
<polygon points="775,400 772.946,439.198 766.805,477.967 756.646,515.881 742.58,552.526 724.76,587.5 703.381,620.419 678.679,650.924 650.924,678.679 620.419,703.381 587.5,724.76 552.526,742.58 515.881,756.646 477.967,766.805 439.198,772.946 400,775 360.802,772.946 322.033,766.805 284.119,756.646 247.474,742.58 212.5,724.76 179.581,703.381 149.076,678.679 121.321,650.924 96.619,620.419 75.24,587.5 57.42,552.526 43.354,515.881 33.195,477.967 27.054,439.198 25,400 27.054,360.802 33.195,322.033 43.354,284.119 57.42,247.474 75.24,212.5 96.619,179.581 121.321,149.076 149.076,121.321 179.581,96.619 212.5,75.24 247.474,57.42 284.119,43.354 322.033,33.195 360.802,27.054 400,25 439.198,27.054 477.967,33.195 515.881,43.354 552.526,57.42 587.5,75.24 620.419,96.619 650.924,121.321 678.679,149.076 703.381,179.581 724.76,212.5 742.58,247.474 756.646,284.119 766.805,322.033 772.946,360.802 775,400 " fill="#f0c55f" transform="rotate(22.5, 400,400)"/>
<polygon points="690,430 688.411,460.313 683.663,490.294 675.806,519.615 664.928,547.954 651.147,575 634.615,600.458 615.512,624.048 594.048,645.512 570.458,664.615 545,681.147 517.954,694.928 489.615,705.806 460.294,713.663 430.313,718.411 400,720 369.687,718.411 339.706,713.663 310.385,705.806 282.046,694.928 255,681.147 229.542,664.615 205.952,645.512 184.488,624.048 165.385,600.458 148.853,575 135.072,547.954 124.194,519.615 116.337,490.294 111.589,460.313 110,430 111.589,399.687 116.337,369.706 124.194,340.385 135.072,312.046 148.853,285 165.385,259.542 184.488,235.952 205.952,214.488 229.542,195.385 255,178.853 282.046,165.072 310.385,154.194 339.706,146.337 369.687,141.589 400,140 430.313,141.589 460.294,146.337 489.615,154.194 517.954,165.072 545,178.853 570.458,195.385 594.048,214.488 615.512,235.952 634.615,259.542 651.147,285 664.928,312.046 675.806,340.385 683.663,369.706 688.411,399.687 690,430 " fill="#fdd30b" transform="rotate(22.5, 400,430)"/>
<polygon points="605,460 603.877,481.428 600.52,502.622 594.967,523.348 587.277,543.381 577.535,562.5 565.848,580.496 552.345,597.172 537.172,612.345 520.496,625.848 502.5,637.535 483.381,647.277 463.348,654.967 442.622,660.52 421.428,663.877 400,665 378.572,663.877 357.378,660.52 336.652,654.967 316.619,647.277 297.5,637.535 279.504,625.848 262.828,612.345 247.655,597.172 234.152,580.496 222.465,562.5 212.723,543.381 205.033,523.348 199.48,502.622 196.123,481.428 195,460 196.123,438.572 199.48,417.378 205.033,396.652 212.723,376.619 222.465,357.5 234.152,339.504 247.655,322.828 262.828,307.655 279.504,294.152 297.5,282.465 316.619,272.723 336.652,265.033 357.378,259.48 378.572,256.123 400,255 421.428,256.123 442.622,259.48 463.348,265.033 483.381,272.723 502.5,282.465 520.496,294.152 537.172,307.655 552.345,322.828 565.848,339.504 577.535,357.5 587.277,376.619 594.967,396.652 600.52,417.378 603.877,438.572 605,460 " fill="#f7d85b" transform="rotate(22.5, 400,460)"/>
<polygon points="520,490 519.343,502.543 517.378,514.949 514.127,527.082 509.625,538.808 503.923,550 497.082,560.534 489.177,570.296 480.296,579.177 470.534,587.082 460,593.923 448.808,599.625 437.082,604.127 424.949,607.378 412.543,609.343 400,610 387.457,609.343 375.051,607.378 362.918,604.127 351.192,599.625 340,593.923 329.466,587.082 319.704,579.177 310.823,570.296 302.918,560.534 296.077,550 290.375,538.808 285.873,527.082 282.622,514.949 280.657,502.543 280,490 280.657,477.457 282.622,465.051 285.873,452.918 290.375,441.192 296.077,430 302.918,419.466 310.823,409.704 319.704,400.823 329.466,392.918 340,386.077 351.192,380.375 362.918,375.873 375.051,372.622 387.457,370.657 400,370 412.543,370.657 424.949,372.622 437.082,375.873 448.808,380.375 460,386.077 470.534,392.918 480.296,400.823 489.177,409.704 497.082,419.466 503.923,430 509.625,441.192 514.127,452.918 517.378,465.051 519.343,477.457 520,490 " fill="#b4bcb1" transform="rotate(22.5, 400,490)"/>

</svg>
