<svg viewBox="0 0 600 600" xmlns="http://www.w3.org/2000/svg">
<polygon points="675,300 672.946,339.198 666.805,377.967 656.646,415.881 642.58,452.526 624.76,487.5 603.381,520.419 578.679,550.924 550.924,578.679 520.419,603.381 487.5,624.76 452.526,642.58 415.881,656.646 377.967,666.805 339.198,672.946 300,675 260.802,672.946 222.033,666.805 184.119,656.646 147.474,642.58 112.5,624.76 79.581,603.381 49.076,578.679 21.321,550.924 -3.381,520.419 -24.76,487.5 -42.58,452.526 -56.646,415.881 -66.805,377.967 -72.946,339.198 -75,300 -72.946,260.802 -66.805,222.033 -56.646,184.119 -42.58,147.474 -24.76,112.5 -3.381,79.581 21.321,49.076 49.076,21.321 79.581,-3.381 112.5,-24.76 147.474,-42.58 184.119,-56.646 222.033,-66.805 260.802,-72.946 300,-75 339.198,-72.946 377.967,-66.805 415.881,-56.646 452.526,-42.58 487.5,-24.76 520.419,-3.381 550.924,21.321 578.679,49.076 603.381,79.581 624.76,112.5 642.58,147.474 656.646,184.119 666.805,222.033 672.946,260.802 675,300 " fill="#f0c55f" transform="rotate(22.5, 300,300)"/>
<polygon points="590,330 588.411,360.313 583.663,390.294 575.806,419.615 564.928,447.954 551.147,475 534.615,500.458 515.512,524.048 494.048,545.512 470.458,564.615 445,581.147 417.954,594.928 389.615,605.806 360.294,613.663 330.313,618.411 300,620 269.687,618.411 239.706,613.663 210.385,605.806 182.046,594.928 155,581.147 129.542,564.615 105.952,545.512 84.488,524.048 65.385,500.458 48.853,475 35.072,447.954 24.194,419.615 16.337,390.294 11.589,360.313 10,330 11.589,299.687 16.337,269.706 24.194,240.385 35.072,212.046 48.853,185 65.385,159.542 84.488,135.952 105.952,114.488 129.542,95.385 155,78.853 182.046,65.072 210.385,54.194 239.706,46.337 269.687,41.589 300,40 330.313,41.589 360.294,46.337 389.615,54.194 417.954,65.072 445,78.853 470.458,95.385 494.048,114.488 515.512,135.952 534.615,159.542 551.147,185 564.928,212.046 575.806,240.385 583.663,269.706 588.411,299.687 590,330 " fill="#fdd30b" transform="rotate(22.5, 300,330)"/>
<polygon points="505,360 503.877,381.428 500.52,402.622 494.967,423.348 487.277,443.381 477.535,462.5 465.848,480.496 452.345,497.172 437.172,512.345 420.496,525.848 402.5,537.535 383.381,547.277 363.348,554.967 342.622,560.52 321.428,563.877 300,565 278.572,563.877 257.378,560.52 236.652,554.967 216.619,547.277 197.5,537.535 179.504,525.848 162.828,512.345 147.655,497.172 134.152,480.496 122.465,462.5 112.723,443.381 105.033,423.348 99.48,402.622 96.123,381.428 95,360 96.123,338.572 99.48,317.378 105.033,296.652 112.723,276.619 122.465,257.5 134.152,239.504 147.655,222.828 162.828,207.655 179.504,194.152 197.5,182.465 216.619,172.723 236.652,165.033 257.378,159.48 278.572,156.123 300,155 321.428,156.123 342.622,159.48 363.348,165.033 383.381,172.723 402.5,182.465 420.496,194.152 437.172,207.655 452.345,222.828 465.848,239.504 477.535,257.5 487.277,276.619 494.967,296.652 500.52,317.378 503.877,338.572 505,360 " fill="#f7d85b" transform="rotate(22.5, 300,360)"/>
<polygon points="420,390 419.343,402.543 417.378,414.949 414.127,427.082 409.625,438.808 403.923,450 397.082,460.534 389.177,470.296 380.296,479.177 370.534,487.082 360,493.923 348.808,499.625 337.082,504.127 324.949,507.378 312.543,509.343 300,510 287.457,509.343 275.051,507.378 262.918,504.127 251.192,499.625 240,493.923 229.466,487.082 219.704,479.177 210.823,470.296 202.918,460.534 196.077,450 190.375,438.808 185.873,427.082 182.622,414.949 180.657,402.543 180,390 180.657,377.457 182.622,365.051 185.873,352.918 190.375,341.192 196.077,330 202.918,319.466 210.823,309.704 219.704,300.823 229.466,292.918 240,286.077 251.192,280.375 262.918,275.873 275.051,272.622 287.457,270.657 300,270 312.543,270.657 324.949,272.622 337.082,275.873 348.808,280.375 360,286.077 370.534,292.918 380.296,300.823 389.177,309.704 397.082,319.466 403.923,330 409.625,341.192 414.127,352.918 417.378,365.051 419.343,377.457 420,390 " fill="#b4bcb1" transform="rotate(22.5, 300,390)"/>

</svg>
