<svg viewBox="0 0 600 600" xmlns="http://www.w3.org/2000/svg">
<polygon points="675,300 415.881,656.646 -3.381,520.419 -3.381,79.581 415.881,-56.646 675,300 " fill="#f0c55f" transform="rotate(54, 300,300)"/>
<polygon points="590,330 389.615,605.806 65.385,500.458 65.385,159.542 389.615,54.194 590,330 " fill="#fdd30b" transform="rotate(54, 300,330)"/>
<polygon points="505,360 363.348,554.967 134.152,480.496 134.152,239.504 363.348,165.033 505,360 " fill="#f7d85b" transform="rotate(54, 300,360)"/>
<polygon points="420,390 337.082,504.127 202.918,460.534 202.918,319.466 337.082,275.873 420,390 " fill="#b4bcb1" transform="rotate(54, 300,390)"/>

</svg>
