<svg viewBox="0 0 600 600" xmlns="http://www.w3.org/2000/svg">
<polygon points="675,300 487.5,624.76 112.5,624.76 -75,300 112.5,-24.76 487.5,-24.76 675,300 " fill="#f0c55f" transform="rotate(0, 300,300)"/>
<polygon points="590,330 445,581.147 155,581.147 10,330 155,78.853 445,78.853 590,330 " fill="#fdd30b" transform="rotate(0, 300,330)"/>
<polygon points="505,360 402.5,537.535 197.5,537.535 95,360 197.5,182.465 402.5,182.465 505,360 " fill="#f7d85b" transform="rotate(0, 300,360)"/>
<polygon points="420,390 360,493.923 240,493.923 180,390 240,286.077 360,286.077 420,390 " fill="#b4bcb1" transform="rotate(0, 300,390)"/>

</svg>
