<svg viewBox="0 0 600 600" xmlns="http://www.w3.org/2000/svg">
<polygon points="675,300 565.165,565.165 300,675 34.835,565.165 -75,300 34.835,34.835 300,-75 565.165,34.835 675,300 " fill="#f0c55f" transform="rotate(22.5, 300,300)"/>
<polygon points="590,330 505.061,535.061 300,620 94.939,535.061 10,330 94.939,124.939 300,40 505.061,124.939 590,330 " fill="#fdd30b" transform="rotate(22.5, 300,330)"/>
<polygon points="505,360 444.957,504.957 300,565 155.043,504.957 95,360 155.043,215.043 300,155 444.957,215.043 505,360 " fill="#f7d85b" transform="rotate(22.5, 300,360)"/>
<polygon points="420,390 384.853,474.853 300,510 215.147,474.853 180,390 215.147,305.147 300,270 384.853,305.147 420,390 " fill="#b4bcb1" transform="rotate(22.5, 300,390)"/>

</svg>
