<svg viewBox="0 0 400 400" xmlns="http://www.w3.org/2000/svg">
<polygon points="500,60 365,195 230,60 365,-75 500,60 " fill="#995668"/>
<polygon points="490,65 360,195 230,65 360,-65 490,65 " fill="#995668"/>
<polygon points="480,70 355,195 230,70 355,-55 480,70 " fill="#995668"/>
<polygon points="470,75 350,195 230,75 350,-45 470,75 " fill="#995668"/>
<polygon points="460,80 345,195 230,80 345,-35 460,80 " fill="#995668"/>
<polygon points="450,85 340,195 230,85 340,-25 450,85 " fill="#995668"/>
<polygon points="440,90 335,195 230,90 335,-15 440,90 " fill="#995668"/>
<polygon points="430,95 330,195 230,95 330,-5 430,95 " fill="#995668"/>
<polygon points="420,100 325,195 230,100 325,5 420,100 " fill="#995668"/>
<polygon points="410,105 320,195 230,105 320,15 410,105 " fill="#995668"/>
<polygon points="400,110 315,195 230,110 315,25 400,110 " fill="#995668"/>
<polygon points="390,115 310,195 230,115 310,35 390,115 " fill="#995668"/>
<polygon points="380,120 305,195 230,120 305,45 380,120 " fill="#995668"/>
<polygon points="370,125 300,195 230,125 300,55 370,125 " fill="#995668"/>
<polygon points="360,130 295,195 230,130 295,65 360,130 " fill="#995668"/>
<polygon points="350,135 290,195 230,135 290,75 350,135 " fill="#995668"/>
<polygon points="340,140 285,195 230,140 285,85 340,140 " fill="#995668"/>
<polygon points="330,145 280,195 230,145 280,95 330,145 " fill="#995668"/>
<polygon points="320,150 275,195 230,150 275,105 320,150 " fill="#FF0000"/>
<polygon points="240,200 200,240 160,200 200,160 240,200 " fill="#f9c406"/>

</svg>
