<svg viewBox="0 0 200 100" xmlns="http://www.w3.org/2000/svg">
<polygon points="150,50 149.6273075820661,56.09346717025738 148.51478631379982,62.09609477998339 146.6790213248601,67.91839747726502 144.14737964294636,73.47357813929455 140.9576022144496,78.6788218175523 137.15724127386972,83.4565303179429 132.80295144952538,87.73547901113861 127.95964517353734,91.45187862775208 122.69952498697734,94.55032620941839 117.10100716628344,96.98463103929541 111.24755271719324,98.71850323926176 105.22642316338268,99.72609476841367 99.12737967813582,99.99238475781956 93.04134495199672,99.51340343707852 87.05904774487396,98.29629131445341 81.26967032920439,96.35919272833937 75.75951898768315,93.7309853569698 70.61073738537635,90.45084971874738 65.90008199687509,86.56768508095853 61.6977778440511,82.13938048432698 58.06647160272879,77.23195175075135 55.06029768504165,71.91855733945387 52.724071220034155,66.27840772285782 51.092619963309716,60.39558454088797 50.19026509541272,54.35778713738291 50.030458649045215,48.25502516487496 50.61558297024311,42.17827674798846 51.93691520308406,36.21813220915003 53.974757327377986,30.463443575536303 56.69872981077807,24.999999999999993 60.068224497635356,19.90924884239758 64.03300998306744,15.267081477050134 68.53398044750814,11.142701927151442 73.50403678833975,7.5975951921787015 78.86908691296505,4.684610648167499 84.54915028125262,2.447174185242325 90.45955023117277,0.9186408276167981 96.51217631279373,0.12179748700879145 102.6167978121472,0.0685232622713059 108.6824088833465,0.7596123493895917 114.61858523613684,2.18476220184823 120.33683215379003,4.32272711786996 125.75190374550272,7.141634964894386 130.78307376628294,10.599462319663914 135.35533905932738,14.644660940672615 139.4005376803361,19.21692623371709 142.8583650351056,24.248096254497277 145.67727288213004,29.663167846209994 147.81523779815177,35.38141476386319 149.2403876506104,41.31759111665348 " fill="#f9c406"/>
<polygon points="140,60 139.7018460656529,64.8747737362059 138.81182905103987,69.6768758239867 137.34321705988808,74.334717981812 135.31790371435707,78.77886251143563 132.76608177155967,82.94305745404185 129.72579301909576,86.76522425435434 126.24236115962029,90.18838320891088 122.36771613882988,93.16150290220168 118.15961998958187,95.64026096753472 113.68080573302676,97.58770483143633 108.9980421737546,98.9748025914094 104.18113853070614,99.78087581473093 99.30190374250866,99.99390780625565 94.43307596159738,99.61072274966281 89.64723819589916,98.63703305156272 85.01573626336352,97.0873541826715 80.60761519014652,94.98478828557583 76.48858990830108,92.36067977499789 72.72006559750007,89.25414806476682 69.35822227524088,85.71150438746159 66.45317728218303,81.78556140060108 64.04823814803332,77.53484587156309 62.179256976027325,73.02272617828626 60.87409597064777,68.31646763271037 60.15221207633018,63.486229709906326 60.02436691923617,58.604020131899965 60.492466376194486,53.74262139839077 61.54953216246725,48.974505767320025 63.17980586190239,44.370754860429045 65.35898384862246,40 68.05457959810829,35.92739907391807 71.22640798645395,32.21366518164011 74.82718435800652,28.914161541721157 78.80322943067179,26.078076153742963 83.09526953037204,23.747688518533998 87.6393202250021,21.95773934819386 92.36764018493821,20.734912662093443 97.20974105023498,20.09743798960703 102.09343824971776,20.054818609817048 106.9459271066772,20.607689879511675 111.69486818890947,21.747809761478585 116.26946572303203,23.458181694295973 120.60152299640217,25.713307971915505 124.62645901302633,28.47956985573113 128.2842712474619,31.71572875253809 131.5204301442689,35.37354098697367 134.28669202808447,39.39847700359782 136.54181830570406,43.730534276967994 138.25219023852142,48.30513181109055 139.39231012048833,53.05407289332278 " fill="#995668"/>
<polygon points="130,70 129.77638454923965,73.65608030215442 129.10887178827988,77.25765686799004 128.00741279491606,80.75103848635901 126.48842778576781,84.08414688357672 124.57456132866976,87.20729309053138 122.29434476432183,90.07391819076574 119.68177086971522,92.64128740668316 116.7757871041224,94.87112717665126 113.6197149921864,96.73019572565103 110.26060429977007,98.19077862357724 106.74853163031595,99.23110194355706 103.13585389802961,99.8356568610482 99.47642780688149,99.99543085469173 95.82480697119803,99.7080420622471 92.23542864692438,98.97777478867205 88.76180219752264,97.81551563700361 85.45571139260989,96.23859121418188 82.3664424312258,94.27050983124843 79.54004919812505,91.94061104857512 77.01866670643066,89.28362829059618 74.83988296163727,86.3391710504508 73.036178611025,83.15113440367232 71.63444273202049,79.7670446337147 70.65557197798583,76.23735072453277 70.11415905724763,72.61467228242975 70.01827518942713,68.95301509892498 70.36934978214586,65.30696604879307 71.16214912185043,61.730879325490015 72.38485439642679,58.27806614532178 74.01923788646684,55 76.04093469858121,51.94554930543855 78.41980598984047,49.16024888623008 81.12038826850488,46.685621156290864 84.10242207300385,44.558557115307224 87.32145214777903,42.8107663889005 90.72949016875157,41.46830451114539 94.27573013870366,40.55118449657008 97.90730578767624,40.07307849220527 101.57007868728832,40.04111395736278 105.2094453300079,40.45576740963376 108.7711511416821,41.31085732110894 112.20209929227401,42.59363627072197 115.45114224730162,44.28498097893663 118.46984425976976,46.35967739179834 121.21320343559643,48.78679656440357 123.64032260820166,51.530155740230256 125.71501902106337,54.54885775269837 127.40636372927803,57.797900707725994 128.68914267889107,61.22884885831791 129.54423259036625,64.79055466999209 " fill="#FF0000"/>
<polygon points="120,80 119.85092303282644,82.43738686810295 119.40591452551993,84.83843791199335 118.67160852994404,87.16735899090601 117.65895185717854,89.38943125571782 116.38304088577983,91.47152872702092 114.86289650954788,93.38261212717717 113.12118057981014,95.09419160445545 111.18385806941494,96.58075145110084 109.07980999479093,97.82013048376736 106.84040286651337,98.79385241571816 104.49902108687729,99.4874012957047 102.09056926535307,99.89043790736547 99.65095187125434,99.99695390312783 97.21653798079869,99.8053613748314 94.82361909794959,99.31851652578136 92.50786813168176,98.54367709133575 90.30380759507327,97.49239414278792 88.24429495415055,96.18033988749895 86.36003279875004,94.6270740323834 84.67911113762044,92.8557521937308 83.22658864109152,90.89278070030053 82.02411907401665,88.76742293578155 81.08962848801366,86.51136308914313 80.43704798532389,84.15823381635519 80.0761060381651,81.74311485495316 80.01218345961809,79.30201006594999 80.24623318809725,76.87131069919539 80.77476608123362,74.48725288366 81.5899029309512,72.18537743021452 82.67949192431124,70 84.02728979905415,67.96369953695903 85.61320399322697,66.10683259082005 87.41359217900326,64.45708077086059 89.4016147153359,63.03903807687148 91.54763476518602,61.873844259267 93.81966011250105,60.97886967409693 96.1838200924691,60.367456331046725 98.60487052511749,60.048718994803515 101.04671912485888,60.027409304908524 103.4729635533386,60.303844939755834 105.84743409445474,60.87390488073929 108.13473286151601,61.72909084714799 110.30076149820108,62.85665398595775 112.31322950651317,64.23978492786557 114.14213562373095,65.85786437626905 115.76021507213444,67.68677049348683 117.14334601404224,69.6992385017989 118.27090915285203,71.865267138484 119.12609511926071,74.15256590554527 119.69615506024417,76.5270364466614 " fill="#f9c666"/>
</svg>
