<svg viewBox="0 0 400 400" xmlns="http://www.w3.org/2000/svg">
<polygon points="119,56 68,85.445 68,26.555 119,56 " fill="#f9c406" transform="rotate(45, 85,56)"/>
<polygon points="123,54 73.5,82.579 73.5,25.421 123,54 " fill="#995668" transform="rotate(45, 90,54)"/>
<polygon points="126,52 79.5,78.847 79.5,25.153 126,52 " fill="#FF0000" transform="rotate(45, 95,52)"/>
<polygon points="130,50 85,75.981 85,24.019 130,50 " fill="#f9c406" transform="rotate(45, 100,50)"/>
<polygon points="131,51 101,81 71,51 101,21 131,51 " fill="#FFFFFF" transform="rotate(45, 101,51)"/>
<polygon points="120,50 100,70 80,50 100,30 120,50 " fill="#5f28a8" transform="rotate(45, 100,50)"/>
<polygon points="165,25 68.262,158.148 -88.262,107.29 -88.262,-57.29 68.262,-108.148 165,25 " fill="#f9c406" transform="rotate(45, 25,25)"/>
<polygon points="180,50 90.172,173.637 -55.172,126.412 -55.172,-26.412 90.172,-73.637 180,50 " fill="#995668" transform="rotate(45, 50,50)"/>
<polygon points="195,75 112.082,189.127 -22.082,145.534 -22.082,4.466 112.082,-39.127 195,75 " fill="#FF0000" transform="rotate(45, 75,75)"/>
<polygon points="210,100 133.992,204.616 11.008,164.656 11.008,35.344 133.992,-4.616 210,100 " fill="#f9c406" transform="rotate(45, 100,100)"/>
<polygon points="225,125 155.902,220.106 44.098,183.779 44.098,66.221 155.902,29.894 225,125 " fill="#f9c406" transform="rotate(45, 125,125)"/>
<polygon points="240,150 177.812,235.595 77.188,202.901 77.188,97.099 177.812,64.405 240,150 " fill="#995668" transform="rotate(45, 150,150)"/>
<polygon points="245,175 196.631,241.574 118.369,216.145 118.369,133.855 196.631,108.426 245,175 " fill="#FF0000" transform="rotate(45, 175,175)"/>
<polygon points="260,200 218.541,257.063 151.459,235.267 151.459,164.733 218.541,142.937 260,200 " fill="#f9c406" transform="rotate(45, 200,200)"/>
<polygon points="505,375 415.172,498.637 269.828,451.412 269.828,298.588 415.172,251.363 505,375 " fill="#f9c406" transform="rotate(45, 375,375)"/>
<polygon points="470,350 387.082,464.127 252.918,420.534 252.918,279.466 387.082,235.873 470,350 " fill="#995668" transform="rotate(45, 350,350)"/>
<polygon points="435,325 358.992,429.616 236.008,389.656 236.008,260.344 358.992,220.384 435,325 " fill="#FF0000" transform="rotate(45, 325,325)"/>
<polygon points="400,300 330.902,395.106 219.098,358.779 219.098,241.221 330.902,204.894 400,300 " fill="#f9c406" transform="rotate(45, 300,300)"/>
<polygon points="365,275 302.812,360.595 202.188,327.901 202.188,222.099 302.812,189.405 365,275 " fill="#f9c406" transform="rotate(45, 275,275)"/>
<polygon points="330,250 274.721,326.085 185.279,297.023 185.279,202.977 274.721,173.915 330,250 " fill="#995668" transform="rotate(45, 250,250)"/>
<polygon points="295,225 246.631,291.574 168.369,266.145 168.369,183.855 246.631,158.426 295,225 " fill="#FF0000" transform="rotate(45, 225,225)"/>
<polygon points="260,200 218.541,257.063 151.459,235.267 151.459,164.733 218.541,142.937 260,200 " fill="#f9c406" transform="rotate(45, 200,200)"/>
<polygon points="505,25 415.172,148.637 269.828,101.412 269.828,-51.412 415.172,-98.637 505,25 " fill="#f9c406" transform="rotate(45, 375,25)"/>
<polygon points="470,50 387.082,164.127 252.918,120.534 252.918,-20.534 387.082,-64.127 470,50 " fill="#995668" transform="rotate(45, 350,50)"/>
<polygon points="435,75 358.992,179.616 236.008,139.656 236.008,10.344 358.992,-29.616 435,75 " fill="#FF0000" transform="rotate(45, 325,75)"/>
<polygon points="400,100 330.902,195.106 219.098,158.779 219.098,41.221 330.902,4.894 400,100 " fill="#f9c406" transform="rotate(45, 300,100)"/>
<polygon points="365,125 302.812,210.595 202.188,177.901 202.188,72.099 302.812,39.405 365,125 " fill="#f9c406" transform="rotate(45, 275,125)"/>
<polygon points="330,150 274.721,226.085 185.279,197.023 185.279,102.977 274.721,73.915 330,150 " fill="#995668" transform="rotate(45, 250,150)"/>
<polygon points="295,175 246.631,241.574 168.369,216.145 168.369,133.855 246.631,108.426 295,175 " fill="#FF0000" transform="rotate(45, 225,175)"/>
<polygon points="260,200 218.541,257.063 151.459,235.267 151.459,164.733 218.541,142.937 260,200 " fill="#f9c406" transform="rotate(45, 200,200)"/>
<polygon points="155,375 65.172,498.637 -80.172,451.412 -80.172,298.588 65.172,251.363 155,375 " fill="#f9c406" transform="rotate(45, 25,375)"/>
<polygon points="170,350 87.082,464.127 -47.082,420.534 -47.082,279.466 87.082,235.873 170,350 " fill="#995668" transform="rotate(45, 50,350)"/>
<polygon points="185,325 108.992,429.616 -13.992,389.656 -13.992,260.344 108.992,220.384 185,325 " fill="#FF0000" transform="rotate(45, 75,325)"/>
<polygon points="200,300 130.902,395.106 19.098,358.779 19.098,241.221 130.902,204.894 200,300 " fill="#f9c406" transform="rotate(45, 100,300)"/>
<polygon points="215,275 152.812,360.595 52.188,327.901 52.188,222.099 152.812,189.405 215,275 " fill="#f9c406" transform="rotate(45, 125,275)"/>
<polygon points="230,250 174.721,326.085 85.279,297.023 85.279,202.977 174.721,173.915 230,250 " fill="#995668" transform="rotate(45, 150,250)"/>
<polygon points="245,225 196.631,291.574 118.369,266.145 118.369,183.855 196.631,158.426 245,225 " fill="#FF0000" transform="rotate(45, 175,225)"/>
<polygon points="260,200 218.541,257.063 151.459,235.267 151.459,164.733 218.541,142.937 260,200 " fill="#f9c406" transform="rotate(45, 200,200)"/>
<polygon points="505,200 415.172,323.637 269.828,276.412 269.828,123.588 415.172,76.363 505,200 " fill="#f9c406" transform="rotate(45, 375,200)"/>
<polygon points="470,200 387.082,314.127 252.918,270.534 252.918,129.466 387.082,85.873 470,200 " fill="#995668" transform="rotate(45, 350,200)"/>
<polygon points="435,200 358.992,304.616 236.008,264.656 236.008,135.344 358.992,95.384 435,200 " fill="#FF0000" transform="rotate(45, 325,200)"/>
<polygon points="400,200 330.902,295.106 219.098,258.779 219.098,141.221 330.902,104.894 400,200 " fill="#f9c406" transform="rotate(45, 300,200)"/>
<polygon points="365,200 302.812,285.595 202.188,252.901 202.188,147.099 302.812,114.405 365,200 " fill="#f9c406" transform="rotate(45, 275,200)"/>
<polygon points="330,200 274.721,276.085 185.279,247.023 185.279,152.977 274.721,123.915 330,200 " fill="#995668" transform="rotate(45, 250,200)"/>
<polygon points="295,200 246.631,266.574 168.369,241.145 168.369,158.855 246.631,133.426 295,200 " fill="#FF0000" transform="rotate(45, 225,200)"/>
<polygon points="260,200 218.541,257.063 151.459,235.267 151.459,164.733 218.541,142.937 260,200 " fill="#f9c406" transform="rotate(45, 200,200)"/>
<polygon points="155,200 65.172,323.637 -80.172,276.412 -80.172,123.588 65.172,76.363 155,200 " fill="#f9c406" transform="rotate(45, 25,200)"/>
<polygon points="170,200 87.082,314.127 -47.082,270.534 -47.082,129.466 87.082,85.873 170,200 " fill="#995668" transform="rotate(45, 50,200)"/>
<polygon points="185,200 108.992,304.616 -13.992,264.656 -13.992,135.344 108.992,95.384 185,200 " fill="#FF0000" transform="rotate(45, 75,200)"/>
<polygon points="200,200 130.902,295.106 19.098,258.779 19.098,141.221 130.902,104.894 200,200 " fill="#f9c406" transform="rotate(45, 100,200)"/>
<polygon points="215,200 152.812,285.595 52.188,252.901 52.188,147.099 152.812,114.405 215,200 " fill="#f9c406" transform="rotate(45, 125,200)"/>
<polygon points="230,200 174.721,276.085 85.279,247.023 85.279,152.977 174.721,123.915 230,200 " fill="#995668" transform="rotate(45, 150,200)"/>
<polygon points="245,200 196.631,266.574 118.369,241.145 118.369,158.855 196.631,133.426 245,200 " fill="#FF0000" transform="rotate(45, 175,200)"/>
<polygon points="260,200 218.541,257.063 151.459,235.267 151.459,164.733 218.541,142.937 260,200 " fill="#f9c406" transform="rotate(45, 200,200)"/>
<polygon points="330,375 240.172,498.637 94.828,451.412 94.828,298.588 240.172,251.363 330,375 " fill="#f9c406" transform="rotate(45, 200,375)"/>
<polygon points="320,350 237.082,464.127 102.918,420.534 102.918,279.466 237.082,235.873 320,350 " fill="#995668" transform="rotate(45, 200,350)"/>
<polygon points="310,325 233.992,429.616 111.008,389.656 111.008,260.344 233.992,220.384 310,325 " fill="#FF0000" transform="rotate(45, 200,325)"/>
<polygon points="300,300 230.902,395.106 119.098,358.779 119.098,241.221 230.902,204.894 300,300 " fill="#f9c406" transform="rotate(45, 200,300)"/>
<polygon points="290,275 227.812,360.595 127.188,327.901 127.188,222.099 227.812,189.405 290,275 " fill="#f9c406" transform="rotate(45, 200,275)"/>
<polygon points="280,250 224.721,326.085 135.279,297.023 135.279,202.977 224.721,173.915 280,250 " fill="#995668" transform="rotate(45, 200,250)"/>
<polygon points="270,225 221.631,291.574 143.369,266.145 143.369,183.855 221.631,158.426 270,225 " fill="#FF0000" transform="rotate(45, 200,225)"/>
<polygon points="260,200 218.541,257.063 151.459,235.267 151.459,164.733 218.541,142.937 260,200 " fill="#f9c406" transform="rotate(45, 200,200)"/>
<polygon points="330,25 240.172,148.637 94.828,101.412 94.828,-51.412 240.172,-98.637 330,25 " fill="#f9c406" transform="rotate(45, 200,25)"/>
<polygon points="320,50 237.082,164.127 102.918,120.534 102.918,-20.534 237.082,-64.127 320,50 " fill="#995668" transform="rotate(45, 200,50)"/>
<polygon points="310,75 233.992,179.616 111.008,139.656 111.008,10.344 233.992,-29.616 310,75 " fill="#FF0000" transform="rotate(45, 200,75)"/>
<polygon points="300,100 230.902,195.106 119.098,158.779 119.098,41.221 230.902,4.894 300,100 " fill="#f9c406" transform="rotate(45, 200,100)"/>
<polygon points="290,125 227.812,210.595 127.188,177.901 127.188,72.099 227.812,39.405 290,125 " fill="#f9c406" transform="rotate(45, 200,125)"/>
<polygon points="280,150 224.721,226.085 135.279,197.023 135.279,102.977 224.721,73.915 280,150 " fill="#995668" transform="rotate(45, 200,150)"/>
<polygon points="270,175 221.631,241.574 143.369,216.145 143.369,133.855 221.631,108.426 270,175 " fill="#FF0000" transform="rotate(45, 200,175)"/>
<polygon points="260,200 218.541,257.063 151.459,235.267 151.459,164.733 218.541,142.937 260,200 " fill="#f9c406" transform="rotate(45, 200,200)"/>
<polygon points="260,200 218.541,257.063 151.459,235.267 151.459,164.733 218.541,142.937 260,200 " fill="#800000FF" transform="rotate(45, 200,200)"/>

</svg>
