<svg viewBox="0 0 400 400" xmlns="http://www.w3.org/2000/svg">
<polygon points="155,25 154.288,38.589 152.159,52.029 148.637,65.172 143.761,77.876 137.583,90 130.172,101.412 121.609,111.987 111.987,121.609 101.412,130.172 90,137.583 77.876,143.761 65.172,148.637 52.029,152.159 38.589,154.288 25,155 11.411,154.288 -2.029,152.159 -15.172,148.637 -27.876,143.761 -40,137.583 -51.412,130.172 -61.987,121.609 -71.609,111.987 -80.172,101.412 -87.583,90 -93.761,77.876 -98.637,65.172 -102.159,52.029 -104.288,38.589 -105,25 -104.288,11.411 -102.159,-2.029 -98.637,-15.172 -93.761,-27.876 -87.583,-40 -80.172,-51.412 -71.609,-61.987 -61.987,-71.609 -51.412,-80.172 -40,-87.583 -27.876,-93.761 -15.172,-98.637 -2.029,-102.159 11.411,-104.288 25,-105 38.589,-104.288 52.029,-102.159 65.172,-98.637 77.876,-93.761 90,-87.583 101.412,-80.172 111.987,-71.609 121.609,-61.987 130.172,-51.412 137.583,-40 143.761,-27.876 148.637,-15.172 152.159,-2.029 154.288,11.411 155,25 " fill="#f9c406" transform="rotate(0, 25,25)"/>
<polygon points="170,50 169.343,62.543 167.378,74.949 164.127,87.082 159.625,98.808 153.923,110 147.082,120.534 139.177,130.296 130.296,139.177 120.534,147.082 110,153.923 98.808,159.625 87.082,164.127 74.949,167.378 62.543,169.343 50,170 37.457,169.343 25.051,167.378 12.918,164.127 1.192,159.625 -10,153.923 -20.534,147.082 -30.296,139.177 -39.177,130.296 -47.082,120.534 -53.923,110 -59.625,98.808 -64.127,87.082 -67.378,74.949 -69.343,62.543 -70,50 -69.343,37.457 -67.378,25.051 -64.127,12.918 -59.625,1.192 -53.923,-10 -47.082,-20.534 -39.177,-30.296 -30.296,-39.177 -20.534,-47.082 -10,-53.923 1.192,-59.625 12.918,-64.127 25.051,-67.378 37.457,-69.343 50,-70 62.543,-69.343 74.949,-67.378 87.082,-64.127 98.808,-59.625 110,-53.923 120.534,-47.082 130.296,-39.177 139.177,-30.296 147.082,-20.534 153.923,-10 159.625,1.192 164.127,12.918 167.378,25.051 169.343,37.457 170,50 " fill="#995668" transform="rotate(0, 50,50)"/>
<polygon points="185,75 184.397,86.498 182.596,97.87 179.616,108.992 175.49,119.741 170.263,130 163.992,139.656 156.746,148.604 148.604,156.746 139.656,163.992 130,170.263 119.741,175.49 108.992,179.616 97.87,182.596 86.498,184.397 75,185 63.502,184.397 52.13,182.596 41.008,179.616 30.259,175.49 20,170.263 10.344,163.992 1.396,156.746 -6.746,148.604 -13.992,139.656 -20.263,130 -25.49,119.741 -29.616,108.992 -32.596,97.87 -34.397,86.498 -35,75 -34.397,63.502 -32.596,52.13 -29.616,41.008 -25.49,30.259 -20.263,20 -13.992,10.344 -6.746,1.396 1.396,-6.746 10.344,-13.992 20,-20.263 30.259,-25.49 41.008,-29.616 52.13,-32.596 63.502,-34.397 75,-35 86.498,-34.397 97.87,-32.596 108.992,-29.616 119.741,-25.49 130,-20.263 139.656,-13.992 148.604,-6.746 156.746,1.396 163.992,10.344 170.263,20 175.49,30.259 179.616,41.008 182.596,52.13 184.397,63.502 185,75 " fill="#FF0000" transform="rotate(0, 75,75)"/>
<polygon points="200,100 199.452,110.453 197.815,120.791 195.106,130.902 191.355,140.674 186.603,150 180.902,158.779 174.314,166.913 166.913,174.314 158.779,180.902 150,186.603 140.674,191.355 130.902,195.106 120.791,197.815 110.453,199.452 100,200 89.547,199.452 79.209,197.815 69.098,195.106 59.326,191.355 50,186.603 41.221,180.902 33.087,174.314 25.686,166.913 19.098,158.779 13.397,150 8.645,140.674 4.894,130.902 2.185,120.791 0.548,110.453 0,100 0.548,89.547 2.185,79.209 4.894,69.098 8.645,59.326 13.397,50 19.098,41.221 25.686,33.087 33.087,25.686 41.221,19.098 50,13.397 59.326,8.645 69.098,4.894 79.209,2.185 89.547,0.548 100,0 110.453,0.548 120.791,2.185 130.902,4.894 140.674,8.645 150,13.397 158.779,19.098 166.913,25.686 174.314,33.087 180.902,41.221 186.603,50 191.355,59.326 195.106,69.098 197.815,79.209 199.452,89.547 200,100 " fill="#f9c406" transform="rotate(0, 100,100)"/>
<polygon points="215,125 214.507,134.408 213.033,143.712 210.595,152.812 207.219,161.606 202.942,170 197.812,177.901 191.883,185.222 185.222,191.883 177.901,197.812 170,202.942 161.606,207.219 152.812,210.595 143.712,213.033 134.408,214.507 125,215 115.592,214.507 106.288,213.033 97.188,210.595 88.394,207.219 80,202.942 72.099,197.812 64.778,191.883 58.117,185.222 52.188,177.901 47.058,170 42.781,161.606 39.405,152.812 36.967,143.712 35.493,134.408 35,125 35.493,115.592 36.967,106.288 39.405,97.188 42.781,88.394 47.058,80 52.188,72.099 58.117,64.778 64.778,58.117 72.099,52.188 80,47.058 88.394,42.781 97.188,39.405 106.288,36.967 115.592,35.493 125,35 134.408,35.493 143.712,36.967 152.812,39.405 161.606,42.781 170,47.058 177.901,52.188 185.222,58.117 191.883,64.778 197.812,72.099 202.942,80 207.219,88.394 210.595,97.188 213.033,106.288 214.507,115.592 215,125 " fill="#f9c406" transform="rotate(0, 125,125)"/>
<polygon points="230,150 229.562,158.362 228.252,166.633 226.085,174.721 223.084,182.539 219.282,190 214.721,197.023 209.452,203.53 203.53,209.452 197.023,214.721 190,219.282 182.539,223.084 174.721,226.085 166.633,228.252 158.362,229.562 150,230 141.638,229.562 133.367,228.252 125.279,226.085 117.461,223.084 110,219.282 102.977,214.721 96.47,209.452 90.548,203.53 85.279,197.023 80.718,190 76.916,182.539 73.915,174.721 71.748,166.633 70.438,158.362 70,150 70.438,141.638 71.748,133.367 73.915,125.279 76.916,117.461 80.718,110 85.279,102.977 90.548,96.47 96.47,90.548 102.977,85.279 110,80.718 117.461,76.916 125.279,73.915 133.367,71.748 141.638,70.438 150,70 158.362,70.438 166.633,71.748 174.721,73.915 182.539,76.916 190,80.718 197.023,85.279 203.53,90.548 209.452,96.47 214.721,102.977 219.282,110 223.084,117.461 226.085,125.279 228.252,133.367 229.562,141.638 230,150 " fill="#995668" transform="rotate(0, 150,150)"/>
<polygon points="245,175 244.617,182.317 243.47,189.554 241.574,196.631 238.948,203.472 235.622,210 231.631,216.145 227.02,221.839 221.839,227.02 216.145,231.631 210,235.622 203.472,238.948 196.631,241.574 189.554,243.47 182.317,244.617 175,245 167.683,244.617 160.446,243.47 153.369,241.574 146.528,238.948 140,235.622 133.855,231.631 128.161,227.02 122.98,221.839 118.369,216.145 114.378,210 111.052,203.472 108.426,196.631 106.53,189.554 105.383,182.317 105,175 105.383,167.683 106.53,160.446 108.426,153.369 111.052,146.528 114.378,140 118.369,133.855 122.98,128.161 128.161,122.98 133.855,118.369 140,114.378 146.528,111.052 153.369,108.426 160.446,106.53 167.683,105.383 175,105 182.317,105.383 189.554,106.53 196.631,108.426 203.472,111.052 210,114.378 216.145,118.369 221.839,122.98 227.02,128.161 231.631,133.855 235.622,140 238.948,146.528 241.574,153.369 243.47,160.446 244.617,167.683 245,175 " fill="#FF0000" transform="rotate(0, 175,175)"/>
<polygon points="260,200 259.671,206.272 258.689,212.475 257.063,218.541 254.813,224.404 251.962,230 248.541,235.267 244.589,240.148 240.148,244.589 235.267,248.541 230,251.962 224.404,254.813 218.541,257.063 212.475,258.689 206.272,259.671 200,260 193.728,259.671 187.525,258.689 181.459,257.063 175.596,254.813 170,251.962 164.733,248.541 159.852,244.589 155.411,240.148 151.459,235.267 148.038,230 145.187,224.404 142.937,218.541 141.311,212.475 140.329,206.272 140,200 140.329,193.728 141.311,187.525 142.937,181.459 145.187,175.596 148.038,170 151.459,164.733 155.411,159.852 159.852,155.411 164.733,151.459 170,148.038 175.596,145.187 181.459,142.937 187.525,141.311 193.728,140.329 200,140 206.272,140.329 212.475,141.311 218.541,142.937 224.404,145.187 230,148.038 235.267,151.459 240.148,155.411 244.589,159.852 248.541,164.733 251.962,170 254.813,175.596 257.063,181.459 258.689,187.525 259.671,193.728 260,200 " fill="#f9c406" transform="rotate(0, 200,200)"/>
<polygon points="505,375 504.288,388.589 502.159,402.029 498.637,415.172 493.761,427.876 487.583,440 480.172,451.412 471.609,461.987 461.987,471.609 451.412,480.172 440,487.583 427.876,493.761 415.172,498.637 402.029,502.159 388.589,504.288 375,505 361.411,504.288 347.971,502.159 334.828,498.637 322.124,493.761 310,487.583 298.588,480.172 288.013,471.609 278.391,461.987 269.828,451.412 262.417,440 256.239,427.876 251.363,415.172 247.841,402.029 245.712,388.589 245,375 245.712,361.411 247.841,347.971 251.363,334.828 256.239,322.124 262.417,310 269.828,298.588 278.391,288.013 288.013,278.391 298.588,269.828 310,262.417 322.124,256.239 334.828,251.363 347.971,247.841 361.411,245.712 375,245 388.589,245.712 402.029,247.841 415.172,251.363 427.876,256.239 440,262.417 451.412,269.828 461.987,278.391 471.609,288.013 480.172,298.588 487.583,310 493.761,322.124 498.637,334.828 502.159,347.971 504.288,361.411 505,375 " fill="#f9c406" transform="rotate(0, 375,375)"/>
<polygon points="470,350 469.343,362.543 467.378,374.949 464.127,387.082 459.625,398.808 453.923,410 447.082,420.534 439.177,430.296 430.296,439.177 420.534,447.082 410,453.923 398.808,459.625 387.082,464.127 374.949,467.378 362.543,469.343 350,470 337.457,469.343 325.051,467.378 312.918,464.127 301.192,459.625 290,453.923 279.466,447.082 269.704,439.177 260.823,430.296 252.918,420.534 246.077,410 240.375,398.808 235.873,387.082 232.622,374.949 230.657,362.543 230,350 230.657,337.457 232.622,325.051 235.873,312.918 240.375,301.192 246.077,290 252.918,279.466 260.823,269.704 269.704,260.823 279.466,252.918 290,246.077 301.192,240.375 312.918,235.873 325.051,232.622 337.457,230.657 350,230 362.543,230.657 374.949,232.622 387.082,235.873 398.808,240.375 410,246.077 420.534,252.918 430.296,260.823 439.177,269.704 447.082,279.466 453.923,290 459.625,301.192 464.127,312.918 467.378,325.051 469.343,337.457 470,350 " fill="#995668" transform="rotate(0, 350,350)"/>
<polygon points="435,325 434.397,336.498 432.596,347.87 429.616,358.992 425.49,369.741 420.263,380 413.992,389.656 406.746,398.604 398.604,406.746 389.656,413.992 380,420.263 369.741,425.49 358.992,429.616 347.87,432.596 336.498,434.397 325,435 313.502,434.397 302.13,432.596 291.008,429.616 280.259,425.49 270,420.263 260.344,413.992 251.396,406.746 243.254,398.604 236.008,389.656 229.737,380 224.51,369.741 220.384,358.992 217.404,347.87 215.603,336.498 215,325 215.603,313.502 217.404,302.13 220.384,291.008 224.51,280.259 229.737,270 236.008,260.344 243.254,251.396 251.396,243.254 260.344,236.008 270,229.737 280.259,224.51 291.008,220.384 302.13,217.404 313.502,215.603 325,215 336.498,215.603 347.87,217.404 358.992,220.384 369.741,224.51 380,229.737 389.656,236.008 398.604,243.254 406.746,251.396 413.992,260.344 420.263,270 425.49,280.259 429.616,291.008 432.596,302.13 434.397,313.502 435,325 " fill="#FF0000" transform="rotate(0, 325,325)"/>
<polygon points="400,300 399.452,310.453 397.815,320.791 395.106,330.902 391.355,340.674 386.603,350 380.902,358.779 374.314,366.913 366.913,374.314 358.779,380.902 350,386.603 340.674,391.355 330.902,395.106 320.791,397.815 310.453,399.452 300,400 289.547,399.452 279.209,397.815 269.098,395.106 259.326,391.355 250,386.603 241.221,380.902 233.087,374.314 225.686,366.913 219.098,358.779 213.397,350 208.645,340.674 204.894,330.902 202.185,320.791 200.548,310.453 200,300 200.548,289.547 202.185,279.209 204.894,269.098 208.645,259.326 213.397,250 219.098,241.221 225.686,233.087 233.087,225.686 241.221,219.098 250,213.397 259.326,208.645 269.098,204.894 279.209,202.185 289.547,200.548 300,200 310.453,200.548 320.791,202.185 330.902,204.894 340.674,208.645 350,213.397 358.779,219.098 366.913,225.686 374.314,233.087 380.902,241.221 386.603,250 391.355,259.326 395.106,269.098 397.815,279.209 399.452,289.547 400,300 " fill="#f9c406" transform="rotate(0, 300,300)"/>
<polygon points="365,275 364.507,284.408 363.033,293.712 360.595,302.812 357.219,311.606 352.942,320 347.812,327.901 341.883,335.222 335.222,341.883 327.901,347.812 320,352.942 311.606,357.219 302.812,360.595 293.712,363.033 284.408,364.507 275,365 265.592,364.507 256.288,363.033 247.188,360.595 238.394,357.219 230,352.942 222.099,347.812 214.778,341.883 208.117,335.222 202.188,327.901 197.058,320 192.781,311.606 189.405,302.812 186.967,293.712 185.493,284.408 185,275 185.493,265.592 186.967,256.288 189.405,247.188 192.781,238.394 197.058,230 202.188,222.099 208.117,214.778 214.778,208.117 222.099,202.188 230,197.058 238.394,192.781 247.188,189.405 256.288,186.967 265.592,185.493 275,185 284.408,185.493 293.712,186.967 302.812,189.405 311.606,192.781 320,197.058 327.901,202.188 335.222,208.117 341.883,214.778 347.812,222.099 352.942,230 357.219,238.394 360.595,247.188 363.033,256.288 364.507,265.592 365,275 " fill="#f9c406" transform="rotate(0, 275,275)"/>
<polygon points="330,250 329.562,258.362 328.252,266.633 326.085,274.721 323.084,282.539 319.282,290 314.721,297.023 309.452,303.53 303.53,309.452 297.023,314.721 290,319.282 282.539,323.084 274.721,326.085 266.633,328.252 258.362,329.562 250,330 241.638,329.562 233.367,328.252 225.279,326.085 217.461,323.084 210,319.282 202.977,314.721 196.47,309.452 190.548,303.53 185.279,297.023 180.718,290 176.916,282.539 173.915,274.721 171.748,266.633 170.438,258.362 170,250 170.438,241.638 171.748,233.367 173.915,225.279 176.916,217.461 180.718,210 185.279,202.977 190.548,196.47 196.47,190.548 202.977,185.279 210,180.718 217.461,176.916 225.279,173.915 233.367,171.748 241.638,170.438 250,170 258.362,170.438 266.633,171.748 274.721,173.915 282.539,176.916 290,180.718 297.023,185.279 303.53,190.548 309.452,196.47 314.721,202.977 319.282,210 323.084,217.461 326.085,225.279 328.252,233.367 329.562,241.638 330,250 " fill="#995668" transform="rotate(0, 250,250)"/>
<polygon points="295,225 294.617,232.317 293.47,239.554 291.574,246.631 288.948,253.472 285.622,260 281.631,266.145 277.02,271.839 271.839,277.02 266.145,281.631 260,285.622 253.472,288.948 246.631,291.574 239.554,293.47 232.317,294.617 225,295 217.683,294.617 210.446,293.47 203.369,291.574 196.528,288.948 190,285.622 183.855,281.631 178.161,277.02 172.98,271.839 168.369,266.145 164.378,260 161.052,253.472 158.426,246.631 156.53,239.554 155.383,232.317 155,225 155.383,217.683 156.53,210.446 158.426,203.369 161.052,196.528 164.378,190 168.369,183.855 172.98,178.161 178.161,172.98 183.855,168.369 190,164.378 196.528,161.052 203.369,158.426 210.446,156.53 217.683,155.383 225,155 232.317,155.383 239.554,156.53 246.631,158.426 253.472,161.052 260,164.378 266.145,168.369 271.839,172.98 277.02,178.161 281.631,183.855 285.622,190 288.948,196.528 291.574,203.369 293.47,210.446 294.617,217.683 295,225 " fill="#FF0000" transform="rotate(0, 225,225)"/>
<polygon points="260,200 259.671,206.272 258.689,212.475 257.063,218.541 254.813,224.404 251.962,230 248.541,235.267 244.589,240.148 240.148,244.589 235.267,248.541 230,251.962 224.404,254.813 218.541,257.063 212.475,258.689 206.272,259.671 200,260 193.728,259.671 187.525,258.689 181.459,257.063 175.596,254.813 170,251.962 164.733,248.541 159.852,244.589 155.411,240.148 151.459,235.267 148.038,230 145.187,224.404 142.937,218.541 141.311,212.475 140.329,206.272 140,200 140.329,193.728 141.311,187.525 142.937,181.459 145.187,175.596 148.038,170 151.459,164.733 155.411,159.852 159.852,155.411 164.733,151.459 170,148.038 175.596,145.187 181.459,142.937 187.525,141.311 193.728,140.329 200,140 206.272,140.329 212.475,141.311 218.541,142.937 224.404,145.187 230,148.038 235.267,151.459 240.148,155.411 244.589,159.852 248.541,164.733 251.962,170 254.813,175.596 257.063,181.459 258.689,187.525 259.671,193.728 260,200 " fill="#f9c406" transform="rotate(0, 200,200)"/>
<polygon points="505,25 504.288,38.589 502.159,52.029 498.637,65.172 493.761,77.876 487.583,90 480.172,101.412 471.609,111.987 461.987,121.609 451.412,130.172 440,137.583 427.876,143.761 415.172,148.637 402.029,152.159 388.589,154.288 375,155 361.411,154.288 347.971,152.159 334.828,148.637 322.124,143.761 310,137.583 298.588,130.172 288.013,121.609 278.391,111.987 269.828,101.412 262.417,90 256.239,77.876 251.363,65.172 247.841,52.029 245.712,38.589 245,25 245.712,11.411 247.841,-2.029 251.363,-15.172 256.239,-27.876 262.417,-40 269.828,-51.412 278.391,-61.987 288.013,-71.609 298.588,-80.172 310,-87.583 322.124,-93.761 334.828,-98.637 347.971,-102.159 361.411,-104.288 375,-105 388.589,-104.288 402.029,-102.159 415.172,-98.637 427.876,-93.761 440,-87.583 451.412,-80.172 461.987,-71.609 471.609,-61.987 480.172,-51.412 487.583,-40 493.761,-27.876 498.637,-15.172 502.159,-2.029 504.288,11.411 505,25 " fill="#f9c406" transform="rotate(0, 375,25)"/>
<polygon points="470,50 469.343,62.543 467.378,74.949 464.127,87.082 459.625,98.808 453.923,110 447.082,120.534 439.177,130.296 430.296,139.177 420.534,147.082 410,153.923 398.808,159.625 387.082,164.127 374.949,167.378 362.543,169.343 350,170 337.457,169.343 325.051,167.378 312.918,164.127 301.192,159.625 290,153.923 279.466,147.082 269.704,139.177 260.823,130.296 252.918,120.534 246.077,110 240.375,98.808 235.873,87.082 232.622,74.949 230.657,62.543 230,50 230.657,37.457 232.622,25.051 235.873,12.918 240.375,1.192 246.077,-10 252.918,-20.534 260.823,-30.296 269.704,-39.177 279.466,-47.082 290,-53.923 301.192,-59.625 312.918,-64.127 325.051,-67.378 337.457,-69.343 350,-70 362.543,-69.343 374.949,-67.378 387.082,-64.127 398.808,-59.625 410,-53.923 420.534,-47.082 430.296,-39.177 439.177,-30.296 447.082,-20.534 453.923,-10 459.625,1.192 464.127,12.918 467.378,25.051 469.343,37.457 470,50 " fill="#995668" transform="rotate(0, 350,50)"/>
<polygon points="435,75 434.397,86.498 432.596,97.87 429.616,108.992 425.49,119.741 420.263,130 413.992,139.656 406.746,148.604 398.604,156.746 389.656,163.992 380,170.263 369.741,175.49 358.992,179.616 347.87,182.596 336.498,184.397 325,185 313.502,184.397 302.13,182.596 291.008,179.616 280.259,175.49 270,170.263 260.344,163.992 251.396,156.746 243.254,148.604 236.008,139.656 229.737,130 224.51,119.741 220.384,108.992 217.404,97.87 215.603,86.498 215,75 215.603,63.502 217.404,52.13 220.384,41.008 224.51,30.259 229.737,20 236.008,10.344 243.254,1.396 251.396,-6.746 260.344,-13.992 270,-20.263 280.259,-25.49 291.008,-29.616 302.13,-32.596 313.502,-34.397 325,-35 336.498,-34.397 347.87,-32.596 358.992,-29.616 369.741,-25.49 380,-20.263 389.656,-13.992 398.604,-6.746 406.746,1.396 413.992,10.344 420.263,20 425.49,30.259 429.616,41.008 432.596,52.13 434.397,63.502 435,75 " fill="#FF0000" transform="rotate(0, 325,75)"/>
<polygon points="400,100 399.452,110.453 397.815,120.791 395.106,130.902 391.355,140.674 386.603,150 380.902,158.779 374.314,166.913 366.913,174.314 358.779,180.902 350,186.603 340.674,191.355 330.902,195.106 320.791,197.815 310.453,199.452 300,200 289.547,199.452 279.209,197.815 269.098,195.106 259.326,191.355 250,186.603 241.221,180.902 233.087,174.314 225.686,166.913 219.098,158.779 213.397,150 208.645,140.674 204.894,130.902 202.185,120.791 200.548,110.453 200,100 200.548,89.547 202.185,79.209 204.894,69.098 208.645,59.326 213.397,50 219.098,41.221 225.686,33.087 233.087,25.686 241.221,19.098 250,13.397 259.326,8.645 269.098,4.894 279.209,2.185 289.547,0.548 300,0 310.453,0.548 320.791,2.185 330.902,4.894 340.674,8.645 350,13.397 358.779,19.098 366.913,25.686 374.314,33.087 380.902,41.221 386.603,50 391.355,59.326 395.106,69.098 397.815,79.209 399.452,89.547 400,100 " fill="#f9c406" transform="rotate(0, 300,100)"/>
<polygon points="365,125 364.507,134.408 363.033,143.712 360.595,152.812 357.219,161.606 352.942,170 347.812,177.901 341.883,185.222 335.222,191.883 327.901,197.812 320,202.942 311.606,207.219 302.812,210.595 293.712,213.033 284.408,214.507 275,215 265.592,214.507 256.288,213.033 247.188,210.595 238.394,207.219 230,202.942 222.099,197.812 214.778,191.883 208.117,185.222 202.188,177.901 197.058,170 192.781,161.606 189.405,152.812 186.967,143.712 185.493,134.408 185,125 185.493,115.592 186.967,106.288 189.405,97.188 192.781,88.394 197.058,80 202.188,72.099 208.117,64.778 214.778,58.117 222.099,52.188 230,47.058 238.394,42.781 247.188,39.405 256.288,36.967 265.592,35.493 275,35 284.408,35.493 293.712,36.967 302.812,39.405 311.606,42.781 320,47.058 327.901,52.188 335.222,58.117 341.883,64.778 347.812,72.099 352.942,80 357.219,88.394 360.595,97.188 363.033,106.288 364.507,115.592 365,125 " fill="#f9c406" transform="rotate(0, 275,125)"/>
<polygon points="330,150 329.562,158.362 328.252,166.633 326.085,174.721 323.084,182.539 319.282,190 314.721,197.023 309.452,203.53 303.53,209.452 297.023,214.721 290,219.282 282.539,223.084 274.721,226.085 266.633,228.252 258.362,229.562 250,230 241.638,229.562 233.367,228.252 225.279,226.085 217.461,223.084 210,219.282 202.977,214.721 196.47,209.452 190.548,203.53 185.279,197.023 180.718,190 176.916,182.539 173.915,174.721 171.748,166.633 170.438,158.362 170,150 170.438,141.638 171.748,133.367 173.915,125.279 176.916,117.461 180.718,110 185.279,102.977 190.548,96.47 196.47,90.548 202.977,85.279 210,80.718 217.461,76.916 225.279,73.915 233.367,71.748 241.638,70.438 250,70 258.362,70.438 266.633,71.748 274.721,73.915 282.539,76.916 290,80.718 297.023,85.279 303.53,90.548 309.452,96.47 314.721,102.977 319.282,110 323.084,117.461 326.085,125.279 328.252,133.367 329.562,141.638 330,150 " fill="#995668" transform="rotate(0, 250,150)"/>
<polygon points="295,175 294.617,182.317 293.47,189.554 291.574,196.631 288.948,203.472 285.622,210 281.631,216.145 277.02,221.839 271.839,227.02 266.145,231.631 260,235.622 253.472,238.948 246.631,241.574 239.554,243.47 232.317,244.617 225,245 217.683,244.617 210.446,243.47 203.369,241.574 196.528,238.948 190,235.622 183.855,231.631 178.161,227.02 172.98,221.839 168.369,216.145 164.378,210 161.052,203.472 158.426,196.631 156.53,189.554 155.383,182.317 155,175 155.383,167.683 156.53,160.446 158.426,153.369 161.052,146.528 164.378,140 168.369,133.855 172.98,128.161 178.161,122.98 183.855,118.369 190,114.378 196.528,111.052 203.369,108.426 210.446,106.53 217.683,105.383 225,105 232.317,105.383 239.554,106.53 246.631,108.426 253.472,111.052 260,114.378 266.145,118.369 271.839,122.98 277.02,128.161 281.631,133.855 285.622,140 288.948,146.528 291.574,153.369 293.47,160.446 294.617,167.683 295,175 " fill="#FF0000" transform="rotate(0, 225,175)"/>
<polygon points="260,200 259.671,206.272 258.689,212.475 257.063,218.541 254.813,224.404 251.962,230 248.541,235.267 244.589,240.148 240.148,244.589 235.267,248.541 230,251.962 224.404,254.813 218.541,257.063 212.475,258.689 206.272,259.671 200,260 193.728,259.671 187.525,258.689 181.459,257.063 175.596,254.813 170,251.962 164.733,248.541 159.852,244.589 155.411,240.148 151.459,235.267 148.038,230 145.187,224.404 142.937,218.541 141.311,212.475 140.329,206.272 140,200 140.329,193.728 141.311,187.525 142.937,181.459 145.187,175.596 148.038,170 151.459,164.733 155.411,159.852 159.852,155.411 164.733,151.459 170,148.038 175.596,145.187 181.459,142.937 187.525,141.311 193.728,140.329 200,140 206.272,140.329 212.475,141.311 218.541,142.937 224.404,145.187 230,148.038 235.267,151.459 240.148,155.411 244.589,159.852 248.541,164.733 251.962,170 254.813,175.596 257.063,181.459 258.689,187.525 259.671,193.728 260,200 " fill="#f9c406" transform="rotate(0, 200,200)"/>
<polygon points="155,375 154.288,388.589 152.159,402.029 148.637,415.172 143.761,427.876 137.583,440 130.172,451.412 121.609,461.987 111.987,471.609 101.412,480.172 90,487.583 77.876,493.761 65.172,498.637 52.029,502.159 38.589,504.288 25,505 11.411,504.288 -2.029,502.159 -15.172,498.637 -27.876,493.761 -40,487.583 -51.412,480.172 -61.987,471.609 -71.609,461.987 -80.172,451.412 -87.583,440 -93.761,427.876 -98.637,415.172 -102.159,402.029 -104.288,388.589 -105,375 -104.288,361.411 -102.159,347.971 -98.637,334.828 -93.761,322.124 -87.583,310 -80.172,298.588 -71.609,288.013 -61.987,278.391 -51.412,269.828 -40,262.417 -27.876,256.239 -15.172,251.363 -2.029,247.841 11.411,245.712 25,245 38.589,245.712 52.029,247.841 65.172,251.363 77.876,256.239 90,262.417 101.412,269.828 111.987,278.391 121.609,288.013 130.172,298.588 137.583,310 143.761,322.124 148.637,334.828 152.159,347.971 154.288,361.411 155,375 " fill="#f9c406" transform="rotate(0, 25,375)"/>
<polygon points="170,350 169.343,362.543 167.378,374.949 164.127,387.082 159.625,398.808 153.923,410 147.082,420.534 139.177,430.296 130.296,439.177 120.534,447.082 110,453.923 98.808,459.625 87.082,464.127 74.949,467.378 62.543,469.343 50,470 37.457,469.343 25.051,467.378 12.918,464.127 1.192,459.625 -10,453.923 -20.534,447.082 -30.296,439.177 -39.177,430.296 -47.082,420.534 -53.923,410 -59.625,398.808 -64.127,387.082 -67.378,374.949 -69.343,362.543 -70,350 -69.343,337.457 -67.378,325.051 -64.127,312.918 -59.625,301.192 -53.923,290 -47.082,279.466 -39.177,269.704 -30.296,260.823 -20.534,252.918 -10,246.077 1.192,240.375 12.918,235.873 25.051,232.622 37.457,230.657 50,230 62.543,230.657 74.949,232.622 87.082,235.873 98.808,240.375 110,246.077 120.534,252.918 130.296,260.823 139.177,269.704 147.082,279.466 153.923,290 159.625,301.192 164.127,312.918 167.378,325.051 169.343,337.457 170,350 " fill="#995668" transform="rotate(0, 50,350)"/>
<polygon points="185,325 184.397,336.498 182.596,347.87 179.616,358.992 175.49,369.741 170.263,380 163.992,389.656 156.746,398.604 148.604,406.746 139.656,413.992 130,420.263 119.741,425.49 108.992,429.616 97.87,432.596 86.498,434.397 75,435 63.502,434.397 52.13,432.596 41.008,429.616 30.259,425.49 20,420.263 10.344,413.992 1.396,406.746 -6.746,398.604 -13.992,389.656 -20.263,380 -25.49,369.741 -29.616,358.992 -32.596,347.87 -34.397,336.498 -35,325 -34.397,313.502 -32.596,302.13 -29.616,291.008 -25.49,280.259 -20.263,270 -13.992,260.344 -6.746,251.396 1.396,243.254 10.344,236.008 20,229.737 30.259,224.51 41.008,220.384 52.13,217.404 63.502,215.603 75,215 86.498,215.603 97.87,217.404 108.992,220.384 119.741,224.51 130,229.737 139.656,236.008 148.604,243.254 156.746,251.396 163.992,260.344 170.263,270 175.49,280.259 179.616,291.008 182.596,302.13 184.397,313.502 185,325 " fill="#FF0000" transform="rotate(0, 75,325)"/>
<polygon points="200,300 199.452,310.453 197.815,320.791 195.106,330.902 191.355,340.674 186.603,350 180.902,358.779 174.314,366.913 166.913,374.314 158.779,380.902 150,386.603 140.674,391.355 130.902,395.106 120.791,397.815 110.453,399.452 100,400 89.547,399.452 79.209,397.815 69.098,395.106 59.326,391.355 50,386.603 41.221,380.902 33.087,374.314 25.686,366.913 19.098,358.779 13.397,350 8.645,340.674 4.894,330.902 2.185,320.791 0.548,310.453 0,300 0.548,289.547 2.185,279.209 4.894,269.098 8.645,259.326 13.397,250 19.098,241.221 25.686,233.087 33.087,225.686 41.221,219.098 50,213.397 59.326,208.645 69.098,204.894 79.209,202.185 89.547,200.548 100,200 110.453,200.548 120.791,202.185 130.902,204.894 140.674,208.645 150,213.397 158.779,219.098 166.913,225.686 174.314,233.087 180.902,241.221 186.603,250 191.355,259.326 195.106,269.098 197.815,279.209 199.452,289.547 200,300 " fill="#f9c406" transform="rotate(0, 100,300)"/>
<polygon points="215,275 214.507,284.408 213.033,293.712 210.595,302.812 207.219,311.606 202.942,320 197.812,327.901 191.883,335.222 185.222,341.883 177.901,347.812 170,352.942 161.606,357.219 152.812,360.595 143.712,363.033 134.408,364.507 125,365 115.592,364.507 106.288,363.033 97.188,360.595 88.394,357.219 80,352.942 72.099,347.812 64.778,341.883 58.117,335.222 52.188,327.901 47.058,320 42.781,311.606 39.405,302.812 36.967,293.712 35.493,284.408 35,275 35.493,265.592 36.967,256.288 39.405,247.188 42.781,238.394 47.058,230 52.188,222.099 58.117,214.778 64.778,208.117 72.099,202.188 80,197.058 88.394,192.781 97.188,189.405 106.288,186.967 115.592,185.493 125,185 134.408,185.493 143.712,186.967 152.812,189.405 161.606,192.781 170,197.058 177.901,202.188 185.222,208.117 191.883,214.778 197.812,222.099 202.942,230 207.219,238.394 210.595,247.188 213.033,256.288 214.507,265.592 215,275 " fill="#f9c406" transform="rotate(0, 125,275)"/>
<polygon points="230,250 229.562,258.362 228.252,266.633 226.085,274.721 223.084,282.539 219.282,290 214.721,297.023 209.452,303.53 203.53,309.452 197.023,314.721 190,319.282 182.539,323.084 174.721,326.085 166.633,328.252 158.362,329.562 150,330 141.638,329.562 133.367,328.252 125.279,326.085 117.461,323.084 110,319.282 102.977,314.721 96.47,309.452 90.548,303.53 85.279,297.023 80.718,290 76.916,282.539 73.915,274.721 71.748,266.633 70.438,258.362 70,250 70.438,241.638 71.748,233.367 73.915,225.279 76.916,217.461 80.718,210 85.279,202.977 90.548,196.47 96.47,190.548 102.977,185.279 110,180.718 117.461,176.916 125.279,173.915 133.367,171.748 141.638,170.438 150,170 158.362,170.438 166.633,171.748 174.721,173.915 182.539,176.916 190,180.718 197.023,185.279 203.53,190.548 209.452,196.47 214.721,202.977 219.282,210 223.084,217.461 226.085,225.279 228.252,233.367 229.562,241.638 230,250 " fill="#995668" transform="rotate(0, 150,250)"/>
<polygon points="245,225 244.617,232.317 243.47,239.554 241.574,246.631 238.948,253.472 235.622,260 231.631,266.145 227.02,271.839 221.839,277.02 216.145,281.631 210,285.622 203.472,288.948 196.631,291.574 189.554,293.47 182.317,294.617 175,295 167.683,294.617 160.446,293.47 153.369,291.574 146.528,288.948 140,285.622 133.855,281.631 128.161,277.02 122.98,271.839 118.369,266.145 114.378,260 111.052,253.472 108.426,246.631 106.53,239.554 105.383,232.317 105,225 105.383,217.683 106.53,210.446 108.426,203.369 111.052,196.528 114.378,190 118.369,183.855 122.98,178.161 128.161,172.98 133.855,168.369 140,164.378 146.528,161.052 153.369,158.426 160.446,156.53 167.683,155.383 175,155 182.317,155.383 189.554,156.53 196.631,158.426 203.472,161.052 210,164.378 216.145,168.369 221.839,172.98 227.02,178.161 231.631,183.855 235.622,190 238.948,196.528 241.574,203.369 243.47,210.446 244.617,217.683 245,225 " fill="#FF0000" transform="rotate(0, 175,225)"/>
<polygon points="260,200 259.671,206.272 258.689,212.475 257.063,218.541 254.813,224.404 251.962,230 248.541,235.267 244.589,240.148 240.148,244.589 235.267,248.541 230,251.962 224.404,254.813 218.541,257.063 212.475,258.689 206.272,259.671 200,260 193.728,259.671 187.525,258.689 181.459,257.063 175.596,254.813 170,251.962 164.733,248.541 159.852,244.589 155.411,240.148 151.459,235.267 148.038,230 145.187,224.404 142.937,218.541 141.311,212.475 140.329,206.272 140,200 140.329,193.728 141.311,187.525 142.937,181.459 145.187,175.596 148.038,170 151.459,164.733 155.411,159.852 159.852,155.411 164.733,151.459 170,148.038 175.596,145.187 181.459,142.937 187.525,141.311 193.728,140.329 200,140 206.272,140.329 212.475,141.311 218.541,142.937 224.404,145.187 230,148.038 235.267,151.459 240.148,155.411 244.589,159.852 248.541,164.733 251.962,170 254.813,175.596 257.063,181.459 258.689,187.525 259.671,193.728 260,200 " fill="#f9c406" transform="rotate(0, 200,200)"/>
<polygon points="330,375 329.288,388.589 327.159,402.029 323.637,415.172 318.761,427.876 312.583,440 305.172,451.412 296.609,461.987 286.987,471.609 276.412,480.172 265,487.583 252.876,493.761 240.172,498.637 227.029,502.159 213.589,504.288 200,505 186.411,504.288 172.971,502.159 159.828,498.637 147.124,493.761 135,487.583 123.588,480.172 113.013,471.609 103.391,461.987 94.828,451.412 87.417,440 81.239,427.876 76.363,415.172 72.841,402.029 70.712,388.589 70,375 70.712,361.411 72.841,347.971 76.363,334.828 81.239,322.124 87.417,310 94.828,298.588 103.391,288.013 113.013,278.391 123.588,269.828 135,262.417 147.124,256.239 159.828,251.363 172.971,247.841 186.411,245.712 200,245 213.589,245.712 227.029,247.841 240.172,251.363 252.876,256.239 265,262.417 276.412,269.828 286.987,278.391 296.609,288.013 305.172,298.588 312.583,310 318.761,322.124 323.637,334.828 327.159,347.971 329.288,361.411 330,375 " fill="#f9c406" transform="rotate(0, 200,375)"/>
<polygon points="320,350 319.343,362.543 317.378,374.949 314.127,387.082 309.625,398.808 303.923,410 297.082,420.534 289.177,430.296 280.296,439.177 270.534,447.082 260,453.923 248.808,459.625 237.082,464.127 224.949,467.378 212.543,469.343 200,470 187.457,469.343 175.051,467.378 162.918,464.127 151.192,459.625 140,453.923 129.466,447.082 119.704,439.177 110.823,430.296 102.918,420.534 96.077,410 90.375,398.808 85.873,387.082 82.622,374.949 80.657,362.543 80,350 80.657,337.457 82.622,325.051 85.873,312.918 90.375,301.192 96.077,290 102.918,279.466 110.823,269.704 119.704,260.823 129.466,252.918 140,246.077 151.192,240.375 162.918,235.873 175.051,232.622 187.457,230.657 200,230 212.543,230.657 224.949,232.622 237.082,235.873 248.808,240.375 260,246.077 270.534,252.918 280.296,260.823 289.177,269.704 297.082,279.466 303.923,290 309.625,301.192 314.127,312.918 317.378,325.051 319.343,337.457 320,350 " fill="#995668" transform="rotate(0, 200,350)"/>
<polygon points="310,325 309.397,336.498 307.596,347.87 304.616,358.992 300.49,369.741 295.263,380 288.992,389.656 281.746,398.604 273.604,406.746 264.656,413.992 255,420.263 244.741,425.49 233.992,429.616 222.87,432.596 211.498,434.397 200,435 188.502,434.397 177.13,432.596 166.008,429.616 155.259,425.49 145,420.263 135.344,413.992 126.396,406.746 118.254,398.604 111.008,389.656 104.737,380 99.51,369.741 95.384,358.992 92.404,347.87 90.603,336.498 90,325 90.603,313.502 92.404,302.13 95.384,291.008 99.51,280.259 104.737,270 111.008,260.344 118.254,251.396 126.396,243.254 135.344,236.008 145,229.737 155.259,224.51 166.008,220.384 177.13,217.404 188.502,215.603 200,215 211.498,215.603 222.87,217.404 233.992,220.384 244.741,224.51 255,229.737 264.656,236.008 273.604,243.254 281.746,251.396 288.992,260.344 295.263,270 300.49,280.259 304.616,291.008 307.596,302.13 309.397,313.502 310,325 " fill="#FF0000" transform="rotate(0, 200,325)"/>
<polygon points="300,300 299.452,310.453 297.815,320.791 295.106,330.902 291.355,340.674 286.603,350 280.902,358.779 274.314,366.913 266.913,374.314 258.779,380.902 250,386.603 240.674,391.355 230.902,395.106 220.791,397.815 210.453,399.452 200,400 189.547,399.452 179.209,397.815 169.098,395.106 159.326,391.355 150,386.603 141.221,380.902 133.087,374.314 125.686,366.913 119.098,358.779 113.397,350 108.645,340.674 104.894,330.902 102.185,320.791 100.548,310.453 100,300 100.548,289.547 102.185,279.209 104.894,269.098 108.645,259.326 113.397,250 119.098,241.221 125.686,233.087 133.087,225.686 141.221,219.098 150,213.397 159.326,208.645 169.098,204.894 179.209,202.185 189.547,200.548 200,200 210.453,200.548 220.791,202.185 230.902,204.894 240.674,208.645 250,213.397 258.779,219.098 266.913,225.686 274.314,233.087 280.902,241.221 286.603,250 291.355,259.326 295.106,269.098 297.815,279.209 299.452,289.547 300,300 " fill="#f9c406" transform="rotate(0, 200,300)"/>
<polygon points="290,275 289.507,284.408 288.033,293.712 285.595,302.812 282.219,311.606 277.942,320 272.812,327.901 266.883,335.222 260.222,341.883 252.901,347.812 245,352.942 236.606,357.219 227.812,360.595 218.712,363.033 209.408,364.507 200,365 190.592,364.507 181.288,363.033 172.188,360.595 163.394,357.219 155,352.942 147.099,347.812 139.778,341.883 133.117,335.222 127.188,327.901 122.058,320 117.781,311.606 114.405,302.812 111.967,293.712 110.493,284.408 110,275 110.493,265.592 111.967,256.288 114.405,247.188 117.781,238.394 122.058,230 127.188,222.099 133.117,214.778 139.778,208.117 147.099,202.188 155,197.058 163.394,192.781 172.188,189.405 181.288,186.967 190.592,185.493 200,185 209.408,185.493 218.712,186.967 227.812,189.405 236.606,192.781 245,197.058 252.901,202.188 260.222,208.117 266.883,214.778 272.812,222.099 277.942,230 282.219,238.394 285.595,247.188 288.033,256.288 289.507,265.592 290,275 " fill="#f9c406" transform="rotate(0, 200,275)"/>
<polygon points="280,250 279.562,258.362 278.252,266.633 276.085,274.721 273.084,282.539 269.282,290 264.721,297.023 259.452,303.53 253.53,309.452 247.023,314.721 240,319.282 232.539,323.084 224.721,326.085 216.633,328.252 208.362,329.562 200,330 191.638,329.562 183.367,328.252 175.279,326.085 167.461,323.084 160,319.282 152.977,314.721 146.47,309.452 140.548,303.53 135.279,297.023 130.718,290 126.916,282.539 123.915,274.721 121.748,266.633 120.438,258.362 120,250 120.438,241.638 121.748,233.367 123.915,225.279 126.916,217.461 130.718,210 135.279,202.977 140.548,196.47 146.47,190.548 152.977,185.279 160,180.718 167.461,176.916 175.279,173.915 183.367,171.748 191.638,170.438 200,170 208.362,170.438 216.633,171.748 224.721,173.915 232.539,176.916 240,180.718 247.023,185.279 253.53,190.548 259.452,196.47 264.721,202.977 269.282,210 273.084,217.461 276.085,225.279 278.252,233.367 279.562,241.638 280,250 " fill="#995668" transform="rotate(0, 200,250)"/>
<polygon points="270,225 269.617,232.317 268.47,239.554 266.574,246.631 263.948,253.472 260.622,260 256.631,266.145 252.02,271.839 246.839,277.02 241.145,281.631 235,285.622 228.472,288.948 221.631,291.574 214.554,293.47 207.317,294.617 200,295 192.683,294.617 185.446,293.47 178.369,291.574 171.528,288.948 165,285.622 158.855,281.631 153.161,277.02 147.98,271.839 143.369,266.145 139.378,260 136.052,253.472 133.426,246.631 131.53,239.554 130.383,232.317 130,225 130.383,217.683 131.53,210.446 133.426,203.369 136.052,196.528 139.378,190 143.369,183.855 147.98,178.161 153.161,172.98 158.855,168.369 165,164.378 171.528,161.052 178.369,158.426 185.446,156.53 192.683,155.383 200,155 207.317,155.383 214.554,156.53 221.631,158.426 228.472,161.052 235,164.378 241.145,168.369 246.839,172.98 252.02,178.161 256.631,183.855 260.622,190 263.948,196.528 266.574,203.369 268.47,210.446 269.617,217.683 270,225 " fill="#FF0000" transform="rotate(0, 200,225)"/>
<polygon points="260,200 259.671,206.272 258.689,212.475 257.063,218.541 254.813,224.404 251.962,230 248.541,235.267 244.589,240.148 240.148,244.589 235.267,248.541 230,251.962 224.404,254.813 218.541,257.063 212.475,258.689 206.272,259.671 200,260 193.728,259.671 187.525,258.689 181.459,257.063 175.596,254.813 170,251.962 164.733,248.541 159.852,244.589 155.411,240.148 151.459,235.267 148.038,230 145.187,224.404 142.937,218.541 141.311,212.475 140.329,206.272 140,200 140.329,193.728 141.311,187.525 142.937,181.459 145.187,175.596 148.038,170 151.459,164.733 155.411,159.852 159.852,155.411 164.733,151.459 170,148.038 175.596,145.187 181.459,142.937 187.525,141.311 193.728,140.329 200,140 206.272,140.329 212.475,141.311 218.541,142.937 224.404,145.187 230,148.038 235.267,151.459 240.148,155.411 244.589,159.852 248.541,164.733 251.962,170 254.813,175.596 257.063,181.459 258.689,187.525 259.671,193.728 260,200 " fill="#f9c406" transform="rotate(0, 200,200)"/>
<polygon points="330,25 329.288,38.589 327.159,52.029 323.637,65.172 318.761,77.876 312.583,90 305.172,101.412 296.609,111.987 286.987,121.609 276.412,130.172 265,137.583 252.876,143.761 240.172,148.637 227.029,152.159 213.589,154.288 200,155 186.411,154.288 172.971,152.159 159.828,148.637 147.124,143.761 135,137.583 123.588,130.172 113.013,121.609 103.391,111.987 94.828,101.412 87.417,90 81.239,77.876 76.363,65.172 72.841,52.029 70.712,38.589 70,25 70.712,11.411 72.841,-2.029 76.363,-15.172 81.239,-27.876 87.417,-40 94.828,-51.412 103.391,-61.987 113.013,-71.609 123.588,-80.172 135,-87.583 147.124,-93.761 159.828,-98.637 172.971,-102.159 186.411,-104.288 200,-105 213.589,-104.288 227.029,-102.159 240.172,-98.637 252.876,-93.761 265,-87.583 276.412,-80.172 286.987,-71.609 296.609,-61.987 305.172,-51.412 312.583,-40 318.761,-27.876 323.637,-15.172 327.159,-2.029 329.288,11.411 330,25 " fill="#f9c406" transform="rotate(0, 200,25)"/>
<polygon points="320,50 319.343,62.543 317.378,74.949 314.127,87.082 309.625,98.808 303.923,110 297.082,120.534 289.177,130.296 280.296,139.177 270.534,147.082 260,153.923 248.808,159.625 237.082,164.127 224.949,167.378 212.543,169.343 200,170 187.457,169.343 175.051,167.378 162.918,164.127 151.192,159.625 140,153.923 129.466,147.082 119.704,139.177 110.823,130.296 102.918,120.534 96.077,110 90.375,98.808 85.873,87.082 82.622,74.949 80.657,62.543 80,50 80.657,37.457 82.622,25.051 85.873,12.918 90.375,1.192 96.077,-10 102.918,-20.534 110.823,-30.296 119.704,-39.177 129.466,-47.082 140,-53.923 151.192,-59.625 162.918,-64.127 175.051,-67.378 187.457,-69.343 200,-70 212.543,-69.343 224.949,-67.378 237.082,-64.127 248.808,-59.625 260,-53.923 270.534,-47.082 280.296,-39.177 289.177,-30.296 297.082,-20.534 303.923,-10 309.625,1.192 314.127,12.918 317.378,25.051 319.343,37.457 320,50 " fill="#995668" transform="rotate(0, 200,50)"/>
<polygon points="310,75 309.397,86.498 307.596,97.87 304.616,108.992 300.49,119.741 295.263,130 288.992,139.656 281.746,148.604 273.604,156.746 264.656,163.992 255,170.263 244.741,175.49 233.992,179.616 222.87,182.596 211.498,184.397 200,185 188.502,184.397 177.13,182.596 166.008,179.616 155.259,175.49 145,170.263 135.344,163.992 126.396,156.746 118.254,148.604 111.008,139.656 104.737,130 99.51,119.741 95.384,108.992 92.404,97.87 90.603,86.498 90,75 90.603,63.502 92.404,52.13 95.384,41.008 99.51,30.259 104.737,20 111.008,10.344 118.254,1.396 126.396,-6.746 135.344,-13.992 145,-20.263 155.259,-25.49 166.008,-29.616 177.13,-32.596 188.502,-34.397 200,-35 211.498,-34.397 222.87,-32.596 233.992,-29.616 244.741,-25.49 255,-20.263 264.656,-13.992 273.604,-6.746 281.746,1.396 288.992,10.344 295.263,20 300.49,30.259 304.616,41.008 307.596,52.13 309.397,63.502 310,75 " fill="#FF0000" transform="rotate(0, 200,75)"/>
<polygon points="300,100 299.452,110.453 297.815,120.791 295.106,130.902 291.355,140.674 286.603,150 280.902,158.779 274.314,166.913 266.913,174.314 258.779,180.902 250,186.603 240.674,191.355 230.902,195.106 220.791,197.815 210.453,199.452 200,200 189.547,199.452 179.209,197.815 169.098,195.106 159.326,191.355 150,186.603 141.221,180.902 133.087,174.314 125.686,166.913 119.098,158.779 113.397,150 108.645,140.674 104.894,130.902 102.185,120.791 100.548,110.453 100,100 100.548,89.547 102.185,79.209 104.894,69.098 108.645,59.326 113.397,50 119.098,41.221 125.686,33.087 133.087,25.686 141.221,19.098 150,13.397 159.326,8.645 169.098,4.894 179.209,2.185 189.547,0.548 200,0 210.453,0.548 220.791,2.185 230.902,4.894 240.674,8.645 250,13.397 258.779,19.098 266.913,25.686 274.314,33.087 280.902,41.221 286.603,50 291.355,59.326 295.106,69.098 297.815,79.209 299.452,89.547 300,100 " fill="#f9c406" transform="rotate(0, 200,100)"/>
<polygon points="290,125 289.507,134.408 288.033,143.712 285.595,152.812 282.219,161.606 277.942,170 272.812,177.901 266.883,185.222 260.222,191.883 252.901,197.812 245,202.942 236.606,207.219 227.812,210.595 218.712,213.033 209.408,214.507 200,215 190.592,214.507 181.288,213.033 172.188,210.595 163.394,207.219 155,202.942 147.099,197.812 139.778,191.883 133.117,185.222 127.188,177.901 122.058,170 117.781,161.606 114.405,152.812 111.967,143.712 110.493,134.408 110,125 110.493,115.592 111.967,106.288 114.405,97.188 117.781,88.394 122.058,80 127.188,72.099 133.117,64.778 139.778,58.117 147.099,52.188 155,47.058 163.394,42.781 172.188,39.405 181.288,36.967 190.592,35.493 200,35 209.408,35.493 218.712,36.967 227.812,39.405 236.606,42.781 245,47.058 252.901,52.188 260.222,58.117 266.883,64.778 272.812,72.099 277.942,80 282.219,88.394 285.595,97.188 288.033,106.288 289.507,115.592 290,125 " fill="#f9c406" transform="rotate(0, 200,125)"/>
<polygon points="280,150 279.562,158.362 278.252,166.633 276.085,174.721 273.084,182.539 269.282,190 264.721,197.023 259.452,203.53 253.53,209.452 247.023,214.721 240,219.282 232.539,223.084 224.721,226.085 216.633,228.252 208.362,229.562 200,230 191.638,229.562 183.367,228.252 175.279,226.085 167.461,223.084 160,219.282 152.977,214.721 146.47,209.452 140.548,203.53 135.279,197.023 130.718,190 126.916,182.539 123.915,174.721 121.748,166.633 120.438,158.362 120,150 120.438,141.638 121.748,133.367 123.915,125.279 126.916,117.461 130.718,110 135.279,102.977 140.548,96.47 146.47,90.548 152.977,85.279 160,80.718 167.461,76.916 175.279,73.915 183.367,71.748 191.638,70.438 200,70 208.362,70.438 216.633,71.748 224.721,73.915 232.539,76.916 240,80.718 247.023,85.279 253.53,90.548 259.452,96.47 264.721,102.977 269.282,110 273.084,117.461 276.085,125.279 278.252,133.367 279.562,141.638 280,150 " fill="#995668" transform="rotate(0, 200,150)"/>
<polygon points="270,175 269.617,182.317 268.47,189.554 266.574,196.631 263.948,203.472 260.622,210 256.631,216.145 252.02,221.839 246.839,227.02 241.145,231.631 235,235.622 228.472,238.948 221.631,241.574 214.554,243.47 207.317,244.617 200,245 192.683,244.617 185.446,243.47 178.369,241.574 171.528,238.948 165,235.622 158.855,231.631 153.161,227.02 147.98,221.839 143.369,216.145 139.378,210 136.052,203.472 133.426,196.631 131.53,189.554 130.383,182.317 130,175 130.383,167.683 131.53,160.446 133.426,153.369 136.052,146.528 139.378,140 143.369,133.855 147.98,128.161 153.161,122.98 158.855,118.369 165,114.378 171.528,111.052 178.369,108.426 185.446,106.53 192.683,105.383 200,105 207.317,105.383 214.554,106.53 221.631,108.426 228.472,111.052 235,114.378 241.145,118.369 246.839,122.98 252.02,128.161 256.631,133.855 260.622,140 263.948,146.528 266.574,153.369 268.47,160.446 269.617,167.683 270,175 " fill="#FF0000" transform="rotate(0, 200,175)"/>
<polygon points="260,200 259.671,206.272 258.689,212.475 257.063,218.541 254.813,224.404 251.962,230 248.541,235.267 244.589,240.148 240.148,244.589 235.267,248.541 230,251.962 224.404,254.813 218.541,257.063 212.475,258.689 206.272,259.671 200,260 193.728,259.671 187.525,258.689 181.459,257.063 175.596,254.813 170,251.962 164.733,248.541 159.852,244.589 155.411,240.148 151.459,235.267 148.038,230 145.187,224.404 142.937,218.541 141.311,212.475 140.329,206.272 140,200 140.329,193.728 141.311,187.525 142.937,181.459 145.187,175.596 148.038,170 151.459,164.733 155.411,159.852 159.852,155.411 164.733,151.459 170,148.038 175.596,145.187 181.459,142.937 187.525,141.311 193.728,140.329 200,140 206.272,140.329 212.475,141.311 218.541,142.937 224.404,145.187 230,148.038 235.267,151.459 240.148,155.411 244.589,159.852 248.541,164.733 251.962,170 254.813,175.596 257.063,181.459 258.689,187.525 259.671,193.728 260,200 " fill="#f9c406" transform="rotate(0, 200,200)"/>
<polygon points="505,200 504.288,213.589 502.159,227.029 498.637,240.172 493.761,252.876 487.583,265 480.172,276.412 471.609,286.987 461.987,296.609 451.412,305.172 440,312.583 427.876,318.761 415.172,323.637 402.029,327.159 388.589,329.288 375,330 361.411,329.288 347.971,327.159 334.828,323.637 322.124,318.761 310,312.583 298.588,305.172 288.013,296.609 278.391,286.987 269.828,276.412 262.417,265 256.239,252.876 251.363,240.172 247.841,227.029 245.712,213.589 245,200 245.712,186.411 247.841,172.971 251.363,159.828 256.239,147.124 262.417,135 269.828,123.588 278.391,113.013 288.013,103.391 298.588,94.828 310,87.417 322.124,81.239 334.828,76.363 347.971,72.841 361.411,70.712 375,70 388.589,70.712 402.029,72.841 415.172,76.363 427.876,81.239 440,87.417 451.412,94.828 461.987,103.391 471.609,113.013 480.172,123.588 487.583,135 493.761,147.124 498.637,159.828 502.159,172.971 504.288,186.411 505,200 " fill="#f9c406" transform="rotate(0, 375,200)"/>
<polygon points="470,200 469.343,212.543 467.378,224.949 464.127,237.082 459.625,248.808 453.923,260 447.082,270.534 439.177,280.296 430.296,289.177 420.534,297.082 410,303.923 398.808,309.625 387.082,314.127 374.949,317.378 362.543,319.343 350,320 337.457,319.343 325.051,317.378 312.918,314.127 301.192,309.625 290,303.923 279.466,297.082 269.704,289.177 260.823,280.296 252.918,270.534 246.077,260 240.375,248.808 235.873,237.082 232.622,224.949 230.657,212.543 230,200 230.657,187.457 232.622,175.051 235.873,162.918 240.375,151.192 246.077,140 252.918,129.466 260.823,119.704 269.704,110.823 279.466,102.918 290,96.077 301.192,90.375 312.918,85.873 325.051,82.622 337.457,80.657 350,80 362.543,80.657 374.949,82.622 387.082,85.873 398.808,90.375 410,96.077 420.534,102.918 430.296,110.823 439.177,119.704 447.082,129.466 453.923,140 459.625,151.192 464.127,162.918 467.378,175.051 469.343,187.457 470,200 " fill="#995668" transform="rotate(0, 350,200)"/>
<polygon points="435,200 434.397,211.498 432.596,222.87 429.616,233.992 425.49,244.741 420.263,255 413.992,264.656 406.746,273.604 398.604,281.746 389.656,288.992 380,295.263 369.741,300.49 358.992,304.616 347.87,307.596 336.498,309.397 325,310 313.502,309.397 302.13,307.596 291.008,304.616 280.259,300.49 270,295.263 260.344,288.992 251.396,281.746 243.254,273.604 236.008,264.656 229.737,255 224.51,244.741 220.384,233.992 217.404,222.87 215.603,211.498 215,200 215.603,188.502 217.404,177.13 220.384,166.008 224.51,155.259 229.737,145 236.008,135.344 243.254,126.396 251.396,118.254 260.344,111.008 270,104.737 280.259,99.51 291.008,95.384 302.13,92.404 313.502,90.603 325,90 336.498,90.603 347.87,92.404 358.992,95.384 369.741,99.51 380,104.737 389.656,111.008 398.604,118.254 406.746,126.396 413.992,135.344 420.263,145 425.49,155.259 429.616,166.008 432.596,177.13 434.397,188.502 435,200 " fill="#FF0000" transform="rotate(0, 325,200)"/>
<polygon points="400,200 399.452,210.453 397.815,220.791 395.106,230.902 391.355,240.674 386.603,250 380.902,258.779 374.314,266.913 366.913,274.314 358.779,280.902 350,286.603 340.674,291.355 330.902,295.106 320.791,297.815 310.453,299.452 300,300 289.547,299.452 279.209,297.815 269.098,295.106 259.326,291.355 250,286.603 241.221,280.902 233.087,274.314 225.686,266.913 219.098,258.779 213.397,250 208.645,240.674 204.894,230.902 202.185,220.791 200.548,210.453 200,200 200.548,189.547 202.185,179.209 204.894,169.098 208.645,159.326 213.397,150 219.098,141.221 225.686,133.087 233.087,125.686 241.221,119.098 250,113.397 259.326,108.645 269.098,104.894 279.209,102.185 289.547,100.548 300,100 310.453,100.548 320.791,102.185 330.902,104.894 340.674,108.645 350,113.397 358.779,119.098 366.913,125.686 374.314,133.087 380.902,141.221 386.603,150 391.355,159.326 395.106,169.098 397.815,179.209 399.452,189.547 400,200 " fill="#f9c406" transform="rotate(0, 300,200)"/>
<polygon points="365,200 364.507,209.408 363.033,218.712 360.595,227.812 357.219,236.606 352.942,245 347.812,252.901 341.883,260.222 335.222,266.883 327.901,272.812 320,277.942 311.606,282.219 302.812,285.595 293.712,288.033 284.408,289.507 275,290 265.592,289.507 256.288,288.033 247.188,285.595 238.394,282.219 230,277.942 222.099,272.812 214.778,266.883 208.117,260.222 202.188,252.901 197.058,245 192.781,236.606 189.405,227.812 186.967,218.712 185.493,209.408 185,200 185.493,190.592 186.967,181.288 189.405,172.188 192.781,163.394 197.058,155 202.188,147.099 208.117,139.778 214.778,133.117 222.099,127.188 230,122.058 238.394,117.781 247.188,114.405 256.288,111.967 265.592,110.493 275,110 284.408,110.493 293.712,111.967 302.812,114.405 311.606,117.781 320,122.058 327.901,127.188 335.222,133.117 341.883,139.778 347.812,147.099 352.942,155 357.219,163.394 360.595,172.188 363.033,181.288 364.507,190.592 365,200 " fill="#f9c406" transform="rotate(0, 275,200)"/>
<polygon points="330,200 329.562,208.362 328.252,216.633 326.085,224.721 323.084,232.539 319.282,240 314.721,247.023 309.452,253.53 303.53,259.452 297.023,264.721 290,269.282 282.539,273.084 274.721,276.085 266.633,278.252 258.362,279.562 250,280 241.638,279.562 233.367,278.252 225.279,276.085 217.461,273.084 210,269.282 202.977,264.721 196.47,259.452 190.548,253.53 185.279,247.023 180.718,240 176.916,232.539 173.915,224.721 171.748,216.633 170.438,208.362 170,200 170.438,191.638 171.748,183.367 173.915,175.279 176.916,167.461 180.718,160 185.279,152.977 190.548,146.47 196.47,140.548 202.977,135.279 210,130.718 217.461,126.916 225.279,123.915 233.367,121.748 241.638,120.438 250,120 258.362,120.438 266.633,121.748 274.721,123.915 282.539,126.916 290,130.718 297.023,135.279 303.53,140.548 309.452,146.47 314.721,152.977 319.282,160 323.084,167.461 326.085,175.279 328.252,183.367 329.562,191.638 330,200 " fill="#995668" transform="rotate(0, 250,200)"/>
<polygon points="295,200 294.617,207.317 293.47,214.554 291.574,221.631 288.948,228.472 285.622,235 281.631,241.145 277.02,246.839 271.839,252.02 266.145,256.631 260,260.622 253.472,263.948 246.631,266.574 239.554,268.47 232.317,269.617 225,270 217.683,269.617 210.446,268.47 203.369,266.574 196.528,263.948 190,260.622 183.855,256.631 178.161,252.02 172.98,246.839 168.369,241.145 164.378,235 161.052,228.472 158.426,221.631 156.53,214.554 155.383,207.317 155,200 155.383,192.683 156.53,185.446 158.426,178.369 161.052,171.528 164.378,165 168.369,158.855 172.98,153.161 178.161,147.98 183.855,143.369 190,139.378 196.528,136.052 203.369,133.426 210.446,131.53 217.683,130.383 225,130 232.317,130.383 239.554,131.53 246.631,133.426 253.472,136.052 260,139.378 266.145,143.369 271.839,147.98 277.02,153.161 281.631,158.855 285.622,165 288.948,171.528 291.574,178.369 293.47,185.446 294.617,192.683 295,200 " fill="#FF0000" transform="rotate(0, 225,200)"/>
<polygon points="260,200 259.671,206.272 258.689,212.475 257.063,218.541 254.813,224.404 251.962,230 248.541,235.267 244.589,240.148 240.148,244.589 235.267,248.541 230,251.962 224.404,254.813 218.541,257.063 212.475,258.689 206.272,259.671 200,260 193.728,259.671 187.525,258.689 181.459,257.063 175.596,254.813 170,251.962 164.733,248.541 159.852,244.589 155.411,240.148 151.459,235.267 148.038,230 145.187,224.404 142.937,218.541 141.311,212.475 140.329,206.272 140,200 140.329,193.728 141.311,187.525 142.937,181.459 145.187,175.596 148.038,170 151.459,164.733 155.411,159.852 159.852,155.411 164.733,151.459 170,148.038 175.596,145.187 181.459,142.937 187.525,141.311 193.728,140.329 200,140 206.272,140.329 212.475,141.311 218.541,142.937 224.404,145.187 230,148.038 235.267,151.459 240.148,155.411 244.589,159.852 248.541,164.733 251.962,170 254.813,175.596 257.063,181.459 258.689,187.525 259.671,193.728 260,200 " fill="#f9c406" transform="rotate(0, 200,200)"/>
<polygon points="155,200 154.288,213.589 152.159,227.029 148.637,240.172 143.761,252.876 137.583,265 130.172,276.412 121.609,286.987 111.987,296.609 101.412,305.172 90,312.583 77.876,318.761 65.172,323.637 52.029,327.159 38.589,329.288 25,330 11.411,329.288 -2.029,327.159 -15.172,323.637 -27.876,318.761 -40,312.583 -51.412,305.172 -61.987,296.609 -71.609,286.987 -80.172,276.412 -87.583,265 -93.761,252.876 -98.637,240.172 -102.159,227.029 -104.288,213.589 -105,200 -104.288,186.411 -102.159,172.971 -98.637,159.828 -93.761,147.124 -87.583,135 -80.172,123.588 -71.609,113.013 -61.987,103.391 -51.412,94.828 -40,87.417 -27.876,81.239 -15.172,76.363 -2.029,72.841 11.411,70.712 25,70 38.589,70.712 52.029,72.841 65.172,76.363 77.876,81.239 90,87.417 101.412,94.828 111.987,103.391 121.609,113.013 130.172,123.588 137.583,135 143.761,147.124 148.637,159.828 152.159,172.971 154.288,186.411 155,200 " fill="#f9c406" transform="rotate(0, 25,200)"/>
<polygon points="170,200 169.343,212.543 167.378,224.949 164.127,237.082 159.625,248.808 153.923,260 147.082,270.534 139.177,280.296 130.296,289.177 120.534,297.082 110,303.923 98.808,309.625 87.082,314.127 74.949,317.378 62.543,319.343 50,320 37.457,319.343 25.051,317.378 12.918,314.127 1.192,309.625 -10,303.923 -20.534,297.082 -30.296,289.177 -39.177,280.296 -47.082,270.534 -53.923,260 -59.625,248.808 -64.127,237.082 -67.378,224.949 -69.343,212.543 -70,200 -69.343,187.457 -67.378,175.051 -64.127,162.918 -59.625,151.192 -53.923,140 -47.082,129.466 -39.177,119.704 -30.296,110.823 -20.534,102.918 -10,96.077 1.192,90.375 12.918,85.873 25.051,82.622 37.457,80.657 50,80 62.543,80.657 74.949,82.622 87.082,85.873 98.808,90.375 110,96.077 120.534,102.918 130.296,110.823 139.177,119.704 147.082,129.466 153.923,140 159.625,151.192 164.127,162.918 167.378,175.051 169.343,187.457 170,200 " fill="#995668" transform="rotate(0, 50,200)"/>
<polygon points="185,200 184.397,211.498 182.596,222.87 179.616,233.992 175.49,244.741 170.263,255 163.992,264.656 156.746,273.604 148.604,281.746 139.656,288.992 130,295.263 119.741,300.49 108.992,304.616 97.87,307.596 86.498,309.397 75,310 63.502,309.397 52.13,307.596 41.008,304.616 30.259,300.49 20,295.263 10.344,288.992 1.396,281.746 -6.746,273.604 -13.992,264.656 -20.263,255 -25.49,244.741 -29.616,233.992 -32.596,222.87 -34.397,211.498 -35,200 -34.397,188.502 -32.596,177.13 -29.616,166.008 -25.49,155.259 -20.263,145 -13.992,135.344 -6.746,126.396 1.396,118.254 10.344,111.008 20,104.737 30.259,99.51 41.008,95.384 52.13,92.404 63.502,90.603 75,90 86.498,90.603 97.87,92.404 108.992,95.384 119.741,99.51 130,104.737 139.656,111.008 148.604,118.254 156.746,126.396 163.992,135.344 170.263,145 175.49,155.259 179.616,166.008 182.596,177.13 184.397,188.502 185,200 " fill="#FF0000" transform="rotate(0, 75,200)"/>
<polygon points="200,200 199.452,210.453 197.815,220.791 195.106,230.902 191.355,240.674 186.603,250 180.902,258.779 174.314,266.913 166.913,274.314 158.779,280.902 150,286.603 140.674,291.355 130.902,295.106 120.791,297.815 110.453,299.452 100,300 89.547,299.452 79.209,297.815 69.098,295.106 59.326,291.355 50,286.603 41.221,280.902 33.087,274.314 25.686,266.913 19.098,258.779 13.397,250 8.645,240.674 4.894,230.902 2.185,220.791 0.548,210.453 0,200 0.548,189.547 2.185,179.209 4.894,169.098 8.645,159.326 13.397,150 19.098,141.221 25.686,133.087 33.087,125.686 41.221,119.098 50,113.397 59.326,108.645 69.098,104.894 79.209,102.185 89.547,100.548 100,100 110.453,100.548 120.791,102.185 130.902,104.894 140.674,108.645 150,113.397 158.779,119.098 166.913,125.686 174.314,133.087 180.902,141.221 186.603,150 191.355,159.326 195.106,169.098 197.815,179.209 199.452,189.547 200,200 " fill="#f9c406" transform="rotate(0, 100,200)"/>
<polygon points="215,200 214.507,209.408 213.033,218.712 210.595,227.812 207.219,236.606 202.942,245 197.812,252.901 191.883,260.222 185.222,266.883 177.901,272.812 170,277.942 161.606,282.219 152.812,285.595 143.712,288.033 134.408,289.507 125,290 115.592,289.507 106.288,288.033 97.188,285.595 88.394,282.219 80,277.942 72.099,272.812 64.778,266.883 58.117,260.222 52.188,252.901 47.058,245 42.781,236.606 39.405,227.812 36.967,218.712 35.493,209.408 35,200 35.493,190.592 36.967,181.288 39.405,172.188 42.781,163.394 47.058,155 52.188,147.099 58.117,139.778 64.778,133.117 72.099,127.188 80,122.058 88.394,117.781 97.188,114.405 106.288,111.967 115.592,110.493 125,110 134.408,110.493 143.712,111.967 152.812,114.405 161.606,117.781 170,122.058 177.901,127.188 185.222,133.117 191.883,139.778 197.812,147.099 202.942,155 207.219,163.394 210.595,172.188 213.033,181.288 214.507,190.592 215,200 " fill="#f9c406" transform="rotate(0, 125,200)"/>
<polygon points="230,200 229.562,208.362 228.252,216.633 226.085,224.721 223.084,232.539 219.282,240 214.721,247.023 209.452,253.53 203.53,259.452 197.023,264.721 190,269.282 182.539,273.084 174.721,276.085 166.633,278.252 158.362,279.562 150,280 141.638,279.562 133.367,278.252 125.279,276.085 117.461,273.084 110,269.282 102.977,264.721 96.47,259.452 90.548,253.53 85.279,247.023 80.718,240 76.916,232.539 73.915,224.721 71.748,216.633 70.438,208.362 70,200 70.438,191.638 71.748,183.367 73.915,175.279 76.916,167.461 80.718,160 85.279,152.977 90.548,146.47 96.47,140.548 102.977,135.279 110,130.718 117.461,126.916 125.279,123.915 133.367,121.748 141.638,120.438 150,120 158.362,120.438 166.633,121.748 174.721,123.915 182.539,126.916 190,130.718 197.023,135.279 203.53,140.548 209.452,146.47 214.721,152.977 219.282,160 223.084,167.461 226.085,175.279 228.252,183.367 229.562,191.638 230,200 " fill="#995668" transform="rotate(0, 150,200)"/>
<polygon points="245,200 244.617,207.317 243.47,214.554 241.574,221.631 238.948,228.472 235.622,235 231.631,241.145 227.02,246.839 221.839,252.02 216.145,256.631 210,260.622 203.472,263.948 196.631,266.574 189.554,268.47 182.317,269.617 175,270 167.683,269.617 160.446,268.47 153.369,266.574 146.528,263.948 140,260.622 133.855,256.631 128.161,252.02 122.98,246.839 118.369,241.145 114.378,235 111.052,228.472 108.426,221.631 106.53,214.554 105.383,207.317 105,200 105.383,192.683 106.53,185.446 108.426,178.369 111.052,171.528 114.378,165 118.369,158.855 122.98,153.161 128.161,147.98 133.855,143.369 140,139.378 146.528,136.052 153.369,133.426 160.446,131.53 167.683,130.383 175,130 182.317,130.383 189.554,131.53 196.631,133.426 203.472,136.052 210,139.378 216.145,143.369 221.839,147.98 227.02,153.161 231.631,158.855 235.622,165 238.948,171.528 241.574,178.369 243.47,185.446 244.617,192.683 245,200 " fill="#FF0000" transform="rotate(0, 175,200)"/>
<polygon points="260,200 259.671,206.272 258.689,212.475 257.063,218.541 254.813,224.404 251.962,230 248.541,235.267 244.589,240.148 240.148,244.589 235.267,248.541 230,251.962 224.404,254.813 218.541,257.063 212.475,258.689 206.272,259.671 200,260 193.728,259.671 187.525,258.689 181.459,257.063 175.596,254.813 170,251.962 164.733,248.541 159.852,244.589 155.411,240.148 151.459,235.267 148.038,230 145.187,224.404 142.937,218.541 141.311,212.475 140.329,206.272 140,200 140.329,193.728 141.311,187.525 142.937,181.459 145.187,175.596 148.038,170 151.459,164.733 155.411,159.852 159.852,155.411 164.733,151.459 170,148.038 175.596,145.187 181.459,142.937 187.525,141.311 193.728,140.329 200,140 206.272,140.329 212.475,141.311 218.541,142.937 224.404,145.187 230,148.038 235.267,151.459 240.148,155.411 244.589,159.852 248.541,164.733 251.962,170 254.813,175.596 257.063,181.459 258.689,187.525 259.671,193.728 260,200 " fill="#f9c406" transform="rotate(0, 200,200)"/>
<polygon points="260,200 259.671,206.272 258.689,212.475 257.063,218.541 254.813,224.404 251.962,230 248.541,235.267 244.589,240.148 240.148,244.589 235.267,248.541 230,251.962 224.404,254.813 218.541,257.063 212.475,258.689 206.272,259.671 200,260 193.728,259.671 187.525,258.689 181.459,257.063 175.596,254.813 170,251.962 164.733,248.541 159.852,244.589 155.411,240.148 151.459,235.267 148.038,230 145.187,224.404 142.937,218.541 141.311,212.475 140.329,206.272 140,200 140.329,193.728 141.311,187.525 142.937,181.459 145.187,175.596 148.038,170 151.459,164.733 155.411,159.852 159.852,155.411 164.733,151.459 170,148.038 175.596,145.187 181.459,142.937 187.525,141.311 193.728,140.329 200,140 206.272,140.329 212.475,141.311 218.541,142.937 224.404,145.187 230,148.038 235.267,151.459 240.148,155.411 244.589,159.852 248.541,164.733 251.962,170 254.813,175.596 257.063,181.459 258.689,187.525 259.671,193.728 260,200 " fill="#0055BB" transform="rotate(0, 200,200)"/>

</svg>
